ISO-10303-21;
HEADER;
/* Generated by software containing ST-Developer
 * from STEP Tools, Inc. (www.steptools.com) 
 */
/* OPTION: using custom renumber hook */

FILE_DESCRIPTION(
/* description */ ('STEP AP242 Edition 2',
'CAx-IF Rec.Pracs.---Representation and Presentation of Product Manufa
cturing Information (PMI)---4.0---2014-10-13',
'CAx-IF Rec.Pracs.---3D Tessellated Geometry---0.4---2014-09-14','2;1',
'CAx-IF Rec.Pracs.---User Defined Attributes---1.5---2016-08-15'),
/* implementation_level */ '2;1');

FILE_NAME(
/* name */ 'balcony floor',
/* time_stamp */ '2026-09-06T17:56:03Z',
/* author */ (''),
/* organization */ (''),
/* preprocessor_version */ 'ST-DEVELOPER v20',
/* originating_system */ 'ONSHAPE BY PTC INC, 1.220',
/* authorisation */ '  ');

FILE_SCHEMA (('AP242_MANAGED_MODEL_BASED_3D_ENGINEERING_MIM_LF { 1 0 10303 442 3 1 4 }'));
ENDSEC;

DATA;
#10=SHAPE_REPRESENTATION_RELATIONSHIP('','',#111,#11);
#11=ADVANCED_BREP_SHAPE_REPRESENTATION('',(#109),#181);
#12=CYLINDRICAL_SURFACE('',#116,0.04);
#13=CYLINDRICAL_SURFACE('',#122,0.038);
#14=CIRCLE('',#114,0.038);
#15=CIRCLE('',#117,0.04);
#16=CIRCLE('',#118,0.04);
#17=CIRCLE('',#121,0.038);
#18=ORIENTED_EDGE('',*,*,#42,.F.);
#19=ORIENTED_EDGE('',*,*,#43,.T.);
#20=ORIENTED_EDGE('',*,*,#44,.F.);
#21=ORIENTED_EDGE('',*,*,#45,.F.);
#22=ORIENTED_EDGE('',*,*,#46,.F.);
#23=ORIENTED_EDGE('',*,*,#47,.F.);
#24=ORIENTED_EDGE('',*,*,#42,.T.);
#25=ORIENTED_EDGE('',*,*,#48,.T.);
#26=ORIENTED_EDGE('',*,*,#49,.T.);
#27=ORIENTED_EDGE('',*,*,#50,.T.);
#28=ORIENTED_EDGE('',*,*,#51,.T.);
#29=ORIENTED_EDGE('',*,*,#50,.F.);
#30=ORIENTED_EDGE('',*,*,#52,.F.);
#31=ORIENTED_EDGE('',*,*,#45,.T.);
#32=ORIENTED_EDGE('',*,*,#44,.T.);
#33=ORIENTED_EDGE('',*,*,#51,.F.);
#34=ORIENTED_EDGE('',*,*,#49,.F.);
#35=ORIENTED_EDGE('',*,*,#53,.F.);
#36=ORIENTED_EDGE('',*,*,#46,.T.);
#37=ORIENTED_EDGE('',*,*,#52,.T.);
#38=ORIENTED_EDGE('',*,*,#53,.T.);
#39=ORIENTED_EDGE('',*,*,#48,.F.);
#40=ORIENTED_EDGE('',*,*,#43,.F.);
#41=ORIENTED_EDGE('',*,*,#47,.T.);
#42=EDGE_CURVE('',#54,#55,#62,.T.);
#43=EDGE_CURVE('',#54,#55,#14,.T.);
#44=EDGE_CURVE('',#56,#57,#63,.T.);
#45=EDGE_CURVE('',#58,#56,#64,.T.);
#46=EDGE_CURVE('',#59,#58,#65,.F.);
#47=EDGE_CURVE('',#54,#59,#66,.T.);
#48=EDGE_CURVE('',#55,#60,#67,.T.);
#49=EDGE_CURVE('',#60,#61,#68,.F.);
#50=EDGE_CURVE('',#61,#57,#69,.T.);
#51=EDGE_CURVE('',#56,#57,#15,.T.);
#52=EDGE_CURVE('',#58,#61,#16,.T.);
#53=EDGE_CURVE('',#59,#60,#17,.T.);
#54=VERTEX_POINT('',#156);
#55=VERTEX_POINT('',#157);
#56=VERTEX_POINT('',#161);
#57=VERTEX_POINT('',#162);
#58=VERTEX_POINT('',#164);
#59=VERTEX_POINT('',#166);
#60=VERTEX_POINT('',#169);
#61=VERTEX_POINT('',#171);
#62=LINE('',#155,#70);
#63=LINE('',#160,#71);
#64=LINE('',#163,#72);
#65=LINE('',#165,#73);
#66=LINE('',#167,#74);
#67=LINE('',#168,#75);
#68=LINE('',#170,#76);
#69=LINE('',#172,#77);
#70=VECTOR('',#127,1.);
#71=VECTOR('',#132,1.);
#72=VECTOR('',#133,1.);
#73=VECTOR('',#134,1.);
#74=VECTOR('',#135,1.);
#75=VECTOR('',#136,1.);
#76=VECTOR('',#137,1.);
#77=VECTOR('',#138,1.);
#78=EDGE_LOOP('',(#18,#19));
#79=EDGE_LOOP('',(#20,#21,#22,#23,#24,#25,#26,#27));
#80=EDGE_LOOP('',(#28,#29,#30,#31));
#81=EDGE_LOOP('',(#32,#33));
#82=EDGE_LOOP('',(#34,#35,#36,#37));
#83=EDGE_LOOP('',(#38,#39,#40,#41));
#84=FACE_BOUND('',#78,.T.);
#85=FACE_BOUND('',#79,.T.);
#86=FACE_BOUND('',#80,.T.);
#87=FACE_BOUND('',#81,.T.);
#88=FACE_BOUND('',#82,.T.);
#89=FACE_BOUND('',#83,.T.);
#90=PLANE('',#113);
#91=PLANE('',#115);
#92=PLANE('',#119);
#93=PLANE('',#120);
#94=ADVANCED_FACE('',(#84),#90,.T.);
#95=ADVANCED_FACE('',(#85),#91,.T.);
#96=ADVANCED_FACE('',(#86),#12,.T.);
#97=ADVANCED_FACE('',(#87),#92,.F.);
#98=ADVANCED_FACE('',(#88),#93,.T.);
#99=ADVANCED_FACE('',(#89),#13,.F.);
#100=CLOSED_SHELL('',(#94,#95,#96,#97,#98,#99));
#101=STYLED_ITEM('',(#102),#109);
#102=PRESENTATION_STYLE_ASSIGNMENT((#103));
#103=SURFACE_STYLE_USAGE(.BOTH.,#104);
#104=SURFACE_SIDE_STYLE('',(#105));
#105=SURFACE_STYLE_FILL_AREA(#106);
#106=FILL_AREA_STYLE('',(#107));
#107=FILL_AREA_STYLE_COLOUR('',#108);
#108=COLOUR_RGB('',0.964705882352941,0.964705882352941,0.964705882352941);
#109=MANIFOLD_SOLID_BREP('Part 1',#100);
#110=SHAPE_DEFINITION_REPRESENTATION(#186,#111);
#111=SHAPE_REPRESENTATION('Part 1',(#112),#181);
#112=AXIS2_PLACEMENT_3D('',#153,#123,#124);
#113=AXIS2_PLACEMENT_3D('',#154,#125,#126);
#114=AXIS2_PLACEMENT_3D('',#158,#128,#129);
#115=AXIS2_PLACEMENT_3D('',#159,#130,#131);
#116=AXIS2_PLACEMENT_3D('',#173,#139,#140);
#117=AXIS2_PLACEMENT_3D('',#174,#141,#142);
#118=AXIS2_PLACEMENT_3D('',#175,#143,#144);
#119=AXIS2_PLACEMENT_3D('',#176,#145,#146);
#120=AXIS2_PLACEMENT_3D('',#177,#147,#148);
#121=AXIS2_PLACEMENT_3D('',#178,#149,#150);
#122=AXIS2_PLACEMENT_3D('',#179,#151,#152);
#123=DIRECTION('',(0.,0.,1.));
#124=DIRECTION('',(1.,0.,0.));
#125=DIRECTION('',(0.,0.,1.));
#126=DIRECTION('',(1.,0.,0.));
#127=DIRECTION('',(1.,0.,0.));
#128=DIRECTION('',(0.,0.,1.));
#129=DIRECTION('',(-1.,6.4455094691966E-17,0.));
#130=DIRECTION('',(0.,1.,0.));
#131=DIRECTION('',(0.,0.,1.));
#132=DIRECTION('',(1.,0.,0.));
#133=DIRECTION('',(0.,0.,-1.));
#134=DIRECTION('',(1.,0.,0.));
#135=DIRECTION('',(-2.77555756156289E-16,0.,1.));
#136=DIRECTION('',(2.77555756156289E-16,3.39907768361723E-32,1.));
#137=DIRECTION('',(-1.,-1.22464679914735E-16,0.));
#138=DIRECTION('',(0.,0.,-1.));
#139=DIRECTION('',(0.,0.,-1.));
#140=DIRECTION('',(-1.,0.,0.));
#141=DIRECTION('',(0.,0.,1.));
#142=DIRECTION('',(1.,0.,0.));
#143=DIRECTION('',(0.,0.,1.));
#144=DIRECTION('',(-1.,6.12323399573677E-17,0.));
#145=DIRECTION('',(0.,0.,1.));
#146=DIRECTION('',(1.,0.,0.));
#147=DIRECTION('',(0.,0.,1.));
#148=DIRECTION('',(1.,0.,0.));
#149=DIRECTION('',(0.,0.,1.));
#150=DIRECTION('',(-1.,6.4455094691966E-17,0.));
#151=DIRECTION('',(0.,0.,1.));
#152=DIRECTION('',(1.,0.,0.));
#153=CARTESIAN_POINT('',(0.,0.,0.));
#154=CARTESIAN_POINT('',(0.,-0.02,0.0025));
#155=CARTESIAN_POINT('',(0.,0.,0.0025));
#156=CARTESIAN_POINT('',(-0.038,0.,0.0025));
#157=CARTESIAN_POINT('',(0.038,0.,0.0025));
#158=CARTESIAN_POINT('',(0.,-2.4492935982947E-18,0.0025));
#159=CARTESIAN_POINT('',(0.,0.,0.0025));
#160=CARTESIAN_POINT('',(0.,0.,0.));
#161=CARTESIAN_POINT('',(-0.04,0.,0.));
#162=CARTESIAN_POINT('',(0.04,0.,0.));
#163=CARTESIAN_POINT('',(-0.04,0.,0.0025));
#164=CARTESIAN_POINT('',(-0.04,0.,0.0275));
#165=CARTESIAN_POINT('',(-0.039,0.,0.0275));
#166=CARTESIAN_POINT('',(-0.038,0.,0.0275));
#167=CARTESIAN_POINT('',(-0.038,0.,0.015));
#168=CARTESIAN_POINT('',(0.038,4.65365783675994E-18,0.015));
#169=CARTESIAN_POINT('',(0.038,-2.4492935982947E-18,0.0275));
#170=CARTESIAN_POINT('',(0.039,4.77612251667468E-18,0.0275));
#171=CARTESIAN_POINT('',(0.04,-2.4492935982947E-18,0.0275));
#172=CARTESIAN_POINT('',(0.04,0.,0.0025));
#173=CARTESIAN_POINT('',(0.,-2.4492935982947E-18,0.0025));
#174=CARTESIAN_POINT('',(0.,-2.4492935982947E-18,0.));
#175=CARTESIAN_POINT('',(0.,-2.4492935982947E-18,0.0275));
#176=CARTESIAN_POINT('',(0.,-0.02,0.));
#177=CARTESIAN_POINT('',(-0.039,0.,0.0275));
#178=CARTESIAN_POINT('',(0.,-2.4492935982947E-18,0.0275));
#179=CARTESIAN_POINT('',(0.,-2.4492935982947E-18,0.0025));
#180=MECHANICAL_DESIGN_GEOMETRIC_PRESENTATION_REPRESENTATION('',(#101),
#181);
#181=(
GEOMETRIC_REPRESENTATION_CONTEXT(3)
GLOBAL_UNCERTAINTY_ASSIGNED_CONTEXT((#182))
GLOBAL_UNIT_ASSIGNED_CONTEXT((#185,#184,#183))
REPRESENTATION_CONTEXT('Part 1','TOP_LEVEL_ASSEMBLY_PART')
);
#182=UNCERTAINTY_MEASURE_WITH_UNIT(LENGTH_MEASURE(1.E-8),#185,
'DISTANCE_ACCURACY_VALUE','Maximum Tolerance applied to model');
#183=(
NAMED_UNIT(*)
SI_UNIT($,.STERADIAN.)
SOLID_ANGLE_UNIT()
);
#184=(
NAMED_UNIT(*)
PLANE_ANGLE_UNIT()
SI_UNIT($,.RADIAN.)
);
#185=(
LENGTH_UNIT()
NAMED_UNIT(*)
SI_UNIT($,.METRE.)
);
#186=PRODUCT_DEFINITION_SHAPE('','',#187);
#187=PRODUCT_DEFINITION('','',#189,#188);
#188=PRODUCT_DEFINITION_CONTEXT('',#195,'design');
#189=PRODUCT_DEFINITION_FORMATION_WITH_SPECIFIED_SOURCE('','',#191,
 .NOT_KNOWN.);
#190=PRODUCT_RELATED_PRODUCT_CATEGORY('','',(#191));
#191=PRODUCT('Part 1','Part 1','Part 1',(#193));
#192=PRODUCT_CATEGORY('','');
#193=PRODUCT_CONTEXT('',#195,'mechanical');
#194=APPLICATION_PROTOCOL_DEFINITION('international standard',
'ap242_managed_model_based_3d_engineering',2020,#195);
#195=APPLICATION_CONTEXT('managed model based 3d engineering');
ENDSEC;
END-ISO-10303-21;
