ISO-10303-21;
HEADER;
/* Generated by software containing ST-Developer
 * from STEP Tools, Inc. (www.steptools.com) 
 */
/* OPTION: using custom renumber hook */

FILE_DESCRIPTION(
/* description */ ('STEP AP242 Edition 2',
'CAx-IF Rec.Pracs.---Representation and Presentation of Product Manufa
cturing Information (PMI)---4.0---2014-10-13',
'CAx-IF Rec.Pracs.---3D Tessellated Geometry---0.4---2014-09-14','2;1',
'CAx-IF Rec.Pracs.---User Defined Attributes---1.5---2016-08-15'),
/* implementation_level */ '2;1');

FILE_NAME(
/* name */ 'bookshelf',
/* time_stamp */ '2026-09-06T17:57:57Z',
/* author */ (''),
/* organization */ (''),
/* preprocessor_version */ 'ST-DEVELOPER v20',
/* originating_system */ 'ONSHAPE BY PTC INC, 1.220',
/* authorisation */ '  ');

FILE_SCHEMA (('AP242_MANAGED_MODEL_BASED_3D_ENGINEERING_MIM_LF { 1 0 10303 442 3 1 4 }'));
ENDSEC;

DATA;
#10=SHAPE_REPRESENTATION_RELATIONSHIP('','',#475,#11);
#11=ADVANCED_BREP_SHAPE_REPRESENTATION('',(#473),#745);
#12=ORIENTED_EDGE('',*,*,#132,.F.);
#13=ORIENTED_EDGE('',*,*,#133,.T.);
#14=ORIENTED_EDGE('',*,*,#134,.T.);
#15=ORIENTED_EDGE('',*,*,#135,.F.);
#16=ORIENTED_EDGE('',*,*,#136,.F.);
#17=ORIENTED_EDGE('',*,*,#137,.T.);
#18=ORIENTED_EDGE('',*,*,#138,.T.);
#19=ORIENTED_EDGE('',*,*,#139,.F.);
#20=ORIENTED_EDGE('',*,*,#140,.F.);
#21=ORIENTED_EDGE('',*,*,#141,.T.);
#22=ORIENTED_EDGE('',*,*,#142,.T.);
#23=ORIENTED_EDGE('',*,*,#143,.F.);
#24=ORIENTED_EDGE('',*,*,#144,.F.);
#25=ORIENTED_EDGE('',*,*,#145,.T.);
#26=ORIENTED_EDGE('',*,*,#146,.T.);
#27=ORIENTED_EDGE('',*,*,#147,.F.);
#28=ORIENTED_EDGE('',*,*,#148,.F.);
#29=ORIENTED_EDGE('',*,*,#149,.T.);
#30=ORIENTED_EDGE('',*,*,#150,.T.);
#31=ORIENTED_EDGE('',*,*,#151,.F.);
#32=ORIENTED_EDGE('',*,*,#152,.F.);
#33=ORIENTED_EDGE('',*,*,#153,.F.);
#34=ORIENTED_EDGE('',*,*,#132,.T.);
#35=ORIENTED_EDGE('',*,*,#154,.T.);
#36=ORIENTED_EDGE('',*,*,#155,.T.);
#37=ORIENTED_EDGE('',*,*,#156,.F.);
#38=ORIENTED_EDGE('',*,*,#133,.F.);
#39=ORIENTED_EDGE('',*,*,#153,.T.);
#40=ORIENTED_EDGE('',*,*,#157,.T.);
#41=ORIENTED_EDGE('',*,*,#158,.F.);
#42=ORIENTED_EDGE('',*,*,#134,.F.);
#43=ORIENTED_EDGE('',*,*,#156,.T.);
#44=ORIENTED_EDGE('',*,*,#159,.F.);
#45=ORIENTED_EDGE('',*,*,#154,.F.);
#46=ORIENTED_EDGE('',*,*,#135,.T.);
#47=ORIENTED_EDGE('',*,*,#158,.T.);
#48=ORIENTED_EDGE('',*,*,#152,.T.);
#49=ORIENTED_EDGE('',*,*,#159,.T.);
#50=ORIENTED_EDGE('',*,*,#157,.F.);
#51=ORIENTED_EDGE('',*,*,#155,.F.);
#52=ORIENTED_EDGE('',*,*,#137,.F.);
#53=ORIENTED_EDGE('',*,*,#160,.F.);
#54=ORIENTED_EDGE('',*,*,#161,.T.);
#55=ORIENTED_EDGE('',*,*,#162,.T.);
#56=ORIENTED_EDGE('',*,*,#136,.T.);
#57=ORIENTED_EDGE('',*,*,#163,.F.);
#58=ORIENTED_EDGE('',*,*,#164,.F.);
#59=ORIENTED_EDGE('',*,*,#160,.T.);
#60=ORIENTED_EDGE('',*,*,#139,.T.);
#61=ORIENTED_EDGE('',*,*,#165,.F.);
#62=ORIENTED_EDGE('',*,*,#166,.F.);
#63=ORIENTED_EDGE('',*,*,#163,.T.);
#64=ORIENTED_EDGE('',*,*,#138,.F.);
#65=ORIENTED_EDGE('',*,*,#162,.F.);
#66=ORIENTED_EDGE('',*,*,#167,.T.);
#67=ORIENTED_EDGE('',*,*,#165,.T.);
#68=ORIENTED_EDGE('',*,*,#161,.F.);
#69=ORIENTED_EDGE('',*,*,#164,.T.);
#70=ORIENTED_EDGE('',*,*,#166,.T.);
#71=ORIENTED_EDGE('',*,*,#167,.F.);
#72=ORIENTED_EDGE('',*,*,#141,.F.);
#73=ORIENTED_EDGE('',*,*,#168,.F.);
#74=ORIENTED_EDGE('',*,*,#169,.T.);
#75=ORIENTED_EDGE('',*,*,#170,.T.);
#76=ORIENTED_EDGE('',*,*,#140,.T.);
#77=ORIENTED_EDGE('',*,*,#171,.F.);
#78=ORIENTED_EDGE('',*,*,#172,.F.);
#79=ORIENTED_EDGE('',*,*,#168,.T.);
#80=ORIENTED_EDGE('',*,*,#143,.T.);
#81=ORIENTED_EDGE('',*,*,#173,.F.);
#82=ORIENTED_EDGE('',*,*,#174,.F.);
#83=ORIENTED_EDGE('',*,*,#171,.T.);
#84=ORIENTED_EDGE('',*,*,#142,.F.);
#85=ORIENTED_EDGE('',*,*,#170,.F.);
#86=ORIENTED_EDGE('',*,*,#175,.T.);
#87=ORIENTED_EDGE('',*,*,#173,.T.);
#88=ORIENTED_EDGE('',*,*,#169,.F.);
#89=ORIENTED_EDGE('',*,*,#172,.T.);
#90=ORIENTED_EDGE('',*,*,#174,.T.);
#91=ORIENTED_EDGE('',*,*,#175,.F.);
#92=ORIENTED_EDGE('',*,*,#145,.F.);
#93=ORIENTED_EDGE('',*,*,#176,.F.);
#94=ORIENTED_EDGE('',*,*,#177,.T.);
#95=ORIENTED_EDGE('',*,*,#178,.T.);
#96=ORIENTED_EDGE('',*,*,#144,.T.);
#97=ORIENTED_EDGE('',*,*,#179,.F.);
#98=ORIENTED_EDGE('',*,*,#180,.F.);
#99=ORIENTED_EDGE('',*,*,#176,.T.);
#100=ORIENTED_EDGE('',*,*,#147,.T.);
#101=ORIENTED_EDGE('',*,*,#181,.F.);
#102=ORIENTED_EDGE('',*,*,#182,.F.);
#103=ORIENTED_EDGE('',*,*,#179,.T.);
#104=ORIENTED_EDGE('',*,*,#146,.F.);
#105=ORIENTED_EDGE('',*,*,#178,.F.);
#106=ORIENTED_EDGE('',*,*,#183,.T.);
#107=ORIENTED_EDGE('',*,*,#181,.T.);
#108=ORIENTED_EDGE('',*,*,#177,.F.);
#109=ORIENTED_EDGE('',*,*,#180,.T.);
#110=ORIENTED_EDGE('',*,*,#182,.T.);
#111=ORIENTED_EDGE('',*,*,#183,.F.);
#112=ORIENTED_EDGE('',*,*,#149,.F.);
#113=ORIENTED_EDGE('',*,*,#184,.F.);
#114=ORIENTED_EDGE('',*,*,#185,.T.);
#115=ORIENTED_EDGE('',*,*,#186,.T.);
#116=ORIENTED_EDGE('',*,*,#148,.T.);
#117=ORIENTED_EDGE('',*,*,#187,.F.);
#118=ORIENTED_EDGE('',*,*,#188,.F.);
#119=ORIENTED_EDGE('',*,*,#184,.T.);
#120=ORIENTED_EDGE('',*,*,#151,.T.);
#121=ORIENTED_EDGE('',*,*,#189,.F.);
#122=ORIENTED_EDGE('',*,*,#190,.F.);
#123=ORIENTED_EDGE('',*,*,#187,.T.);
#124=ORIENTED_EDGE('',*,*,#150,.F.);
#125=ORIENTED_EDGE('',*,*,#186,.F.);
#126=ORIENTED_EDGE('',*,*,#191,.T.);
#127=ORIENTED_EDGE('',*,*,#189,.T.);
#128=ORIENTED_EDGE('',*,*,#185,.F.);
#129=ORIENTED_EDGE('',*,*,#188,.T.);
#130=ORIENTED_EDGE('',*,*,#190,.T.);
#131=ORIENTED_EDGE('',*,*,#191,.F.);
#132=EDGE_CURVE('',#192,#193,#232,.T.);
#133=EDGE_CURVE('',#192,#194,#233,.T.);
#134=EDGE_CURVE('',#194,#195,#234,.T.);
#135=EDGE_CURVE('',#193,#195,#235,.T.);
#136=EDGE_CURVE('',#196,#197,#236,.T.);
#137=EDGE_CURVE('',#196,#198,#237,.T.);
#138=EDGE_CURVE('',#198,#199,#238,.T.);
#139=EDGE_CURVE('',#197,#199,#239,.T.);
#140=EDGE_CURVE('',#200,#201,#240,.T.);
#141=EDGE_CURVE('',#200,#202,#241,.T.);
#142=EDGE_CURVE('',#202,#203,#242,.T.);
#143=EDGE_CURVE('',#201,#203,#243,.T.);
#144=EDGE_CURVE('',#204,#205,#244,.T.);
#145=EDGE_CURVE('',#204,#206,#245,.T.);
#146=EDGE_CURVE('',#206,#207,#246,.T.);
#147=EDGE_CURVE('',#205,#207,#247,.T.);
#148=EDGE_CURVE('',#208,#209,#248,.T.);
#149=EDGE_CURVE('',#208,#210,#249,.T.);
#150=EDGE_CURVE('',#210,#211,#250,.T.);
#151=EDGE_CURVE('',#209,#211,#251,.T.);
#152=EDGE_CURVE('',#212,#213,#252,.T.);
#153=EDGE_CURVE('',#192,#212,#253,.T.);
#154=EDGE_CURVE('',#193,#213,#254,.T.);
#155=EDGE_CURVE('',#212,#214,#255,.T.);
#156=EDGE_CURVE('',#194,#214,#256,.T.);
#157=EDGE_CURVE('',#214,#215,#257,.T.);
#158=EDGE_CURVE('',#195,#215,#258,.T.);
#159=EDGE_CURVE('',#213,#215,#259,.T.);
#160=EDGE_CURVE('',#216,#196,#260,.T.);
#161=EDGE_CURVE('',#216,#217,#261,.T.);
#162=EDGE_CURVE('',#217,#198,#262,.T.);
#163=EDGE_CURVE('',#218,#197,#263,.T.);
#164=EDGE_CURVE('',#216,#218,#264,.T.);
#165=EDGE_CURVE('',#219,#199,#265,.T.);
#166=EDGE_CURVE('',#218,#219,#266,.T.);
#167=EDGE_CURVE('',#217,#219,#267,.T.);
#168=EDGE_CURVE('',#220,#200,#268,.T.);
#169=EDGE_CURVE('',#220,#221,#269,.T.);
#170=EDGE_CURVE('',#221,#202,#270,.T.);
#171=EDGE_CURVE('',#222,#201,#271,.T.);
#172=EDGE_CURVE('',#220,#222,#272,.T.);
#173=EDGE_CURVE('',#223,#203,#273,.T.);
#174=EDGE_CURVE('',#222,#223,#274,.T.);
#175=EDGE_CURVE('',#221,#223,#275,.T.);
#176=EDGE_CURVE('',#224,#204,#276,.T.);
#177=EDGE_CURVE('',#224,#225,#277,.T.);
#178=EDGE_CURVE('',#225,#206,#278,.T.);
#179=EDGE_CURVE('',#226,#205,#279,.T.);
#180=EDGE_CURVE('',#224,#226,#280,.T.);
#181=EDGE_CURVE('',#227,#207,#281,.T.);
#182=EDGE_CURVE('',#226,#227,#282,.T.);
#183=EDGE_CURVE('',#225,#227,#283,.T.);
#184=EDGE_CURVE('',#228,#208,#284,.T.);
#185=EDGE_CURVE('',#228,#229,#285,.T.);
#186=EDGE_CURVE('',#229,#210,#286,.T.);
#187=EDGE_CURVE('',#230,#209,#287,.T.);
#188=EDGE_CURVE('',#228,#230,#288,.T.);
#189=EDGE_CURVE('',#231,#211,#289,.T.);
#190=EDGE_CURVE('',#230,#231,#290,.T.);
#191=EDGE_CURVE('',#229,#231,#291,.T.);
#192=VERTEX_POINT('',#620);
#193=VERTEX_POINT('',#621);
#194=VERTEX_POINT('',#623);
#195=VERTEX_POINT('',#625);
#196=VERTEX_POINT('',#628);
#197=VERTEX_POINT('',#629);
#198=VERTEX_POINT('',#631);
#199=VERTEX_POINT('',#633);
#200=VERTEX_POINT('',#636);
#201=VERTEX_POINT('',#637);
#202=VERTEX_POINT('',#639);
#203=VERTEX_POINT('',#641);
#204=VERTEX_POINT('',#644);
#205=VERTEX_POINT('',#645);
#206=VERTEX_POINT('',#647);
#207=VERTEX_POINT('',#649);
#208=VERTEX_POINT('',#652);
#209=VERTEX_POINT('',#653);
#210=VERTEX_POINT('',#655);
#211=VERTEX_POINT('',#657);
#212=VERTEX_POINT('',#661);
#213=VERTEX_POINT('',#662);
#214=VERTEX_POINT('',#667);
#215=VERTEX_POINT('',#671);
#216=VERTEX_POINT('',#678);
#217=VERTEX_POINT('',#680);
#218=VERTEX_POINT('',#684);
#219=VERTEX_POINT('',#688);
#220=VERTEX_POINT('',#695);
#221=VERTEX_POINT('',#697);
#222=VERTEX_POINT('',#701);
#223=VERTEX_POINT('',#705);
#224=VERTEX_POINT('',#712);
#225=VERTEX_POINT('',#714);
#226=VERTEX_POINT('',#718);
#227=VERTEX_POINT('',#722);
#228=VERTEX_POINT('',#729);
#229=VERTEX_POINT('',#731);
#230=VERTEX_POINT('',#735);
#231=VERTEX_POINT('',#739);
#232=LINE('',#619,#292);
#233=LINE('',#622,#293);
#234=LINE('',#624,#294);
#235=LINE('',#626,#295);
#236=LINE('',#627,#296);
#237=LINE('',#630,#297);
#238=LINE('',#632,#298);
#239=LINE('',#634,#299);
#240=LINE('',#635,#300);
#241=LINE('',#638,#301);
#242=LINE('',#640,#302);
#243=LINE('',#642,#303);
#244=LINE('',#643,#304);
#245=LINE('',#646,#305);
#246=LINE('',#648,#306);
#247=LINE('',#650,#307);
#248=LINE('',#651,#308);
#249=LINE('',#654,#309);
#250=LINE('',#656,#310);
#251=LINE('',#658,#311);
#252=LINE('',#660,#312);
#253=LINE('',#663,#313);
#254=LINE('',#664,#314);
#255=LINE('',#666,#315);
#256=LINE('',#668,#316);
#257=LINE('',#670,#317);
#258=LINE('',#672,#318);
#259=LINE('',#674,#319);
#260=LINE('',#677,#320);
#261=LINE('',#679,#321);
#262=LINE('',#681,#322);
#263=LINE('',#683,#323);
#264=LINE('',#685,#324);
#265=LINE('',#687,#325);
#266=LINE('',#689,#326);
#267=LINE('',#691,#327);
#268=LINE('',#694,#328);
#269=LINE('',#696,#329);
#270=LINE('',#698,#330);
#271=LINE('',#700,#331);
#272=LINE('',#702,#332);
#273=LINE('',#704,#333);
#274=LINE('',#706,#334);
#275=LINE('',#708,#335);
#276=LINE('',#711,#336);
#277=LINE('',#713,#337);
#278=LINE('',#715,#338);
#279=LINE('',#717,#339);
#280=LINE('',#719,#340);
#281=LINE('',#721,#341);
#282=LINE('',#723,#342);
#283=LINE('',#725,#343);
#284=LINE('',#728,#344);
#285=LINE('',#730,#345);
#286=LINE('',#732,#346);
#287=LINE('',#734,#347);
#288=LINE('',#736,#348);
#289=LINE('',#738,#349);
#290=LINE('',#740,#350);
#291=LINE('',#742,#351);
#292=VECTOR('',#507,1.);
#293=VECTOR('',#508,1.);
#294=VECTOR('',#509,1.);
#295=VECTOR('',#510,1.);
#296=VECTOR('',#511,1.);
#297=VECTOR('',#512,1.);
#298=VECTOR('',#513,1.);
#299=VECTOR('',#514,1.);
#300=VECTOR('',#515,1.);
#301=VECTOR('',#516,1.);
#302=VECTOR('',#517,1.);
#303=VECTOR('',#518,1.);
#304=VECTOR('',#519,1.);
#305=VECTOR('',#520,1.);
#306=VECTOR('',#521,1.);
#307=VECTOR('',#522,1.);
#308=VECTOR('',#523,1.);
#309=VECTOR('',#524,1.);
#310=VECTOR('',#525,1.);
#311=VECTOR('',#526,1.);
#312=VECTOR('',#529,1.);
#313=VECTOR('',#530,1.);
#314=VECTOR('',#531,1.);
#315=VECTOR('',#534,1.);
#316=VECTOR('',#535,1.);
#317=VECTOR('',#538,1.);
#318=VECTOR('',#539,1.);
#319=VECTOR('',#542,1.);
#320=VECTOR('',#547,1.);
#321=VECTOR('',#548,1.);
#322=VECTOR('',#549,1.);
#323=VECTOR('',#552,1.);
#324=VECTOR('',#553,1.);
#325=VECTOR('',#556,1.);
#326=VECTOR('',#557,1.);
#327=VECTOR('',#560,1.);
#328=VECTOR('',#565,1.);
#329=VECTOR('',#566,1.);
#330=VECTOR('',#567,1.);
#331=VECTOR('',#570,1.);
#332=VECTOR('',#571,1.);
#333=VECTOR('',#574,1.);
#334=VECTOR('',#575,1.);
#335=VECTOR('',#578,1.);
#336=VECTOR('',#583,1.);
#337=VECTOR('',#584,1.);
#338=VECTOR('',#585,1.);
#339=VECTOR('',#588,1.);
#340=VECTOR('',#589,1.);
#341=VECTOR('',#592,1.);
#342=VECTOR('',#593,1.);
#343=VECTOR('',#596,1.);
#344=VECTOR('',#601,1.);
#345=VECTOR('',#602,1.);
#346=VECTOR('',#603,1.);
#347=VECTOR('',#606,1.);
#348=VECTOR('',#607,1.);
#349=VECTOR('',#610,1.);
#350=VECTOR('',#611,1.);
#351=VECTOR('',#614,1.);
#352=EDGE_LOOP('',(#12,#13,#14,#15));
#353=EDGE_LOOP('',(#16,#17,#18,#19));
#354=EDGE_LOOP('',(#20,#21,#22,#23));
#355=EDGE_LOOP('',(#24,#25,#26,#27));
#356=EDGE_LOOP('',(#28,#29,#30,#31));
#357=EDGE_LOOP('',(#32,#33,#34,#35));
#358=EDGE_LOOP('',(#36,#37,#38,#39));
#359=EDGE_LOOP('',(#40,#41,#42,#43));
#360=EDGE_LOOP('',(#44,#45,#46,#47));
#361=EDGE_LOOP('',(#48,#49,#50,#51));
#362=EDGE_LOOP('',(#52,#53,#54,#55));
#363=EDGE_LOOP('',(#56,#57,#58,#59));
#364=EDGE_LOOP('',(#60,#61,#62,#63));
#365=EDGE_LOOP('',(#64,#65,#66,#67));
#366=EDGE_LOOP('',(#68,#69,#70,#71));
#367=EDGE_LOOP('',(#72,#73,#74,#75));
#368=EDGE_LOOP('',(#76,#77,#78,#79));
#369=EDGE_LOOP('',(#80,#81,#82,#83));
#370=EDGE_LOOP('',(#84,#85,#86,#87));
#371=EDGE_LOOP('',(#88,#89,#90,#91));
#372=EDGE_LOOP('',(#92,#93,#94,#95));
#373=EDGE_LOOP('',(#96,#97,#98,#99));
#374=EDGE_LOOP('',(#100,#101,#102,#103));
#375=EDGE_LOOP('',(#104,#105,#106,#107));
#376=EDGE_LOOP('',(#108,#109,#110,#111));
#377=EDGE_LOOP('',(#112,#113,#114,#115));
#378=EDGE_LOOP('',(#116,#117,#118,#119));
#379=EDGE_LOOP('',(#120,#121,#122,#123));
#380=EDGE_LOOP('',(#124,#125,#126,#127));
#381=EDGE_LOOP('',(#128,#129,#130,#131));
#382=FACE_BOUND('',#352,.T.);
#383=FACE_BOUND('',#353,.T.);
#384=FACE_BOUND('',#354,.T.);
#385=FACE_BOUND('',#355,.T.);
#386=FACE_BOUND('',#356,.T.);
#387=FACE_BOUND('',#357,.T.);
#388=FACE_BOUND('',#358,.T.);
#389=FACE_BOUND('',#359,.T.);
#390=FACE_BOUND('',#360,.T.);
#391=FACE_BOUND('',#361,.T.);
#392=FACE_BOUND('',#362,.T.);
#393=FACE_BOUND('',#363,.T.);
#394=FACE_BOUND('',#364,.T.);
#395=FACE_BOUND('',#365,.T.);
#396=FACE_BOUND('',#366,.T.);
#397=FACE_BOUND('',#367,.T.);
#398=FACE_BOUND('',#368,.T.);
#399=FACE_BOUND('',#369,.T.);
#400=FACE_BOUND('',#370,.T.);
#401=FACE_BOUND('',#371,.T.);
#402=FACE_BOUND('',#372,.T.);
#403=FACE_BOUND('',#373,.T.);
#404=FACE_BOUND('',#374,.T.);
#405=FACE_BOUND('',#375,.T.);
#406=FACE_BOUND('',#376,.T.);
#407=FACE_BOUND('',#377,.T.);
#408=FACE_BOUND('',#378,.T.);
#409=FACE_BOUND('',#379,.T.);
#410=FACE_BOUND('',#380,.T.);
#411=FACE_BOUND('',#381,.T.);
#412=PLANE('',#477);
#413=PLANE('',#478);
#414=PLANE('',#479);
#415=PLANE('',#480);
#416=PLANE('',#481);
#417=PLANE('',#482);
#418=PLANE('',#483);
#419=PLANE('',#484);
#420=PLANE('',#485);
#421=PLANE('',#486);
#422=PLANE('',#487);
#423=PLANE('',#488);
#424=PLANE('',#489);
#425=PLANE('',#490);
#426=PLANE('',#491);
#427=PLANE('',#492);
#428=PLANE('',#493);
#429=PLANE('',#494);
#430=PLANE('',#495);
#431=PLANE('',#496);
#432=PLANE('',#497);
#433=PLANE('',#498);
#434=PLANE('',#499);
#435=PLANE('',#500);
#436=PLANE('',#501);
#437=PLANE('',#502);
#438=ADVANCED_FACE('',(#382,#383,#384,#385,#386),#412,.T.);
#439=ADVANCED_FACE('',(#387),#413,.T.);
#440=ADVANCED_FACE('',(#388),#414,.F.);
#441=ADVANCED_FACE('',(#389),#415,.F.);
#442=ADVANCED_FACE('',(#390),#416,.T.);
#443=ADVANCED_FACE('',(#391),#417,.F.);
#444=ADVANCED_FACE('',(#392),#418,.T.);
#445=ADVANCED_FACE('',(#393),#419,.F.);
#446=ADVANCED_FACE('',(#394),#420,.F.);
#447=ADVANCED_FACE('',(#395),#421,.T.);
#448=ADVANCED_FACE('',(#396),#422,.T.);
#449=ADVANCED_FACE('',(#397),#423,.T.);
#450=ADVANCED_FACE('',(#398),#424,.F.);
#451=ADVANCED_FACE('',(#399),#425,.F.);
#452=ADVANCED_FACE('',(#400),#426,.T.);
#453=ADVANCED_FACE('',(#401),#427,.T.);
#454=ADVANCED_FACE('',(#402),#428,.T.);
#455=ADVANCED_FACE('',(#403),#429,.F.);
#456=ADVANCED_FACE('',(#404),#430,.F.);
#457=ADVANCED_FACE('',(#405),#431,.T.);
#458=ADVANCED_FACE('',(#406),#432,.T.);
#459=ADVANCED_FACE('',(#407),#433,.T.);
#460=ADVANCED_FACE('',(#408),#434,.F.);
#461=ADVANCED_FACE('',(#409),#435,.F.);
#462=ADVANCED_FACE('',(#410),#436,.T.);
#463=ADVANCED_FACE('',(#411),#437,.T.);
#464=CLOSED_SHELL('',(#438,#439,#440,#441,#442,#443,#444,#445,#446,#447,
#448,#449,#450,#451,#452,#453,#454,#455,#456,#457,#458,#459,#460,#461,#462,
#463));
#465=STYLED_ITEM('',(#466),#473);
#466=PRESENTATION_STYLE_ASSIGNMENT((#467));
#467=SURFACE_STYLE_USAGE(.BOTH.,#468);
#468=SURFACE_SIDE_STYLE('',(#469));
#469=SURFACE_STYLE_FILL_AREA(#470);
#470=FILL_AREA_STYLE('',(#471));
#471=FILL_AREA_STYLE_COLOUR('',#472);
#472=COLOUR_RGB('',0.513725490196078,0.415686274509804,0.733333333333333);
#473=MANIFOLD_SOLID_BREP('Part 1',#464);
#474=SHAPE_DEFINITION_REPRESENTATION(#750,#475);
#475=SHAPE_REPRESENTATION('Part 1',(#476),#745);
#476=AXIS2_PLACEMENT_3D('',#617,#503,#504);
#477=AXIS2_PLACEMENT_3D('',#618,#505,#506);
#478=AXIS2_PLACEMENT_3D('',#659,#527,#528);
#479=AXIS2_PLACEMENT_3D('',#665,#532,#533);
#480=AXIS2_PLACEMENT_3D('',#669,#536,#537);
#481=AXIS2_PLACEMENT_3D('',#673,#540,#541);
#482=AXIS2_PLACEMENT_3D('',#675,#543,#544);
#483=AXIS2_PLACEMENT_3D('',#676,#545,#546);
#484=AXIS2_PLACEMENT_3D('',#682,#550,#551);
#485=AXIS2_PLACEMENT_3D('',#686,#554,#555);
#486=AXIS2_PLACEMENT_3D('',#690,#558,#559);
#487=AXIS2_PLACEMENT_3D('',#692,#561,#562);
#488=AXIS2_PLACEMENT_3D('',#693,#563,#564);
#489=AXIS2_PLACEMENT_3D('',#699,#568,#569);
#490=AXIS2_PLACEMENT_3D('',#703,#572,#573);
#491=AXIS2_PLACEMENT_3D('',#707,#576,#577);
#492=AXIS2_PLACEMENT_3D('',#709,#579,#580);
#493=AXIS2_PLACEMENT_3D('',#710,#581,#582);
#494=AXIS2_PLACEMENT_3D('',#716,#586,#587);
#495=AXIS2_PLACEMENT_3D('',#720,#590,#591);
#496=AXIS2_PLACEMENT_3D('',#724,#594,#595);
#497=AXIS2_PLACEMENT_3D('',#726,#597,#598);
#498=AXIS2_PLACEMENT_3D('',#727,#599,#600);
#499=AXIS2_PLACEMENT_3D('',#733,#604,#605);
#500=AXIS2_PLACEMENT_3D('',#737,#608,#609);
#501=AXIS2_PLACEMENT_3D('',#741,#612,#613);
#502=AXIS2_PLACEMENT_3D('',#743,#615,#616);
#503=DIRECTION('',(0.,0.,1.));
#504=DIRECTION('',(1.,0.,0.));
#505=DIRECTION('',(0.,0.,1.));
#506=DIRECTION('',(1.,0.,0.));
#507=DIRECTION('',(1.,0.,0.));
#508=DIRECTION('',(-1.98254111540206E-16,-1.,0.));
#509=DIRECTION('',(1.,0.,0.));
#510=DIRECTION('',(-1.98254111540206E-16,-1.,0.));
#511=DIRECTION('',(0.,-1.,0.));
#512=DIRECTION('',(1.,0.,0.));
#513=DIRECTION('',(0.,-1.,0.));
#514=DIRECTION('',(1.,0.,0.));
#515=DIRECTION('',(0.,-1.,0.));
#516=DIRECTION('',(1.,0.,0.));
#517=DIRECTION('',(0.,-1.,0.));
#518=DIRECTION('',(1.,0.,0.));
#519=DIRECTION('',(0.,-1.,0.));
#520=DIRECTION('',(1.,0.,0.));
#521=DIRECTION('',(0.,-1.,0.));
#522=DIRECTION('',(1.,0.,0.));
#523=DIRECTION('',(0.,-1.,0.));
#524=DIRECTION('',(1.,0.,0.));
#525=DIRECTION('',(0.,-1.,0.));
#526=DIRECTION('',(1.,0.,0.));
#527=DIRECTION('',(0.,1.,0.));
#528=DIRECTION('',(0.,0.,1.));
#529=DIRECTION('',(1.,0.,0.));
#530=DIRECTION('',(0.,0.,-1.));
#531=DIRECTION('',(0.,0.,-1.));
#532=DIRECTION('',(1.,-1.98254111540206E-16,0.));
#533=DIRECTION('',(1.98254111540206E-16,1.,0.));
#534=DIRECTION('',(-1.98254111540206E-16,-1.,0.));
#535=DIRECTION('',(0.,0.,-1.));
#536=DIRECTION('',(0.,1.,0.));
#537=DIRECTION('',(0.,0.,1.));
#538=DIRECTION('',(1.,0.,0.));
#539=DIRECTION('',(0.,0.,-1.));
#540=DIRECTION('',(1.,-1.98254111540206E-16,0.));
#541=DIRECTION('',(1.98254111540206E-16,1.,0.));
#542=DIRECTION('',(-1.98254111540206E-16,-1.,0.));
#543=DIRECTION('',(0.,0.,1.));
#544=DIRECTION('',(1.,0.,0.));
#545=DIRECTION('',(0.,-1.,0.));
#546=DIRECTION('',(0.,0.,-1.));
#547=DIRECTION('',(0.,0.,1.));
#548=DIRECTION('',(1.,0.,0.));
#549=DIRECTION('',(0.,0.,1.));
#550=DIRECTION('',(-1.,0.,0.));
#551=DIRECTION('',(0.,0.,1.));
#552=DIRECTION('',(0.,0.,1.));
#553=DIRECTION('',(0.,-1.,0.));
#554=DIRECTION('',(0.,-1.,0.));
#555=DIRECTION('',(0.,0.,-1.));
#556=DIRECTION('',(0.,0.,1.));
#557=DIRECTION('',(1.,0.,0.));
#558=DIRECTION('',(-1.,0.,0.));
#559=DIRECTION('',(0.,0.,1.));
#560=DIRECTION('',(0.,-1.,0.));
#561=DIRECTION('',(0.,0.,1.));
#562=DIRECTION('',(1.,0.,0.));
#563=DIRECTION('',(0.,-1.,0.));
#564=DIRECTION('',(0.,0.,-1.));
#565=DIRECTION('',(0.,0.,1.));
#566=DIRECTION('',(1.,0.,0.));
#567=DIRECTION('',(0.,0.,1.));
#568=DIRECTION('',(-1.,0.,0.));
#569=DIRECTION('',(0.,0.,1.));
#570=DIRECTION('',(0.,0.,1.));
#571=DIRECTION('',(0.,-1.,0.));
#572=DIRECTION('',(0.,-1.,0.));
#573=DIRECTION('',(0.,0.,-1.));
#574=DIRECTION('',(0.,0.,1.));
#575=DIRECTION('',(1.,0.,0.));
#576=DIRECTION('',(-1.,0.,0.));
#577=DIRECTION('',(0.,0.,1.));
#578=DIRECTION('',(0.,-1.,0.));
#579=DIRECTION('',(0.,0.,1.));
#580=DIRECTION('',(1.,0.,0.));
#581=DIRECTION('',(0.,-1.,0.));
#582=DIRECTION('',(0.,0.,-1.));
#583=DIRECTION('',(0.,0.,1.));
#584=DIRECTION('',(1.,0.,0.));
#585=DIRECTION('',(0.,0.,1.));
#586=DIRECTION('',(-1.,0.,0.));
#587=DIRECTION('',(0.,0.,1.));
#588=DIRECTION('',(0.,0.,1.));
#589=DIRECTION('',(0.,-1.,0.));
#590=DIRECTION('',(0.,-1.,0.));
#591=DIRECTION('',(0.,0.,-1.));
#592=DIRECTION('',(0.,0.,1.));
#593=DIRECTION('',(1.,0.,0.));
#594=DIRECTION('',(-1.,0.,0.));
#595=DIRECTION('',(0.,0.,1.));
#596=DIRECTION('',(0.,-1.,0.));
#597=DIRECTION('',(0.,0.,1.));
#598=DIRECTION('',(1.,0.,0.));
#599=DIRECTION('',(0.,-1.,0.));
#600=DIRECTION('',(0.,0.,-1.));
#601=DIRECTION('',(0.,0.,1.));
#602=DIRECTION('',(1.,0.,0.));
#603=DIRECTION('',(0.,0.,1.));
#604=DIRECTION('',(-1.,0.,0.));
#605=DIRECTION('',(0.,0.,1.));
#606=DIRECTION('',(0.,0.,1.));
#607=DIRECTION('',(0.,-1.,0.));
#608=DIRECTION('',(0.,-1.,0.));
#609=DIRECTION('',(0.,0.,-1.));
#610=DIRECTION('',(0.,0.,1.));
#611=DIRECTION('',(1.,0.,0.));
#612=DIRECTION('',(-1.,0.,0.));
#613=DIRECTION('',(0.,0.,1.));
#614=DIRECTION('',(0.,-1.,0.));
#615=DIRECTION('',(0.,0.,1.));
#616=DIRECTION('',(1.,0.,0.));
#617=CARTESIAN_POINT('',(0.,0.,0.));
#618=CARTESIAN_POINT('',(0.,0.,0.02));
#619=CARTESIAN_POINT('',(3.46944695195361E-18,0.035,0.02));
#620=CARTESIAN_POINT('',(-0.025,0.035,0.02));
#621=CARTESIAN_POINT('',(0.025,0.035,0.02));
#622=CARTESIAN_POINT('',(-0.025,0.,0.02));
#623=CARTESIAN_POINT('',(-0.025,-0.035,0.02));
#624=CARTESIAN_POINT('',(-6.93889390390723E-18,-0.035,0.02));
#625=CARTESIAN_POINT('',(0.025,-0.035,0.02));
#626=CARTESIAN_POINT('',(0.025,0.,0.02));
#627=CARTESIAN_POINT('',(-0.0206274092197418,0.0211496236734092,0.02));
#628=CARTESIAN_POINT('',(-0.0206274092197418,0.0289828181266784,0.02));
#629=CARTESIAN_POINT('',(-0.0206274092197418,0.01331642922014,0.02));
#630=CARTESIAN_POINT('',(0.000261108390986919,0.0289828181266784,0.02));
#631=CARTESIAN_POINT('',(0.0211496260017156,0.0289828181266784,0.02));
#632=CARTESIAN_POINT('',(0.0211496260017156,0.0211496236734092,0.02));
#633=CARTESIAN_POINT('',(0.0211496260017156,0.01331642922014,0.02));
#634=CARTESIAN_POINT('',(0.000261108390986919,0.01331642922014,0.02));
#635=CARTESIAN_POINT('',(-0.0208885176107288,0.,0.02));
#636=CARTESIAN_POINT('',(-0.0208885176107288,0.00783319445326924,0.02));
#637=CARTESIAN_POINT('',(-0.0208885176107288,-0.00783319445326924,0.02));
#638=CARTESIAN_POINT('',(0.,0.00783319445326924,0.02));
#639=CARTESIAN_POINT('',(0.0208885176107288,0.00783319445326924,0.02));
#640=CARTESIAN_POINT('',(0.0208885176107288,0.,0.02));
#641=CARTESIAN_POINT('',(0.0208885176107288,-0.00783319445326924,0.02));
#642=CARTESIAN_POINT('',(0.,-0.00783319445326924,0.02));
#643=CARTESIAN_POINT('',(-0.0197571622577417,-0.0210799521016216,0.02));
#644=CARTESIAN_POINT('',(-0.0197571622577417,-0.0144850290133637,0.02));
#645=CARTESIAN_POINT('',(-0.0197571622577417,-0.0276748751898795,0.02));
#646=CARTESIAN_POINT('',(-0.0126935655341531,-0.0144850290133637,0.02));
#647=CARTESIAN_POINT('',(-0.00562996881056458,-0.0144850290133637,0.02));
#648=CARTESIAN_POINT('',(-0.00562996881056458,-0.0210799521016216,0.02));
#649=CARTESIAN_POINT('',(-0.00562996881056458,-0.0276748751898795,0.02));
#650=CARTESIAN_POINT('',(-0.0126935655341531,-0.0276748751898795,0.02));
#651=CARTESIAN_POINT('',(0.,-0.0219449441890542,0.02));
#652=CARTESIAN_POINT('',(0.,-0.0139625835369142,0.02));
#653=CARTESIAN_POINT('',(0.,-0.0299273048411943,0.02));
#654=CARTESIAN_POINT('',(0.0102355258007151,-0.0139625835369142,0.02));
#655=CARTESIAN_POINT('',(0.0204710516014302,-0.0139625835369142,0.02));
#656=CARTESIAN_POINT('',(0.0204710516014302,-0.0219449441890542,0.02));
#657=CARTESIAN_POINT('',(0.0204710516014302,-0.0299273048411943,0.02));
#658=CARTESIAN_POINT('',(0.0102355258007151,-0.0299273048411943,0.02));
#659=CARTESIAN_POINT('',(3.46944695195361E-18,0.035,0.02));
#660=CARTESIAN_POINT('',(3.46944695195361E-18,0.035,0.));
#661=CARTESIAN_POINT('',(-0.025,0.035,0.));
#662=CARTESIAN_POINT('',(0.025,0.035,0.));
#663=CARTESIAN_POINT('',(-0.025,0.035,0.02));
#664=CARTESIAN_POINT('',(0.025,0.035,0.02));
#665=CARTESIAN_POINT('',(-0.025,0.,0.02));
#666=CARTESIAN_POINT('',(-0.025,0.,0.));
#667=CARTESIAN_POINT('',(-0.025,-0.035,0.));
#668=CARTESIAN_POINT('',(-0.025,-0.035,0.02));
#669=CARTESIAN_POINT('',(-6.93889390390723E-18,-0.035,0.02));
#670=CARTESIAN_POINT('',(-6.93889390390723E-18,-0.035,0.));
#671=CARTESIAN_POINT('',(0.025,-0.035,0.));
#672=CARTESIAN_POINT('',(0.025,-0.035,0.02));
#673=CARTESIAN_POINT('',(0.025,0.,0.02));
#674=CARTESIAN_POINT('',(0.025,0.,0.));
#675=CARTESIAN_POINT('',(0.,0.,0.));
#676=CARTESIAN_POINT('',(0.000261108390986919,0.0289828181266784,0.005));
#677=CARTESIAN_POINT('',(-0.0206274092197418,0.0289828181266784,0.005));
#678=CARTESIAN_POINT('',(-0.0206274092197418,0.0289828181266784,0.005));
#679=CARTESIAN_POINT('',(0.000261108390986919,0.0289828181266784,0.005));
#680=CARTESIAN_POINT('',(0.0211496260017156,0.0289828181266784,0.005));
#681=CARTESIAN_POINT('',(0.0211496260017156,0.0289828181266784,0.005));
#682=CARTESIAN_POINT('',(-0.0206274092197418,0.0211496236734092,0.005));
#683=CARTESIAN_POINT('',(-0.0206274092197418,0.01331642922014,0.005));
#684=CARTESIAN_POINT('',(-0.0206274092197418,0.01331642922014,0.005));
#685=CARTESIAN_POINT('',(-0.0206274092197418,0.0211496236734092,0.005));
#686=CARTESIAN_POINT('',(0.000261108390986919,0.01331642922014,0.005));
#687=CARTESIAN_POINT('',(0.0211496260017156,0.01331642922014,0.005));
#688=CARTESIAN_POINT('',(0.0211496260017156,0.01331642922014,0.005));
#689=CARTESIAN_POINT('',(0.000261108390986919,0.01331642922014,0.005));
#690=CARTESIAN_POINT('',(0.0211496260017156,0.0211496236734092,0.005));
#691=CARTESIAN_POINT('',(0.0211496260017156,0.0211496236734092,0.005));
#692=CARTESIAN_POINT('',(0.,0.,0.005));
#693=CARTESIAN_POINT('',(0.,0.00783319445326924,0.005));
#694=CARTESIAN_POINT('',(-0.0208885176107288,0.00783319445326924,0.005));
#695=CARTESIAN_POINT('',(-0.0208885176107288,0.00783319445326924,0.005));
#696=CARTESIAN_POINT('',(0.,0.00783319445326924,0.005));
#697=CARTESIAN_POINT('',(0.0208885176107288,0.00783319445326924,0.005));
#698=CARTESIAN_POINT('',(0.0208885176107288,0.00783319445326924,0.005));
#699=CARTESIAN_POINT('',(-0.0208885176107288,0.,0.005));
#700=CARTESIAN_POINT('',(-0.0208885176107288,-0.00783319445326924,0.005));
#701=CARTESIAN_POINT('',(-0.0208885176107288,-0.00783319445326924,0.005));
#702=CARTESIAN_POINT('',(-0.0208885176107288,0.,0.005));
#703=CARTESIAN_POINT('',(0.,-0.00783319445326924,0.005));
#704=CARTESIAN_POINT('',(0.0208885176107288,-0.00783319445326924,0.005));
#705=CARTESIAN_POINT('',(0.0208885176107288,-0.00783319445326924,0.005));
#706=CARTESIAN_POINT('',(0.,-0.00783319445326924,0.005));
#707=CARTESIAN_POINT('',(0.0208885176107288,0.,0.005));
#708=CARTESIAN_POINT('',(0.0208885176107288,0.,0.005));
#709=CARTESIAN_POINT('',(0.,0.,0.005));
#710=CARTESIAN_POINT('',(-0.0126935655341531,-0.0144850290133637,0.005));
#711=CARTESIAN_POINT('',(-0.0197571622577417,-0.0144850290133637,0.005));
#712=CARTESIAN_POINT('',(-0.0197571622577417,-0.0144850290133637,0.005));
#713=CARTESIAN_POINT('',(-0.0126935655341531,-0.0144850290133637,0.005));
#714=CARTESIAN_POINT('',(-0.00562996881056458,-0.0144850290133637,0.005));
#715=CARTESIAN_POINT('',(-0.00562996881056458,-0.0144850290133637,0.005));
#716=CARTESIAN_POINT('',(-0.0197571622577417,-0.0210799521016216,0.005));
#717=CARTESIAN_POINT('',(-0.0197571622577417,-0.0276748751898795,0.005));
#718=CARTESIAN_POINT('',(-0.0197571622577417,-0.0276748751898795,0.005));
#719=CARTESIAN_POINT('',(-0.0197571622577417,-0.0210799521016216,0.005));
#720=CARTESIAN_POINT('',(-0.0126935655341531,-0.0276748751898795,0.005));
#721=CARTESIAN_POINT('',(-0.00562996881056458,-0.0276748751898795,0.005));
#722=CARTESIAN_POINT('',(-0.00562996881056458,-0.0276748751898795,0.005));
#723=CARTESIAN_POINT('',(-0.0126935655341531,-0.0276748751898795,0.005));
#724=CARTESIAN_POINT('',(-0.00562996881056458,-0.0210799521016216,0.005));
#725=CARTESIAN_POINT('',(-0.00562996881056458,-0.0210799521016216,0.005));
#726=CARTESIAN_POINT('',(0.,0.,0.005));
#727=CARTESIAN_POINT('',(0.0102355258007151,-0.0139625835369142,0.005));
#728=CARTESIAN_POINT('',(0.,-0.0139625835369142,0.005));
#729=CARTESIAN_POINT('',(0.,-0.0139625835369142,0.005));
#730=CARTESIAN_POINT('',(0.0102355258007151,-0.0139625835369142,0.005));
#731=CARTESIAN_POINT('',(0.0204710516014302,-0.0139625835369142,0.005));
#732=CARTESIAN_POINT('',(0.0204710516014302,-0.0139625835369142,0.005));
#733=CARTESIAN_POINT('',(0.,-0.0219449441890542,0.005));
#734=CARTESIAN_POINT('',(0.,-0.0299273048411943,0.005));
#735=CARTESIAN_POINT('',(0.,-0.0299273048411943,0.005));
#736=CARTESIAN_POINT('',(0.,-0.0219449441890542,0.005));
#737=CARTESIAN_POINT('',(0.0102355258007151,-0.0299273048411943,0.005));
#738=CARTESIAN_POINT('',(0.0204710516014302,-0.0299273048411943,0.005));
#739=CARTESIAN_POINT('',(0.0204710516014302,-0.0299273048411943,0.005));
#740=CARTESIAN_POINT('',(0.0102355258007151,-0.0299273048411943,0.005));
#741=CARTESIAN_POINT('',(0.0204710516014302,-0.0219449441890542,0.005));
#742=CARTESIAN_POINT('',(0.0204710516014302,-0.0219449441890542,0.005));
#743=CARTESIAN_POINT('',(0.,0.,0.005));
#744=MECHANICAL_DESIGN_GEOMETRIC_PRESENTATION_REPRESENTATION('',(#465),
#745);
#745=(
GEOMETRIC_REPRESENTATION_CONTEXT(3)
GLOBAL_UNCERTAINTY_ASSIGNED_CONTEXT((#746))
GLOBAL_UNIT_ASSIGNED_CONTEXT((#749,#748,#747))
REPRESENTATION_CONTEXT('Part 1','TOP_LEVEL_ASSEMBLY_PART')
);
#746=UNCERTAINTY_MEASURE_WITH_UNIT(LENGTH_MEASURE(1.E-8),#749,
'DISTANCE_ACCURACY_VALUE','Maximum Tolerance applied to model');
#747=(
NAMED_UNIT(*)
SI_UNIT($,.STERADIAN.)
SOLID_ANGLE_UNIT()
);
#748=(
NAMED_UNIT(*)
PLANE_ANGLE_UNIT()
SI_UNIT($,.RADIAN.)
);
#749=(
LENGTH_UNIT()
NAMED_UNIT(*)
SI_UNIT($,.METRE.)
);
#750=PRODUCT_DEFINITION_SHAPE('','',#751);
#751=PRODUCT_DEFINITION('','',#753,#752);
#752=PRODUCT_DEFINITION_CONTEXT('',#759,'design');
#753=PRODUCT_DEFINITION_FORMATION_WITH_SPECIFIED_SOURCE('','',#755,
 .NOT_KNOWN.);
#754=PRODUCT_RELATED_PRODUCT_CATEGORY('','',(#755));
#755=PRODUCT('Part 1','Part 1','Part 1',(#757));
#756=PRODUCT_CATEGORY('','');
#757=PRODUCT_CONTEXT('',#759,'mechanical');
#758=APPLICATION_PROTOCOL_DEFINITION('international standard',
'ap242_managed_model_based_3d_engineering',2020,#759);
#759=APPLICATION_CONTEXT('managed model based 3d engineering');
ENDSEC;
END-ISO-10303-21;
