ISO-10303-21;
HEADER;
/* Generated by software containing ST-Developer
 * from STEP Tools, Inc. (www.steptools.com) 
 */
/* OPTION: using custom renumber hook */

FILE_DESCRIPTION(
/* description */ ('STEP AP242 Edition 2',
'CAx-IF Rec.Pracs.---Representation and Presentation of Product Manufa
cturing Information (PMI)---4.0---2014-10-13',
'CAx-IF Rec.Pracs.---3D Tessellated Geometry---0.4---2014-09-14','2;1',
'CAx-IF Rec.Pracs.---User Defined Attributes---1.5---2016-08-15'),
/* implementation_level */ '2;1');

FILE_NAME(
/* name */ 'computer',
/* time_stamp */ '2026-09-06T17:57:11Z',
/* author */ (''),
/* organization */ (''),
/* preprocessor_version */ 'ST-DEVELOPER v20',
/* originating_system */ 'ONSHAPE BY PTC INC, 1.220',
/* authorisation */ '  ');

FILE_SCHEMA (('AP242_MANAGED_MODEL_BASED_3D_ENGINEERING_MIM_LF { 1 0 10303 442 3 1 4 }'));
ENDSEC;

DATA;
#10=OVER_RIDING_STYLED_ITEM('',(#391),#381,#387);
#11=DRAUGHTING_PRE_DEFINED_COLOUR('black');
#12=SHAPE_REPRESENTATION_RELATIONSHIP('','',#421,#15);
#13=SHAPE_REPRESENTATION_RELATIONSHIP('','',#422,#16);
#14=SHAPE_REPRESENTATION_RELATIONSHIP('','',#423,#17);
#15=ADVANCED_BREP_SHAPE_REPRESENTATION('',(#415),#655);
#16=ADVANCED_BREP_SHAPE_REPRESENTATION('',(#416),#656);
#17=ADVANCED_BREP_SHAPE_REPRESENTATION('',(#417),#657);
#18=ORIENTED_EDGE('',*,*,#114,.T.);
#19=ORIENTED_EDGE('',*,*,#115,.F.);
#20=ORIENTED_EDGE('',*,*,#116,.F.);
#21=ORIENTED_EDGE('',*,*,#117,.T.);
#22=ORIENTED_EDGE('',*,*,#118,.T.);
#23=ORIENTED_EDGE('',*,*,#119,.F.);
#24=ORIENTED_EDGE('',*,*,#120,.F.);
#25=ORIENTED_EDGE('',*,*,#115,.T.);
#26=ORIENTED_EDGE('',*,*,#121,.F.);
#27=ORIENTED_EDGE('',*,*,#122,.F.);
#28=ORIENTED_EDGE('',*,*,#123,.T.);
#29=ORIENTED_EDGE('',*,*,#119,.T.);
#30=ORIENTED_EDGE('',*,*,#124,.F.);
#31=ORIENTED_EDGE('',*,*,#125,.F.);
#32=ORIENTED_EDGE('',*,*,#126,.T.);
#33=ORIENTED_EDGE('',*,*,#127,.T.);
#34=ORIENTED_EDGE('',*,*,#128,.T.);
#35=ORIENTED_EDGE('',*,*,#129,.F.);
#36=ORIENTED_EDGE('',*,*,#130,.F.);
#37=ORIENTED_EDGE('',*,*,#125,.T.);
#38=ORIENTED_EDGE('',*,*,#131,.T.);
#39=ORIENTED_EDGE('',*,*,#132,.F.);
#40=ORIENTED_EDGE('',*,*,#133,.F.);
#41=ORIENTED_EDGE('',*,*,#129,.T.);
#42=ORIENTED_EDGE('',*,*,#134,.F.);
#43=ORIENTED_EDGE('',*,*,#127,.F.);
#44=ORIENTED_EDGE('',*,*,#135,.T.);
#45=ORIENTED_EDGE('',*,*,#132,.T.);
#46=ORIENTED_EDGE('',*,*,#136,.F.);
#47=ORIENTED_EDGE('',*,*,#117,.F.);
#48=ORIENTED_EDGE('',*,*,#137,.T.);
#49=ORIENTED_EDGE('',*,*,#122,.T.);
#50=ORIENTED_EDGE('',*,*,#126,.F.);
#51=ORIENTED_EDGE('',*,*,#130,.T.);
#52=ORIENTED_EDGE('',*,*,#133,.T.);
#53=ORIENTED_EDGE('',*,*,#135,.F.);
#54=ORIENTED_EDGE('',*,*,#116,.T.);
#55=ORIENTED_EDGE('',*,*,#120,.T.);
#56=ORIENTED_EDGE('',*,*,#123,.F.);
#57=ORIENTED_EDGE('',*,*,#137,.F.);
#58=ORIENTED_EDGE('',*,*,#124,.T.);
#59=ORIENTED_EDGE('',*,*,#134,.T.);
#60=ORIENTED_EDGE('',*,*,#131,.F.);
#61=ORIENTED_EDGE('',*,*,#128,.F.);
#62=ORIENTED_EDGE('',*,*,#114,.F.);
#63=ORIENTED_EDGE('',*,*,#136,.T.);
#64=ORIENTED_EDGE('',*,*,#121,.T.);
#65=ORIENTED_EDGE('',*,*,#118,.F.);
#66=ORIENTED_EDGE('',*,*,#138,.F.);
#67=ORIENTED_EDGE('',*,*,#139,.F.);
#68=ORIENTED_EDGE('',*,*,#140,.T.);
#69=ORIENTED_EDGE('',*,*,#141,.T.);
#70=ORIENTED_EDGE('',*,*,#142,.T.);
#71=ORIENTED_EDGE('',*,*,#143,.F.);
#72=ORIENTED_EDGE('',*,*,#144,.F.);
#73=ORIENTED_EDGE('',*,*,#139,.T.);
#74=ORIENTED_EDGE('',*,*,#145,.T.);
#75=ORIENTED_EDGE('',*,*,#146,.F.);
#76=ORIENTED_EDGE('',*,*,#147,.F.);
#77=ORIENTED_EDGE('',*,*,#143,.T.);
#78=ORIENTED_EDGE('',*,*,#148,.F.);
#79=ORIENTED_EDGE('',*,*,#141,.F.);
#80=ORIENTED_EDGE('',*,*,#149,.T.);
#81=ORIENTED_EDGE('',*,*,#146,.T.);
#82=ORIENTED_EDGE('',*,*,#140,.F.);
#83=ORIENTED_EDGE('',*,*,#144,.T.);
#84=ORIENTED_EDGE('',*,*,#147,.T.);
#85=ORIENTED_EDGE('',*,*,#149,.F.);
#86=ORIENTED_EDGE('',*,*,#138,.T.);
#87=ORIENTED_EDGE('',*,*,#148,.T.);
#88=ORIENTED_EDGE('',*,*,#145,.F.);
#89=ORIENTED_EDGE('',*,*,#142,.F.);
#90=ORIENTED_EDGE('',*,*,#150,.F.);
#91=ORIENTED_EDGE('',*,*,#151,.F.);
#92=ORIENTED_EDGE('',*,*,#152,.T.);
#93=ORIENTED_EDGE('',*,*,#153,.T.);
#94=ORIENTED_EDGE('',*,*,#154,.T.);
#95=ORIENTED_EDGE('',*,*,#155,.F.);
#96=ORIENTED_EDGE('',*,*,#156,.F.);
#97=ORIENTED_EDGE('',*,*,#151,.T.);
#98=ORIENTED_EDGE('',*,*,#157,.T.);
#99=ORIENTED_EDGE('',*,*,#158,.F.);
#100=ORIENTED_EDGE('',*,*,#159,.F.);
#101=ORIENTED_EDGE('',*,*,#155,.T.);
#102=ORIENTED_EDGE('',*,*,#160,.F.);
#103=ORIENTED_EDGE('',*,*,#153,.F.);
#104=ORIENTED_EDGE('',*,*,#161,.T.);
#105=ORIENTED_EDGE('',*,*,#158,.T.);
#106=ORIENTED_EDGE('',*,*,#152,.F.);
#107=ORIENTED_EDGE('',*,*,#156,.T.);
#108=ORIENTED_EDGE('',*,*,#159,.T.);
#109=ORIENTED_EDGE('',*,*,#161,.F.);
#110=ORIENTED_EDGE('',*,*,#150,.T.);
#111=ORIENTED_EDGE('',*,*,#160,.T.);
#112=ORIENTED_EDGE('',*,*,#157,.F.);
#113=ORIENTED_EDGE('',*,*,#154,.F.);
#114=EDGE_CURVE('',#162,#163,#194,.T.);
#115=EDGE_CURVE('',#164,#163,#195,.T.);
#116=EDGE_CURVE('',#165,#164,#196,.T.);
#117=EDGE_CURVE('',#165,#162,#197,.T.);
#118=EDGE_CURVE('',#163,#166,#198,.T.);
#119=EDGE_CURVE('',#167,#166,#199,.T.);
#120=EDGE_CURVE('',#164,#167,#200,.T.);
#121=EDGE_CURVE('',#168,#166,#201,.T.);
#122=EDGE_CURVE('',#169,#168,#202,.T.);
#123=EDGE_CURVE('',#169,#167,#203,.T.);
#124=EDGE_CURVE('',#170,#171,#204,.T.);
#125=EDGE_CURVE('',#172,#170,#205,.T.);
#126=EDGE_CURVE('',#172,#173,#206,.T.);
#127=EDGE_CURVE('',#173,#171,#207,.T.);
#128=EDGE_CURVE('',#170,#174,#208,.T.);
#129=EDGE_CURVE('',#175,#174,#209,.T.);
#130=EDGE_CURVE('',#172,#175,#210,.T.);
#131=EDGE_CURVE('',#174,#176,#211,.T.);
#132=EDGE_CURVE('',#177,#176,#212,.T.);
#133=EDGE_CURVE('',#175,#177,#213,.T.);
#134=EDGE_CURVE('',#171,#176,#214,.T.);
#135=EDGE_CURVE('',#173,#177,#215,.T.);
#136=EDGE_CURVE('',#162,#168,#216,.T.);
#137=EDGE_CURVE('',#165,#169,#217,.T.);
#138=EDGE_CURVE('',#178,#179,#218,.T.);
#139=EDGE_CURVE('',#180,#178,#219,.T.);
#140=EDGE_CURVE('',#180,#181,#220,.T.);
#141=EDGE_CURVE('',#181,#179,#221,.T.);
#142=EDGE_CURVE('',#178,#182,#222,.T.);
#143=EDGE_CURVE('',#183,#182,#223,.T.);
#144=EDGE_CURVE('',#180,#183,#224,.T.);
#145=EDGE_CURVE('',#182,#184,#225,.T.);
#146=EDGE_CURVE('',#185,#184,#226,.T.);
#147=EDGE_CURVE('',#183,#185,#227,.T.);
#148=EDGE_CURVE('',#179,#184,#228,.T.);
#149=EDGE_CURVE('',#181,#185,#229,.T.);
#150=EDGE_CURVE('',#186,#187,#230,.T.);
#151=EDGE_CURVE('',#188,#186,#231,.T.);
#152=EDGE_CURVE('',#188,#189,#232,.T.);
#153=EDGE_CURVE('',#189,#187,#233,.T.);
#154=EDGE_CURVE('',#186,#190,#234,.T.);
#155=EDGE_CURVE('',#191,#190,#235,.T.);
#156=EDGE_CURVE('',#188,#191,#236,.T.);
#157=EDGE_CURVE('',#190,#192,#237,.T.);
#158=EDGE_CURVE('',#193,#192,#238,.T.);
#159=EDGE_CURVE('',#191,#193,#239,.T.);
#160=EDGE_CURVE('',#187,#192,#240,.T.);
#161=EDGE_CURVE('',#189,#193,#241,.T.);
#162=VERTEX_POINT('',#550);
#163=VERTEX_POINT('',#551);
#164=VERTEX_POINT('',#553);
#165=VERTEX_POINT('',#555);
#166=VERTEX_POINT('',#559);
#167=VERTEX_POINT('',#561);
#168=VERTEX_POINT('',#565);
#169=VERTEX_POINT('',#567);
#170=VERTEX_POINT('',#571);
#171=VERTEX_POINT('',#572);
#172=VERTEX_POINT('',#574);
#173=VERTEX_POINT('',#576);
#174=VERTEX_POINT('',#580);
#175=VERTEX_POINT('',#582);
#176=VERTEX_POINT('',#586);
#177=VERTEX_POINT('',#588);
#178=VERTEX_POINT('',#601);
#179=VERTEX_POINT('',#602);
#180=VERTEX_POINT('',#604);
#181=VERTEX_POINT('',#606);
#182=VERTEX_POINT('',#610);
#183=VERTEX_POINT('',#612);
#184=VERTEX_POINT('',#616);
#185=VERTEX_POINT('',#618);
#186=VERTEX_POINT('',#628);
#187=VERTEX_POINT('',#629);
#188=VERTEX_POINT('',#631);
#189=VERTEX_POINT('',#633);
#190=VERTEX_POINT('',#637);
#191=VERTEX_POINT('',#639);
#192=VERTEX_POINT('',#643);
#193=VERTEX_POINT('',#645);
#194=LINE('',#549,#242);
#195=LINE('',#552,#243);
#196=LINE('',#554,#244);
#197=LINE('',#556,#245);
#198=LINE('',#558,#246);
#199=LINE('',#560,#247);
#200=LINE('',#562,#248);
#201=LINE('',#564,#249);
#202=LINE('',#566,#250);
#203=LINE('',#568,#251);
#204=LINE('',#570,#252);
#205=LINE('',#573,#253);
#206=LINE('',#575,#254);
#207=LINE('',#577,#255);
#208=LINE('',#579,#256);
#209=LINE('',#581,#257);
#210=LINE('',#583,#258);
#211=LINE('',#585,#259);
#212=LINE('',#587,#260);
#213=LINE('',#589,#261);
#214=LINE('',#591,#262);
#215=LINE('',#592,#263);
#216=LINE('',#594,#264);
#217=LINE('',#595,#265);
#218=LINE('',#600,#266);
#219=LINE('',#603,#267);
#220=LINE('',#605,#268);
#221=LINE('',#607,#269);
#222=LINE('',#609,#270);
#223=LINE('',#611,#271);
#224=LINE('',#613,#272);
#225=LINE('',#615,#273);
#226=LINE('',#617,#274);
#227=LINE('',#619,#275);
#228=LINE('',#621,#276);
#229=LINE('',#622,#277);
#230=LINE('',#627,#278);
#231=LINE('',#630,#279);
#232=LINE('',#632,#280);
#233=LINE('',#634,#281);
#234=LINE('',#636,#282);
#235=LINE('',#638,#283);
#236=LINE('',#640,#284);
#237=LINE('',#642,#285);
#238=LINE('',#644,#286);
#239=LINE('',#646,#287);
#240=LINE('',#648,#288);
#241=LINE('',#649,#289);
#242=VECTOR('',#453,1.);
#243=VECTOR('',#454,1.);
#244=VECTOR('',#455,1.);
#245=VECTOR('',#456,1.);
#246=VECTOR('',#459,1.);
#247=VECTOR('',#460,1.);
#248=VECTOR('',#461,1.);
#249=VECTOR('',#464,1.);
#250=VECTOR('',#465,1.);
#251=VECTOR('',#466,1.);
#252=VECTOR('',#469,1.);
#253=VECTOR('',#470,1.);
#254=VECTOR('',#471,1.);
#255=VECTOR('',#472,1.);
#256=VECTOR('',#475,1.);
#257=VECTOR('',#476,1.);
#258=VECTOR('',#477,1.);
#259=VECTOR('',#480,1.);
#260=VECTOR('',#481,1.);
#261=VECTOR('',#482,1.);
#262=VECTOR('',#485,1.);
#263=VECTOR('',#486,1.);
#264=VECTOR('',#489,1.);
#265=VECTOR('',#490,1.);
#266=VECTOR('',#499,1.);
#267=VECTOR('',#500,1.);
#268=VECTOR('',#501,1.);
#269=VECTOR('',#502,1.);
#270=VECTOR('',#505,1.);
#271=VECTOR('',#506,1.);
#272=VECTOR('',#507,1.);
#273=VECTOR('',#510,1.);
#274=VECTOR('',#511,1.);
#275=VECTOR('',#512,1.);
#276=VECTOR('',#515,1.);
#277=VECTOR('',#516,1.);
#278=VECTOR('',#525,1.);
#279=VECTOR('',#526,1.);
#280=VECTOR('',#527,1.);
#281=VECTOR('',#528,1.);
#282=VECTOR('',#531,1.);
#283=VECTOR('',#532,1.);
#284=VECTOR('',#533,1.);
#285=VECTOR('',#536,1.);
#286=VECTOR('',#537,1.);
#287=VECTOR('',#538,1.);
#288=VECTOR('',#541,1.);
#289=VECTOR('',#542,1.);
#290=EDGE_LOOP('',(#18,#19,#20,#21));
#291=EDGE_LOOP('',(#22,#23,#24,#25));
#292=EDGE_LOOP('',(#26,#27,#28,#29));
#293=EDGE_LOOP('',(#30,#31,#32,#33));
#294=EDGE_LOOP('',(#34,#35,#36,#37));
#295=EDGE_LOOP('',(#38,#39,#40,#41));
#296=EDGE_LOOP('',(#42,#43,#44,#45));
#297=EDGE_LOOP('',(#46,#47,#48,#49));
#298=EDGE_LOOP('',(#50,#51,#52,#53));
#299=EDGE_LOOP('',(#54,#55,#56,#57));
#300=EDGE_LOOP('',(#58,#59,#60,#61));
#301=EDGE_LOOP('',(#62,#63,#64,#65));
#302=EDGE_LOOP('',(#66,#67,#68,#69));
#303=EDGE_LOOP('',(#70,#71,#72,#73));
#304=EDGE_LOOP('',(#74,#75,#76,#77));
#305=EDGE_LOOP('',(#78,#79,#80,#81));
#306=EDGE_LOOP('',(#82,#83,#84,#85));
#307=EDGE_LOOP('',(#86,#87,#88,#89));
#308=EDGE_LOOP('',(#90,#91,#92,#93));
#309=EDGE_LOOP('',(#94,#95,#96,#97));
#310=EDGE_LOOP('',(#98,#99,#100,#101));
#311=EDGE_LOOP('',(#102,#103,#104,#105));
#312=EDGE_LOOP('',(#106,#107,#108,#109));
#313=EDGE_LOOP('',(#110,#111,#112,#113));
#314=FACE_BOUND('',#290,.T.);
#315=FACE_BOUND('',#291,.T.);
#316=FACE_BOUND('',#292,.T.);
#317=FACE_BOUND('',#293,.T.);
#318=FACE_BOUND('',#294,.T.);
#319=FACE_BOUND('',#295,.T.);
#320=FACE_BOUND('',#296,.T.);
#321=FACE_BOUND('',#297,.T.);
#322=FACE_BOUND('',#298,.T.);
#323=FACE_BOUND('',#299,.T.);
#324=FACE_BOUND('',#300,.T.);
#325=FACE_BOUND('',#301,.T.);
#326=FACE_BOUND('',#302,.T.);
#327=FACE_BOUND('',#303,.T.);
#328=FACE_BOUND('',#304,.T.);
#329=FACE_BOUND('',#305,.T.);
#330=FACE_BOUND('',#306,.T.);
#331=FACE_BOUND('',#307,.T.);
#332=FACE_BOUND('',#308,.T.);
#333=FACE_BOUND('',#309,.T.);
#334=FACE_BOUND('',#310,.T.);
#335=FACE_BOUND('',#311,.T.);
#336=FACE_BOUND('',#312,.T.);
#337=FACE_BOUND('',#313,.T.);
#338=PLANE('',#425);
#339=PLANE('',#426);
#340=PLANE('',#427);
#341=PLANE('',#428);
#342=PLANE('',#429);
#343=PLANE('',#430);
#344=PLANE('',#431);
#345=PLANE('',#432);
#346=PLANE('',#433);
#347=PLANE('',#434);
#348=PLANE('',#436);
#349=PLANE('',#437);
#350=PLANE('',#438);
#351=PLANE('',#439);
#352=PLANE('',#440);
#353=PLANE('',#441);
#354=PLANE('',#443);
#355=PLANE('',#444);
#356=PLANE('',#445);
#357=PLANE('',#446);
#358=PLANE('',#447);
#359=PLANE('',#448);
#360=ADVANCED_FACE('',(#314),#338,.F.);
#361=ADVANCED_FACE('',(#315),#339,.F.);
#362=ADVANCED_FACE('',(#316),#340,.T.);
#363=ADVANCED_FACE('',(#317),#341,.T.);
#364=ADVANCED_FACE('',(#318),#342,.F.);
#365=ADVANCED_FACE('',(#319),#343,.F.);
#366=ADVANCED_FACE('',(#320),#344,.T.);
#367=ADVANCED_FACE('',(#321),#345,.T.);
#368=ADVANCED_FACE('',(#322,#323),#346,.T.);
#369=ADVANCED_FACE('',(#324,#325),#347,.F.);
#370=ADVANCED_FACE('',(#326),#348,.T.);
#371=ADVANCED_FACE('',(#327),#349,.F.);
#372=ADVANCED_FACE('',(#328),#350,.F.);
#373=ADVANCED_FACE('',(#329),#351,.T.);
#374=ADVANCED_FACE('',(#330),#352,.T.);
#375=ADVANCED_FACE('',(#331),#353,.F.);
#376=ADVANCED_FACE('',(#332),#354,.T.);
#377=ADVANCED_FACE('',(#333),#355,.F.);
#378=ADVANCED_FACE('',(#334),#356,.F.);
#379=ADVANCED_FACE('',(#335),#357,.T.);
#380=ADVANCED_FACE('',(#336),#358,.T.);
#381=ADVANCED_FACE('Face appearance 1',(#337),#359,.F.);
#382=CLOSED_SHELL('',(#360,#361,#362,#363,#364,#365,#366,#367,#368,#369));
#383=CLOSED_SHELL('',(#370,#371,#372,#373,#374,#375));
#384=CLOSED_SHELL('',(#376,#377,#378,#379,#380,#381));
#385=STYLED_ITEM('',(#388),#415);
#386=STYLED_ITEM('',(#389),#416);
#387=STYLED_ITEM('',(#390),#417);
#388=PRESENTATION_STYLE_ASSIGNMENT((#392));
#389=PRESENTATION_STYLE_ASSIGNMENT((#393));
#390=PRESENTATION_STYLE_ASSIGNMENT((#394));
#391=PRESENTATION_STYLE_ASSIGNMENT((#395));
#392=SURFACE_STYLE_USAGE(.BOTH.,#396);
#393=SURFACE_STYLE_USAGE(.BOTH.,#397);
#394=SURFACE_STYLE_USAGE(.BOTH.,#398);
#395=SURFACE_STYLE_USAGE(.BOTH.,#399);
#396=SURFACE_SIDE_STYLE('',(#400));
#397=SURFACE_SIDE_STYLE('',(#401));
#398=SURFACE_SIDE_STYLE('',(#402));
#399=SURFACE_SIDE_STYLE('',(#403));
#400=SURFACE_STYLE_FILL_AREA(#404);
#401=SURFACE_STYLE_FILL_AREA(#405);
#402=SURFACE_STYLE_FILL_AREA(#406);
#403=SURFACE_STYLE_FILL_AREA(#407);
#404=FILL_AREA_STYLE('',(#408));
#405=FILL_AREA_STYLE('',(#409));
#406=FILL_AREA_STYLE('',(#410));
#407=FILL_AREA_STYLE('',(#411));
#408=FILL_AREA_STYLE_COLOUR('',#412);
#409=FILL_AREA_STYLE_COLOUR('',#413);
#410=FILL_AREA_STYLE_COLOUR('',#414);
#411=FILL_AREA_STYLE_COLOUR('',#11);
#412=COLOUR_RGB('',0.368627450980392,0.250980392156863,0.643137254901961);
#413=COLOUR_RGB('',0.647058823529412,0.647058823529412,0.647058823529412);
#414=COLOUR_RGB('',0.294117647058823,0.180392156862745,0.56078431372549);
#415=MANIFOLD_SOLID_BREP('Part 3',#382);
#416=MANIFOLD_SOLID_BREP('Part 2',#383);
#417=MANIFOLD_SOLID_BREP('Part 1',#384);
#418=SHAPE_DEFINITION_REPRESENTATION(#670,#421);
#419=SHAPE_DEFINITION_REPRESENTATION(#671,#422);
#420=SHAPE_DEFINITION_REPRESENTATION(#672,#423);
#421=SHAPE_REPRESENTATION('Part 3',(#424),#655);
#422=SHAPE_REPRESENTATION('Part 2',(#435),#656);
#423=SHAPE_REPRESENTATION('Part 1',(#442),#657);
#424=AXIS2_PLACEMENT_3D('',#547,#449,#450);
#425=AXIS2_PLACEMENT_3D('',#548,#451,#452);
#426=AXIS2_PLACEMENT_3D('',#557,#457,#458);
#427=AXIS2_PLACEMENT_3D('',#563,#462,#463);
#428=AXIS2_PLACEMENT_3D('',#569,#467,#468);
#429=AXIS2_PLACEMENT_3D('',#578,#473,#474);
#430=AXIS2_PLACEMENT_3D('',#584,#478,#479);
#431=AXIS2_PLACEMENT_3D('',#590,#483,#484);
#432=AXIS2_PLACEMENT_3D('',#593,#487,#488);
#433=AXIS2_PLACEMENT_3D('',#596,#491,#492);
#434=AXIS2_PLACEMENT_3D('',#597,#493,#494);
#435=AXIS2_PLACEMENT_3D('',#598,#495,#496);
#436=AXIS2_PLACEMENT_3D('',#599,#497,#498);
#437=AXIS2_PLACEMENT_3D('',#608,#503,#504);
#438=AXIS2_PLACEMENT_3D('',#614,#508,#509);
#439=AXIS2_PLACEMENT_3D('',#620,#513,#514);
#440=AXIS2_PLACEMENT_3D('',#623,#517,#518);
#441=AXIS2_PLACEMENT_3D('',#624,#519,#520);
#442=AXIS2_PLACEMENT_3D('',#625,#521,#522);
#443=AXIS2_PLACEMENT_3D('',#626,#523,#524);
#444=AXIS2_PLACEMENT_3D('',#635,#529,#530);
#445=AXIS2_PLACEMENT_3D('',#641,#534,#535);
#446=AXIS2_PLACEMENT_3D('',#647,#539,#540);
#447=AXIS2_PLACEMENT_3D('',#650,#543,#544);
#448=AXIS2_PLACEMENT_3D('',#651,#545,#546);
#449=DIRECTION('',(0.,0.,1.));
#450=DIRECTION('',(1.,0.,0.));
#451=DIRECTION('',(0.,0.,1.));
#452=DIRECTION('',(1.,0.,0.));
#453=DIRECTION('',(0.,1.,0.));
#454=DIRECTION('',(-1.,0.,0.));
#455=DIRECTION('',(0.,1.,0.));
#456=DIRECTION('',(-1.,0.,0.));
#457=DIRECTION('',(0.,1.,0.));
#458=DIRECTION('',(0.,0.,1.));
#459=DIRECTION('',(0.,0.,-1.));
#460=DIRECTION('',(-1.,0.,0.));
#461=DIRECTION('',(0.,0.,-1.));
#462=DIRECTION('',(0.,0.,1.));
#463=DIRECTION('',(1.,0.,0.));
#464=DIRECTION('',(0.,1.,0.));
#465=DIRECTION('',(-1.,0.,0.));
#466=DIRECTION('',(0.,1.,0.));
#467=DIRECTION('',(0.,1.,-3.03576608295942E-16));
#468=DIRECTION('',(0.,3.03576608295942E-16,1.));
#469=DIRECTION('',(0.,-3.03576608295941E-16,-1.));
#470=DIRECTION('',(-1.,0.,0.));
#471=DIRECTION('',(0.,-3.03576608295941E-16,-1.));
#472=DIRECTION('',(-1.,0.,0.));
#473=DIRECTION('',(0.,0.,-1.));
#474=DIRECTION('',(-1.,0.,0.));
#475=DIRECTION('',(0.,-1.,0.));
#476=DIRECTION('',(-1.,0.,0.));
#477=DIRECTION('',(0.,-1.,0.));
#478=DIRECTION('',(0.,1.,-3.03576608295942E-16));
#479=DIRECTION('',(0.,3.03576608295942E-16,1.));
#480=DIRECTION('',(0.,-3.03576608295941E-16,-1.));
#481=DIRECTION('',(-1.,0.,0.));
#482=DIRECTION('',(0.,-3.03576608295941E-16,-1.));
#483=DIRECTION('',(0.,0.,-1.));
#484=DIRECTION('',(-1.,0.,0.));
#485=DIRECTION('',(0.,-1.,0.));
#486=DIRECTION('',(0.,-1.,0.));
#487=DIRECTION('',(0.,1.,0.));
#488=DIRECTION('',(0.,0.,1.));
#489=DIRECTION('',(0.,0.,-1.));
#490=DIRECTION('',(0.,0.,-1.));
#491=DIRECTION('',(1.,0.,0.));
#492=DIRECTION('',(0.,1.,0.));
#493=DIRECTION('',(1.,0.,0.));
#494=DIRECTION('',(0.,1.,0.));
#495=DIRECTION('',(0.,0.,1.));
#496=DIRECTION('',(1.,0.,0.));
#497=DIRECTION('',(1.,0.,0.));
#498=DIRECTION('',(0.,0.,-1.));
#499=DIRECTION('',(0.,0.,-1.));
#500=DIRECTION('',(0.,1.,0.));
#501=DIRECTION('',(0.,0.,-1.));
#502=DIRECTION('',(0.,1.,0.));
#503=DIRECTION('',(1.15768492283073E-16,0.,-1.));
#504=DIRECTION('',(-1.,0.,-1.15768492283073E-16));
#505=DIRECTION('',(-1.,0.,-1.15768492283073E-16));
#506=DIRECTION('',(0.,1.,0.));
#507=DIRECTION('',(-1.,0.,-1.15768492283073E-16));
#508=DIRECTION('',(1.,0.,7.70988211545248E-17));
#509=DIRECTION('',(7.70988211545248E-17,0.,-1.));
#510=DIRECTION('',(7.70988211545248E-17,0.,-1.));
#511=DIRECTION('',(0.,1.,0.));
#512=DIRECTION('',(7.70988211545248E-17,0.,-1.));
#513=DIRECTION('',(1.15768492283073E-16,0.,-1.));
#514=DIRECTION('',(-1.,0.,-1.15768492283073E-16));
#515=DIRECTION('',(-1.,0.,-1.15768492283073E-16));
#516=DIRECTION('',(-1.,0.,-1.15768492283073E-16));
#517=DIRECTION('',(0.,-1.,0.));
#518=DIRECTION('',(1.,0.,0.));
#519=DIRECTION('',(0.,-1.,0.));
#520=DIRECTION('',(1.,0.,0.));
#521=DIRECTION('',(0.,0.,1.));
#522=DIRECTION('',(1.,0.,0.));
#523=DIRECTION('',(0.,0.,1.));
#524=DIRECTION('',(1.,0.,0.));
#525=DIRECTION('',(1.,0.,0.));
#526=DIRECTION('',(0.,1.,0.));
#527=DIRECTION('',(1.,0.,0.));
#528=DIRECTION('',(0.,1.,0.));
#529=DIRECTION('',(1.,0.,0.));
#530=DIRECTION('',(0.,0.,-1.));
#531=DIRECTION('',(0.,0.,-1.));
#532=DIRECTION('',(0.,1.,0.));
#533=DIRECTION('',(0.,0.,-1.));
#534=DIRECTION('',(0.,0.,1.));
#535=DIRECTION('',(1.,0.,0.));
#536=DIRECTION('',(1.,0.,0.));
#537=DIRECTION('',(0.,1.,0.));
#538=DIRECTION('',(1.,0.,0.));
#539=DIRECTION('',(1.,0.,7.70988211545248E-17));
#540=DIRECTION('',(7.70988211545248E-17,0.,-1.));
#541=DIRECTION('',(7.70988211545248E-17,0.,-1.));
#542=DIRECTION('',(7.70988211545248E-17,0.,-1.));
#543=DIRECTION('',(0.,-1.,0.));
#544=DIRECTION('',(1.,0.,0.));
#545=DIRECTION('',(0.,-1.,0.));
#546=DIRECTION('',(1.,0.,0.));
#547=CARTESIAN_POINT('',(0.,0.,0.));
#548=CARTESIAN_POINT('',(0.0216938590854407,-0.0035,0.00304033025167882));
#549=CARTESIAN_POINT('',(0.0206938590854407,-0.0035,0.00304033025167882));
#550=CARTESIAN_POINT('',(0.0206938590854407,-0.0035,0.00304033025167882));
#551=CARTESIAN_POINT('',(0.0206938590854407,-0.0015,0.00304033025167882));
#552=CARTESIAN_POINT('',(0.0216938590854407,-0.0015,0.00304033025167882));
#553=CARTESIAN_POINT('',(0.0216938590854407,-0.0015,0.00304033025167882));
#554=CARTESIAN_POINT('',(0.0216938590854407,-0.0035,0.00304033025167882));
#555=CARTESIAN_POINT('',(0.0216938590854407,-0.0035,0.00304033025167882));
#556=CARTESIAN_POINT('',(0.0216938590854407,-0.0035,0.00304033025167882));
#557=CARTESIAN_POINT('',(0.0216938590854407,-0.0015,4.03302516788187E-5));
#558=CARTESIAN_POINT('',(0.0206938590854407,-0.0015,4.03302516788187E-5));
#559=CARTESIAN_POINT('',(0.0206938590854407,-0.0015,-0.00295966974832118));
#560=CARTESIAN_POINT('',(0.0216938590854407,-0.0015,-0.00295966974832118));
#561=CARTESIAN_POINT('',(0.0216938590854407,-0.0015,-0.00295966974832118));
#562=CARTESIAN_POINT('',(0.0216938590854407,-0.0015,4.03302516788187E-5));
#563=CARTESIAN_POINT('',(0.0216938590854407,-0.0035,-0.00295966974832118));
#564=CARTESIAN_POINT('',(0.0206938590854407,-0.0035,-0.00295966974832118));
#565=CARTESIAN_POINT('',(0.0206938590854407,-0.0035,-0.00295966974832118));
#566=CARTESIAN_POINT('',(0.0216938590854407,-0.0035,-0.00295966974832118));
#567=CARTESIAN_POINT('',(0.0216938590854407,-0.0035,-0.00295966974832118));
#568=CARTESIAN_POINT('',(0.0216938590854407,-0.0035,-0.00295966974832118));
#569=CARTESIAN_POINT('',(0.0216938590854407,0.0045,-1.7347234759768E-18));
#570=CARTESIAN_POINT('',(0.0206938590854407,0.0045,-1.7347234759768E-18));
#571=CARTESIAN_POINT('',(0.0206938590854407,0.0045,0.01));
#572=CARTESIAN_POINT('',(0.0206938590854407,0.0045,-0.01));
#573=CARTESIAN_POINT('',(0.0216938590854407,0.0045,0.01));
#574=CARTESIAN_POINT('',(0.0216938590854407,0.0045,0.01));
#575=CARTESIAN_POINT('',(0.0216938590854407,0.0045,-1.7347234759768E-18));
#576=CARTESIAN_POINT('',(0.0216938590854407,0.0045,-0.01));
#577=CARTESIAN_POINT('',(0.0216938590854407,0.0045,-0.01));
#578=CARTESIAN_POINT('',(0.0216938590854407,-0.0015,0.01));
#579=CARTESIAN_POINT('',(0.0206938590854407,-0.0015,0.01));
#580=CARTESIAN_POINT('',(0.0206938590854407,-0.0075,0.01));
#581=CARTESIAN_POINT('',(0.0216938590854407,-0.0075,0.01));
#582=CARTESIAN_POINT('',(0.0216938590854407,-0.0075,0.01));
#583=CARTESIAN_POINT('',(0.0216938590854407,-0.0015,0.01));
#584=CARTESIAN_POINT('',(0.0216938590854407,-0.0075,-1.7347234759768E-18));
#585=CARTESIAN_POINT('',(0.0206938590854407,-0.0075,-1.7347234759768E-18));
#586=CARTESIAN_POINT('',(0.0206938590854407,-0.0075,-0.01));
#587=CARTESIAN_POINT('',(0.0216938590854407,-0.0075,-0.01));
#588=CARTESIAN_POINT('',(0.0216938590854407,-0.0075,-0.01));
#589=CARTESIAN_POINT('',(0.0216938590854407,-0.0075,-1.7347234759768E-18));
#590=CARTESIAN_POINT('',(0.0216938590854407,-0.0015,-0.01));
#591=CARTESIAN_POINT('',(0.0206938590854407,-0.0015,-0.01));
#592=CARTESIAN_POINT('',(0.0216938590854407,-0.0015,-0.01));
#593=CARTESIAN_POINT('',(0.0216938590854407,-0.0035,4.03302516788187E-5));
#594=CARTESIAN_POINT('',(0.0206938590854407,-0.0035,4.03302516788187E-5));
#595=CARTESIAN_POINT('',(0.0216938590854407,-0.0035,4.03302516788187E-5));
#596=CARTESIAN_POINT('',(0.0216938590854407,-0.0015,0.));
#597=CARTESIAN_POINT('',(0.0206938590854407,-0.0015,0.));
#598=CARTESIAN_POINT('',(0.,0.,0.));
#599=CARTESIAN_POINT('',(0.0206938590854407,-0.0035,4.03302516788187E-5));
#600=CARTESIAN_POINT('',(0.0206938590854407,-0.0015,4.03302516788187E-5));
#601=CARTESIAN_POINT('',(0.0206938590854407,-0.0015,0.00304033025167882));
#602=CARTESIAN_POINT('',(0.0206938590854407,-0.0015,-0.00295966974832118));
#603=CARTESIAN_POINT('',(0.0206938590854407,-0.0035,0.00304033025167882));
#604=CARTESIAN_POINT('',(0.0206938590854407,-0.0035,0.00304033025167882));
#605=CARTESIAN_POINT('',(0.0206938590854407,-0.0035,4.03302516788187E-5));
#606=CARTESIAN_POINT('',(0.0206938590854407,-0.0035,-0.00295966974832118));
#607=CARTESIAN_POINT('',(0.0206938590854407,-0.0035,-0.00295966974832118));
#608=CARTESIAN_POINT('',(0.00945554560890899,-0.0035,0.00304033025167882));
#609=CARTESIAN_POINT('',(0.00945554560890899,-0.0015,0.00304033025167882));
#610=CARTESIAN_POINT('',(0.00657587709608297,-0.0015,0.00304033025167882));
#611=CARTESIAN_POINT('',(0.00657587709608297,-0.0035,0.00304033025167882));
#612=CARTESIAN_POINT('',(0.00657587709608297,-0.0035,0.00304033025167882));
#613=CARTESIAN_POINT('',(0.00945554560890899,-0.0035,0.00304033025167882));
#614=CARTESIAN_POINT('',(0.00657587709608297,-0.0035,0.000149516388773922));
#615=CARTESIAN_POINT('',(0.00657587709608297,-0.0015,0.000149516388773922));
#616=CARTESIAN_POINT('',(0.00657587709608297,-0.0015,-0.00295966974832119));
#617=CARTESIAN_POINT('',(0.00657587709608297,-0.0035,-0.00295966974832119));
#618=CARTESIAN_POINT('',(0.00657587709608297,-0.0035,-0.00295966974832119));
#619=CARTESIAN_POINT('',(0.00657587709608297,-0.0035,0.000149516388773922));
#620=CARTESIAN_POINT('',(0.00945554560890899,-0.0035,-0.00295966974832119));
#621=CARTESIAN_POINT('',(0.00945554560890899,-0.0015,-0.00295966974832119));
#622=CARTESIAN_POINT('',(0.00945554560890899,-0.0035,-0.00295966974832119));
#623=CARTESIAN_POINT('',(0.0011348680907618,-0.0035,0.000149516388773918));
#624=CARTESIAN_POINT('',(0.0011348680907618,-0.0015,0.000149516388773918));
#625=CARTESIAN_POINT('',(0.,0.,0.));
#626=CARTESIAN_POINT('',(-0.00592412290391703,-0.0015,0.0226495163887739));
#627=CARTESIAN_POINT('',(-0.00592412290391703,0.,0.0226495163887739));
#628=CARTESIAN_POINT('',(-0.018424122903917,0.,0.0226495163887739));
#629=CARTESIAN_POINT('',(0.00657587709608297,0.,0.0226495163887739));
#630=CARTESIAN_POINT('',(-0.018424122903917,-0.0015,0.0226495163887739));
#631=CARTESIAN_POINT('',(-0.018424122903917,-0.0015,0.0226495163887739));
#632=CARTESIAN_POINT('',(-0.00592412290391703,-0.0015,0.0226495163887739));
#633=CARTESIAN_POINT('',(0.00657587709608297,-0.0015,0.0226495163887739));
#634=CARTESIAN_POINT('',(0.00657587709608297,-0.0015,0.0226495163887739));
#635=CARTESIAN_POINT('',(-0.018424122903917,-0.0015,0.000149516388773918));
#636=CARTESIAN_POINT('',(-0.018424122903917,0.,0.000149516388773918));
#637=CARTESIAN_POINT('',(-0.018424122903917,0.,-0.0223504836112261));
#638=CARTESIAN_POINT('',(-0.018424122903917,-0.0015,-0.0223504836112261));
#639=CARTESIAN_POINT('',(-0.018424122903917,-0.0015,-0.0223504836112261));
#640=CARTESIAN_POINT('',(-0.018424122903917,-0.0015,0.000149516388773918));
#641=CARTESIAN_POINT('',(-0.00592412290391703,-0.0015,-0.0223504836112261));
#642=CARTESIAN_POINT('',(-0.00592412290391703,0.,-0.0223504836112261));
#643=CARTESIAN_POINT('',(0.00657587709608297,0.,-0.0223504836112261));
#644=CARTESIAN_POINT('',(0.00657587709608297,-0.0015,-0.0223504836112261));
#645=CARTESIAN_POINT('',(0.00657587709608297,-0.0015,-0.0223504836112261));
#646=CARTESIAN_POINT('',(-0.00592412290391703,-0.0015,-0.0223504836112261));
#647=CARTESIAN_POINT('',(0.00657587709608297,-0.0015,0.000149516388773922));
#648=CARTESIAN_POINT('',(0.00657587709608297,0.,0.000149516388773922));
#649=CARTESIAN_POINT('',(0.00657587709608297,-0.0015,0.000149516388773922));
#650=CARTESIAN_POINT('',(-0.00592412290391703,-0.0015,0.000149516388773918));
#651=CARTESIAN_POINT('',(-0.00592412290391703,0.,0.000149516388773918));
#652=MECHANICAL_DESIGN_GEOMETRIC_PRESENTATION_REPRESENTATION('',(#385),
#655);
#653=MECHANICAL_DESIGN_GEOMETRIC_PRESENTATION_REPRESENTATION('',(#386),
#656);
#654=MECHANICAL_DESIGN_GEOMETRIC_PRESENTATION_REPRESENTATION('',(#387,#10),
#657);
#655=(
GEOMETRIC_REPRESENTATION_CONTEXT(3)
GLOBAL_UNCERTAINTY_ASSIGNED_CONTEXT((#658))
GLOBAL_UNIT_ASSIGNED_CONTEXT((#667,#664,#661))
REPRESENTATION_CONTEXT('Part 3','TOP_LEVEL_ASSEMBLY_PART')
);
#656=(
GEOMETRIC_REPRESENTATION_CONTEXT(3)
GLOBAL_UNCERTAINTY_ASSIGNED_CONTEXT((#659))
GLOBAL_UNIT_ASSIGNED_CONTEXT((#668,#665,#662))
REPRESENTATION_CONTEXT('Part 2','TOP_LEVEL_ASSEMBLY_PART')
);
#657=(
GEOMETRIC_REPRESENTATION_CONTEXT(3)
GLOBAL_UNCERTAINTY_ASSIGNED_CONTEXT((#660))
GLOBAL_UNIT_ASSIGNED_CONTEXT((#669,#666,#663))
REPRESENTATION_CONTEXT('Part 1','TOP_LEVEL_ASSEMBLY_PART')
);
#658=UNCERTAINTY_MEASURE_WITH_UNIT(LENGTH_MEASURE(1.E-8),#667,
'DISTANCE_ACCURACY_VALUE','Maximum Tolerance applied to model');
#659=UNCERTAINTY_MEASURE_WITH_UNIT(LENGTH_MEASURE(1.E-8),#668,
'DISTANCE_ACCURACY_VALUE','Maximum Tolerance applied to model');
#660=UNCERTAINTY_MEASURE_WITH_UNIT(LENGTH_MEASURE(1.E-8),#669,
'DISTANCE_ACCURACY_VALUE','Maximum Tolerance applied to model');
#661=(
NAMED_UNIT(*)
SI_UNIT($,.STERADIAN.)
SOLID_ANGLE_UNIT()
);
#662=(
NAMED_UNIT(*)
SI_UNIT($,.STERADIAN.)
SOLID_ANGLE_UNIT()
);
#663=(
NAMED_UNIT(*)
SI_UNIT($,.STERADIAN.)
SOLID_ANGLE_UNIT()
);
#664=(
NAMED_UNIT(*)
PLANE_ANGLE_UNIT()
SI_UNIT($,.RADIAN.)
);
#665=(
NAMED_UNIT(*)
PLANE_ANGLE_UNIT()
SI_UNIT($,.RADIAN.)
);
#666=(
NAMED_UNIT(*)
PLANE_ANGLE_UNIT()
SI_UNIT($,.RADIAN.)
);
#667=(
LENGTH_UNIT()
NAMED_UNIT(*)
SI_UNIT($,.METRE.)
);
#668=(
LENGTH_UNIT()
NAMED_UNIT(*)
SI_UNIT($,.METRE.)
);
#669=(
LENGTH_UNIT()
NAMED_UNIT(*)
SI_UNIT($,.METRE.)
);
#670=PRODUCT_DEFINITION_SHAPE('','',#673);
#671=PRODUCT_DEFINITION_SHAPE('','',#674);
#672=PRODUCT_DEFINITION_SHAPE('','',#675);
#673=PRODUCT_DEFINITION('','',#679,#676);
#674=PRODUCT_DEFINITION('','',#680,#677);
#675=PRODUCT_DEFINITION('','',#681,#678);
#676=PRODUCT_DEFINITION_CONTEXT('',#697,'design');
#677=PRODUCT_DEFINITION_CONTEXT('',#698,'design');
#678=PRODUCT_DEFINITION_CONTEXT('',#699,'design');
#679=PRODUCT_DEFINITION_FORMATION_WITH_SPECIFIED_SOURCE('','',#685,
 .NOT_KNOWN.);
#680=PRODUCT_DEFINITION_FORMATION_WITH_SPECIFIED_SOURCE('','',#686,
 .NOT_KNOWN.);
#681=PRODUCT_DEFINITION_FORMATION_WITH_SPECIFIED_SOURCE('','',#687,
 .NOT_KNOWN.);
#682=PRODUCT_RELATED_PRODUCT_CATEGORY('','',(#685));
#683=PRODUCT_RELATED_PRODUCT_CATEGORY('','',(#686));
#684=PRODUCT_RELATED_PRODUCT_CATEGORY('','',(#687));
#685=PRODUCT('Part 3','Part 3','Part 3',(#691));
#686=PRODUCT('Part 2','Part 2','Part 2',(#692));
#687=PRODUCT('Part 1','Part 1','Part 1',(#693));
#688=PRODUCT_CATEGORY('','');
#689=PRODUCT_CATEGORY('','');
#690=PRODUCT_CATEGORY('','');
#691=PRODUCT_CONTEXT('',#697,'mechanical');
#692=PRODUCT_CONTEXT('',#698,'mechanical');
#693=PRODUCT_CONTEXT('',#699,'mechanical');
#694=APPLICATION_PROTOCOL_DEFINITION('international standard',
'ap242_managed_model_based_3d_engineering',2020,#697);
#695=APPLICATION_PROTOCOL_DEFINITION('international standard',
'ap242_managed_model_based_3d_engineering',2020,#698);
#696=APPLICATION_PROTOCOL_DEFINITION('international standard',
'ap242_managed_model_based_3d_engineering',2020,#699);
#697=APPLICATION_CONTEXT('managed model based 3d engineering');
#698=APPLICATION_CONTEXT('managed model based 3d engineering');
#699=APPLICATION_CONTEXT('managed model based 3d engineering');
ENDSEC;
END-ISO-10303-21;
