ISO-10303-21;
HEADER;
/* Generated by software containing ST-Developer
 * from STEP Tools, Inc. (www.steptools.com) 
 */
/* OPTION: using custom renumber hook */

FILE_DESCRIPTION(
/* description */ ('STEP AP242 Edition 2',
'CAx-IF Rec.Pracs.---Representation and Presentation of Product Manufa
cturing Information (PMI)---4.0---2014-10-13',
'CAx-IF Rec.Pracs.---3D Tessellated Geometry---0.4---2014-09-14','2;1',
'CAx-IF Rec.Pracs.---User Defined Attributes---1.5---2016-08-15'),
/* implementation_level */ '2;1');

FILE_NAME(
/* name */ 'side raling',
/* time_stamp */ '2026-09-06T17:55:51Z',
/* author */ (''),
/* organization */ (''),
/* preprocessor_version */ 'ST-DEVELOPER v20',
/* originating_system */ 'ONSHAPE BY PTC INC, 1.220',
/* authorisation */ '  ');

FILE_SCHEMA (('AP242_MANAGED_MODEL_BASED_3D_ENGINEERING_MIM_LF { 1 0 10303 442 3 1 4 }'));
ENDSEC;

DATA;
#10=SHAPE_REPRESENTATION_RELATIONSHIP('','',#555,#11);
#11=ADVANCED_BREP_SHAPE_REPRESENTATION('',(#553),#857);
#12=ORIENTED_EDGE('',*,*,#156,.F.);
#13=ORIENTED_EDGE('',*,*,#157,.T.);
#14=ORIENTED_EDGE('',*,*,#158,.T.);
#15=ORIENTED_EDGE('',*,*,#159,.F.);
#16=ORIENTED_EDGE('',*,*,#160,.F.);
#17=ORIENTED_EDGE('',*,*,#161,.T.);
#18=ORIENTED_EDGE('',*,*,#162,.T.);
#19=ORIENTED_EDGE('',*,*,#163,.F.);
#20=ORIENTED_EDGE('',*,*,#164,.F.);
#21=ORIENTED_EDGE('',*,*,#165,.T.);
#22=ORIENTED_EDGE('',*,*,#166,.T.);
#23=ORIENTED_EDGE('',*,*,#167,.F.);
#24=ORIENTED_EDGE('',*,*,#168,.F.);
#25=ORIENTED_EDGE('',*,*,#169,.T.);
#26=ORIENTED_EDGE('',*,*,#170,.T.);
#27=ORIENTED_EDGE('',*,*,#171,.F.);
#28=ORIENTED_EDGE('',*,*,#172,.F.);
#29=ORIENTED_EDGE('',*,*,#173,.T.);
#30=ORIENTED_EDGE('',*,*,#174,.T.);
#31=ORIENTED_EDGE('',*,*,#175,.F.);
#32=ORIENTED_EDGE('',*,*,#176,.F.);
#33=ORIENTED_EDGE('',*,*,#177,.T.);
#34=ORIENTED_EDGE('',*,*,#178,.T.);
#35=ORIENTED_EDGE('',*,*,#179,.F.);
#36=ORIENTED_EDGE('',*,*,#180,.F.);
#37=ORIENTED_EDGE('',*,*,#181,.T.);
#38=ORIENTED_EDGE('',*,*,#182,.T.);
#39=ORIENTED_EDGE('',*,*,#183,.F.);
#40=ORIENTED_EDGE('',*,*,#184,.F.);
#41=ORIENTED_EDGE('',*,*,#185,.T.);
#42=ORIENTED_EDGE('',*,*,#186,.T.);
#43=ORIENTED_EDGE('',*,*,#187,.F.);
#44=ORIENTED_EDGE('',*,*,#188,.T.);
#45=ORIENTED_EDGE('',*,*,#189,.T.);
#46=ORIENTED_EDGE('',*,*,#190,.F.);
#47=ORIENTED_EDGE('',*,*,#191,.F.);
#48=ORIENTED_EDGE('',*,*,#192,.F.);
#49=ORIENTED_EDGE('',*,*,#193,.T.);
#50=ORIENTED_EDGE('',*,*,#194,.T.);
#51=ORIENTED_EDGE('',*,*,#195,.F.);
#52=ORIENTED_EDGE('',*,*,#196,.F.);
#53=ORIENTED_EDGE('',*,*,#197,.T.);
#54=ORIENTED_EDGE('',*,*,#198,.T.);
#55=ORIENTED_EDGE('',*,*,#199,.F.);
#56=ORIENTED_EDGE('',*,*,#200,.F.);
#57=ORIENTED_EDGE('',*,*,#201,.T.);
#58=ORIENTED_EDGE('',*,*,#202,.T.);
#59=ORIENTED_EDGE('',*,*,#203,.F.);
#60=ORIENTED_EDGE('',*,*,#188,.F.);
#61=ORIENTED_EDGE('',*,*,#204,.F.);
#62=ORIENTED_EDGE('',*,*,#156,.T.);
#63=ORIENTED_EDGE('',*,*,#205,.T.);
#64=ORIENTED_EDGE('',*,*,#191,.T.);
#65=ORIENTED_EDGE('',*,*,#206,.F.);
#66=ORIENTED_EDGE('',*,*,#157,.F.);
#67=ORIENTED_EDGE('',*,*,#204,.T.);
#68=ORIENTED_EDGE('',*,*,#190,.T.);
#69=ORIENTED_EDGE('',*,*,#207,.F.);
#70=ORIENTED_EDGE('',*,*,#158,.F.);
#71=ORIENTED_EDGE('',*,*,#206,.T.);
#72=ORIENTED_EDGE('',*,*,#189,.F.);
#73=ORIENTED_EDGE('',*,*,#205,.F.);
#74=ORIENTED_EDGE('',*,*,#159,.T.);
#75=ORIENTED_EDGE('',*,*,#207,.T.);
#76=ORIENTED_EDGE('',*,*,#192,.T.);
#77=ORIENTED_EDGE('',*,*,#208,.T.);
#78=ORIENTED_EDGE('',*,*,#161,.F.);
#79=ORIENTED_EDGE('',*,*,#209,.F.);
#80=ORIENTED_EDGE('',*,*,#209,.T.);
#81=ORIENTED_EDGE('',*,*,#160,.T.);
#82=ORIENTED_EDGE('',*,*,#210,.F.);
#83=ORIENTED_EDGE('',*,*,#193,.F.);
#84=ORIENTED_EDGE('',*,*,#210,.T.);
#85=ORIENTED_EDGE('',*,*,#163,.T.);
#86=ORIENTED_EDGE('',*,*,#211,.F.);
#87=ORIENTED_EDGE('',*,*,#194,.F.);
#88=ORIENTED_EDGE('',*,*,#195,.T.);
#89=ORIENTED_EDGE('',*,*,#211,.T.);
#90=ORIENTED_EDGE('',*,*,#162,.F.);
#91=ORIENTED_EDGE('',*,*,#208,.F.);
#92=ORIENTED_EDGE('',*,*,#184,.T.);
#93=ORIENTED_EDGE('',*,*,#212,.T.);
#94=ORIENTED_EDGE('',*,*,#165,.F.);
#95=ORIENTED_EDGE('',*,*,#213,.F.);
#96=ORIENTED_EDGE('',*,*,#213,.T.);
#97=ORIENTED_EDGE('',*,*,#164,.T.);
#98=ORIENTED_EDGE('',*,*,#214,.F.);
#99=ORIENTED_EDGE('',*,*,#185,.F.);
#100=ORIENTED_EDGE('',*,*,#214,.T.);
#101=ORIENTED_EDGE('',*,*,#167,.T.);
#102=ORIENTED_EDGE('',*,*,#215,.F.);
#103=ORIENTED_EDGE('',*,*,#186,.F.);
#104=ORIENTED_EDGE('',*,*,#187,.T.);
#105=ORIENTED_EDGE('',*,*,#215,.T.);
#106=ORIENTED_EDGE('',*,*,#166,.F.);
#107=ORIENTED_EDGE('',*,*,#212,.F.);
#108=ORIENTED_EDGE('',*,*,#196,.T.);
#109=ORIENTED_EDGE('',*,*,#216,.T.);
#110=ORIENTED_EDGE('',*,*,#169,.F.);
#111=ORIENTED_EDGE('',*,*,#217,.F.);
#112=ORIENTED_EDGE('',*,*,#217,.T.);
#113=ORIENTED_EDGE('',*,*,#168,.T.);
#114=ORIENTED_EDGE('',*,*,#218,.F.);
#115=ORIENTED_EDGE('',*,*,#197,.F.);
#116=ORIENTED_EDGE('',*,*,#218,.T.);
#117=ORIENTED_EDGE('',*,*,#171,.T.);
#118=ORIENTED_EDGE('',*,*,#219,.F.);
#119=ORIENTED_EDGE('',*,*,#198,.F.);
#120=ORIENTED_EDGE('',*,*,#199,.T.);
#121=ORIENTED_EDGE('',*,*,#219,.T.);
#122=ORIENTED_EDGE('',*,*,#170,.F.);
#123=ORIENTED_EDGE('',*,*,#216,.F.);
#124=ORIENTED_EDGE('',*,*,#180,.T.);
#125=ORIENTED_EDGE('',*,*,#220,.T.);
#126=ORIENTED_EDGE('',*,*,#173,.F.);
#127=ORIENTED_EDGE('',*,*,#221,.F.);
#128=ORIENTED_EDGE('',*,*,#221,.T.);
#129=ORIENTED_EDGE('',*,*,#172,.T.);
#130=ORIENTED_EDGE('',*,*,#222,.F.);
#131=ORIENTED_EDGE('',*,*,#181,.F.);
#132=ORIENTED_EDGE('',*,*,#222,.T.);
#133=ORIENTED_EDGE('',*,*,#175,.T.);
#134=ORIENTED_EDGE('',*,*,#223,.F.);
#135=ORIENTED_EDGE('',*,*,#182,.F.);
#136=ORIENTED_EDGE('',*,*,#183,.T.);
#137=ORIENTED_EDGE('',*,*,#223,.T.);
#138=ORIENTED_EDGE('',*,*,#174,.F.);
#139=ORIENTED_EDGE('',*,*,#220,.F.);
#140=ORIENTED_EDGE('',*,*,#200,.T.);
#141=ORIENTED_EDGE('',*,*,#224,.T.);
#142=ORIENTED_EDGE('',*,*,#177,.F.);
#143=ORIENTED_EDGE('',*,*,#225,.F.);
#144=ORIENTED_EDGE('',*,*,#225,.T.);
#145=ORIENTED_EDGE('',*,*,#176,.T.);
#146=ORIENTED_EDGE('',*,*,#226,.F.);
#147=ORIENTED_EDGE('',*,*,#201,.F.);
#148=ORIENTED_EDGE('',*,*,#226,.T.);
#149=ORIENTED_EDGE('',*,*,#179,.T.);
#150=ORIENTED_EDGE('',*,*,#227,.F.);
#151=ORIENTED_EDGE('',*,*,#202,.F.);
#152=ORIENTED_EDGE('',*,*,#203,.T.);
#153=ORIENTED_EDGE('',*,*,#227,.T.);
#154=ORIENTED_EDGE('',*,*,#178,.F.);
#155=ORIENTED_EDGE('',*,*,#224,.F.);
#156=EDGE_CURVE('',#228,#229,#276,.T.);
#157=EDGE_CURVE('',#228,#230,#277,.T.);
#158=EDGE_CURVE('',#230,#231,#278,.T.);
#159=EDGE_CURVE('',#229,#231,#279,.T.);
#160=EDGE_CURVE('',#232,#233,#280,.T.);
#161=EDGE_CURVE('',#232,#234,#281,.T.);
#162=EDGE_CURVE('',#234,#235,#282,.T.);
#163=EDGE_CURVE('',#233,#235,#283,.T.);
#164=EDGE_CURVE('',#236,#237,#284,.T.);
#165=EDGE_CURVE('',#236,#238,#285,.T.);
#166=EDGE_CURVE('',#238,#239,#286,.T.);
#167=EDGE_CURVE('',#237,#239,#287,.T.);
#168=EDGE_CURVE('',#240,#241,#288,.T.);
#169=EDGE_CURVE('',#240,#242,#289,.T.);
#170=EDGE_CURVE('',#242,#243,#290,.T.);
#171=EDGE_CURVE('',#241,#243,#291,.T.);
#172=EDGE_CURVE('',#244,#245,#292,.T.);
#173=EDGE_CURVE('',#244,#246,#293,.T.);
#174=EDGE_CURVE('',#246,#247,#294,.T.);
#175=EDGE_CURVE('',#245,#247,#295,.T.);
#176=EDGE_CURVE('',#248,#249,#296,.T.);
#177=EDGE_CURVE('',#248,#250,#297,.T.);
#178=EDGE_CURVE('',#250,#251,#298,.T.);
#179=EDGE_CURVE('',#249,#251,#299,.T.);
#180=EDGE_CURVE('',#252,#253,#300,.T.);
#181=EDGE_CURVE('',#252,#254,#301,.T.);
#182=EDGE_CURVE('',#254,#255,#302,.T.);
#183=EDGE_CURVE('',#253,#255,#303,.T.);
#184=EDGE_CURVE('',#256,#257,#304,.T.);
#185=EDGE_CURVE('',#256,#258,#305,.T.);
#186=EDGE_CURVE('',#258,#259,#306,.T.);
#187=EDGE_CURVE('',#257,#259,#307,.T.);
#188=EDGE_CURVE('',#260,#261,#308,.T.);
#189=EDGE_CURVE('',#261,#262,#309,.T.);
#190=EDGE_CURVE('',#263,#262,#310,.T.);
#191=EDGE_CURVE('',#260,#263,#311,.T.);
#192=EDGE_CURVE('',#264,#265,#312,.T.);
#193=EDGE_CURVE('',#264,#266,#313,.T.);
#194=EDGE_CURVE('',#266,#267,#314,.T.);
#195=EDGE_CURVE('',#265,#267,#315,.T.);
#196=EDGE_CURVE('',#268,#269,#316,.T.);
#197=EDGE_CURVE('',#268,#270,#317,.T.);
#198=EDGE_CURVE('',#270,#271,#318,.T.);
#199=EDGE_CURVE('',#269,#271,#319,.T.);
#200=EDGE_CURVE('',#272,#273,#320,.T.);
#201=EDGE_CURVE('',#272,#274,#321,.T.);
#202=EDGE_CURVE('',#274,#275,#322,.T.);
#203=EDGE_CURVE('',#273,#275,#323,.T.);
#204=EDGE_CURVE('',#228,#260,#324,.T.);
#205=EDGE_CURVE('',#229,#261,#325,.T.);
#206=EDGE_CURVE('',#230,#263,#326,.T.);
#207=EDGE_CURVE('',#231,#262,#327,.T.);
#208=EDGE_CURVE('',#265,#234,#328,.T.);
#209=EDGE_CURVE('',#264,#232,#329,.T.);
#210=EDGE_CURVE('',#266,#233,#330,.T.);
#211=EDGE_CURVE('',#267,#235,#331,.T.);
#212=EDGE_CURVE('',#257,#238,#332,.T.);
#213=EDGE_CURVE('',#256,#236,#333,.T.);
#214=EDGE_CURVE('',#258,#237,#334,.T.);
#215=EDGE_CURVE('',#259,#239,#335,.T.);
#216=EDGE_CURVE('',#269,#242,#336,.T.);
#217=EDGE_CURVE('',#268,#240,#337,.T.);
#218=EDGE_CURVE('',#270,#241,#338,.T.);
#219=EDGE_CURVE('',#271,#243,#339,.T.);
#220=EDGE_CURVE('',#253,#246,#340,.T.);
#221=EDGE_CURVE('',#252,#244,#341,.T.);
#222=EDGE_CURVE('',#254,#245,#342,.T.);
#223=EDGE_CURVE('',#255,#247,#343,.T.);
#224=EDGE_CURVE('',#273,#250,#344,.T.);
#225=EDGE_CURVE('',#272,#248,#345,.T.);
#226=EDGE_CURVE('',#274,#249,#346,.T.);
#227=EDGE_CURVE('',#275,#251,#347,.T.);
#228=VERTEX_POINT('',#712);
#229=VERTEX_POINT('',#713);
#230=VERTEX_POINT('',#715);
#231=VERTEX_POINT('',#717);
#232=VERTEX_POINT('',#720);
#233=VERTEX_POINT('',#721);
#234=VERTEX_POINT('',#723);
#235=VERTEX_POINT('',#725);
#236=VERTEX_POINT('',#728);
#237=VERTEX_POINT('',#729);
#238=VERTEX_POINT('',#731);
#239=VERTEX_POINT('',#733);
#240=VERTEX_POINT('',#736);
#241=VERTEX_POINT('',#737);
#242=VERTEX_POINT('',#739);
#243=VERTEX_POINT('',#741);
#244=VERTEX_POINT('',#744);
#245=VERTEX_POINT('',#745);
#246=VERTEX_POINT('',#747);
#247=VERTEX_POINT('',#749);
#248=VERTEX_POINT('',#752);
#249=VERTEX_POINT('',#753);
#250=VERTEX_POINT('',#755);
#251=VERTEX_POINT('',#757);
#252=VERTEX_POINT('',#761);
#253=VERTEX_POINT('',#762);
#254=VERTEX_POINT('',#764);
#255=VERTEX_POINT('',#766);
#256=VERTEX_POINT('',#769);
#257=VERTEX_POINT('',#770);
#258=VERTEX_POINT('',#772);
#259=VERTEX_POINT('',#774);
#260=VERTEX_POINT('',#777);
#261=VERTEX_POINT('',#778);
#262=VERTEX_POINT('',#780);
#263=VERTEX_POINT('',#782);
#264=VERTEX_POINT('',#785);
#265=VERTEX_POINT('',#786);
#266=VERTEX_POINT('',#788);
#267=VERTEX_POINT('',#790);
#268=VERTEX_POINT('',#793);
#269=VERTEX_POINT('',#794);
#270=VERTEX_POINT('',#796);
#271=VERTEX_POINT('',#798);
#272=VERTEX_POINT('',#801);
#273=VERTEX_POINT('',#802);
#274=VERTEX_POINT('',#804);
#275=VERTEX_POINT('',#806);
#276=LINE('',#711,#348);
#277=LINE('',#714,#349);
#278=LINE('',#716,#350);
#279=LINE('',#718,#351);
#280=LINE('',#719,#352);
#281=LINE('',#722,#353);
#282=LINE('',#724,#354);
#283=LINE('',#726,#355);
#284=LINE('',#727,#356);
#285=LINE('',#730,#357);
#286=LINE('',#732,#358);
#287=LINE('',#734,#359);
#288=LINE('',#735,#360);
#289=LINE('',#738,#361);
#290=LINE('',#740,#362);
#291=LINE('',#742,#363);
#292=LINE('',#743,#364);
#293=LINE('',#746,#365);
#294=LINE('',#748,#366);
#295=LINE('',#750,#367);
#296=LINE('',#751,#368);
#297=LINE('',#754,#369);
#298=LINE('',#756,#370);
#299=LINE('',#758,#371);
#300=LINE('',#760,#372);
#301=LINE('',#763,#373);
#302=LINE('',#765,#374);
#303=LINE('',#767,#375);
#304=LINE('',#768,#376);
#305=LINE('',#771,#377);
#306=LINE('',#773,#378);
#307=LINE('',#775,#379);
#308=LINE('',#776,#380);
#309=LINE('',#779,#381);
#310=LINE('',#781,#382);
#311=LINE('',#783,#383);
#312=LINE('',#784,#384);
#313=LINE('',#787,#385);
#314=LINE('',#789,#386);
#315=LINE('',#791,#387);
#316=LINE('',#792,#388);
#317=LINE('',#795,#389);
#318=LINE('',#797,#390);
#319=LINE('',#799,#391);
#320=LINE('',#800,#392);
#321=LINE('',#803,#393);
#322=LINE('',#805,#394);
#323=LINE('',#807,#395);
#324=LINE('',#809,#396);
#325=LINE('',#810,#397);
#326=LINE('',#812,#398);
#327=LINE('',#814,#399);
#328=LINE('',#817,#400);
#329=LINE('',#818,#401);
#330=LINE('',#820,#402);
#331=LINE('',#822,#403);
#332=LINE('',#825,#404);
#333=LINE('',#826,#405);
#334=LINE('',#828,#406);
#335=LINE('',#830,#407);
#336=LINE('',#833,#408);
#337=LINE('',#834,#409);
#338=LINE('',#836,#410);
#339=LINE('',#838,#411);
#340=LINE('',#841,#412);
#341=LINE('',#842,#413);
#342=LINE('',#844,#414);
#343=LINE('',#846,#415);
#344=LINE('',#849,#416);
#345=LINE('',#850,#417);
#346=LINE('',#852,#418);
#347=LINE('',#854,#419);
#348=VECTOR('',#587,1.);
#349=VECTOR('',#588,1.);
#350=VECTOR('',#589,1.);
#351=VECTOR('',#590,1.);
#352=VECTOR('',#591,1.);
#353=VECTOR('',#592,1.);
#354=VECTOR('',#593,1.);
#355=VECTOR('',#594,1.);
#356=VECTOR('',#595,1.);
#357=VECTOR('',#596,1.);
#358=VECTOR('',#597,1.);
#359=VECTOR('',#598,1.);
#360=VECTOR('',#599,1.);
#361=VECTOR('',#600,1.);
#362=VECTOR('',#601,1.);
#363=VECTOR('',#602,1.);
#364=VECTOR('',#603,1.);
#365=VECTOR('',#604,1.);
#366=VECTOR('',#605,1.);
#367=VECTOR('',#606,1.);
#368=VECTOR('',#607,1.);
#369=VECTOR('',#608,1.);
#370=VECTOR('',#609,1.);
#371=VECTOR('',#610,1.);
#372=VECTOR('',#613,1.);
#373=VECTOR('',#614,1.);
#374=VECTOR('',#615,1.);
#375=VECTOR('',#616,1.);
#376=VECTOR('',#617,1.);
#377=VECTOR('',#618,1.);
#378=VECTOR('',#619,1.);
#379=VECTOR('',#620,1.);
#380=VECTOR('',#621,1.);
#381=VECTOR('',#622,1.);
#382=VECTOR('',#623,1.);
#383=VECTOR('',#624,1.);
#384=VECTOR('',#625,1.);
#385=VECTOR('',#626,1.);
#386=VECTOR('',#627,1.);
#387=VECTOR('',#628,1.);
#388=VECTOR('',#629,1.);
#389=VECTOR('',#630,1.);
#390=VECTOR('',#631,1.);
#391=VECTOR('',#632,1.);
#392=VECTOR('',#633,1.);
#393=VECTOR('',#634,1.);
#394=VECTOR('',#635,1.);
#395=VECTOR('',#636,1.);
#396=VECTOR('',#639,1.);
#397=VECTOR('',#640,1.);
#398=VECTOR('',#643,1.);
#399=VECTOR('',#646,1.);
#400=VECTOR('',#651,1.);
#401=VECTOR('',#652,1.);
#402=VECTOR('',#655,1.);
#403=VECTOR('',#658,1.);
#404=VECTOR('',#663,1.);
#405=VECTOR('',#664,1.);
#406=VECTOR('',#667,1.);
#407=VECTOR('',#670,1.);
#408=VECTOR('',#675,1.);
#409=VECTOR('',#676,1.);
#410=VECTOR('',#679,1.);
#411=VECTOR('',#682,1.);
#412=VECTOR('',#687,1.);
#413=VECTOR('',#688,1.);
#414=VECTOR('',#691,1.);
#415=VECTOR('',#694,1.);
#416=VECTOR('',#699,1.);
#417=VECTOR('',#700,1.);
#418=VECTOR('',#703,1.);
#419=VECTOR('',#706,1.);
#420=EDGE_LOOP('',(#12,#13,#14,#15));
#421=EDGE_LOOP('',(#16,#17,#18,#19));
#422=EDGE_LOOP('',(#20,#21,#22,#23));
#423=EDGE_LOOP('',(#24,#25,#26,#27));
#424=EDGE_LOOP('',(#28,#29,#30,#31));
#425=EDGE_LOOP('',(#32,#33,#34,#35));
#426=EDGE_LOOP('',(#36,#37,#38,#39));
#427=EDGE_LOOP('',(#40,#41,#42,#43));
#428=EDGE_LOOP('',(#44,#45,#46,#47));
#429=EDGE_LOOP('',(#48,#49,#50,#51));
#430=EDGE_LOOP('',(#52,#53,#54,#55));
#431=EDGE_LOOP('',(#56,#57,#58,#59));
#432=EDGE_LOOP('',(#60,#61,#62,#63));
#433=EDGE_LOOP('',(#64,#65,#66,#67));
#434=EDGE_LOOP('',(#68,#69,#70,#71));
#435=EDGE_LOOP('',(#72,#73,#74,#75));
#436=EDGE_LOOP('',(#76,#77,#78,#79));
#437=EDGE_LOOP('',(#80,#81,#82,#83));
#438=EDGE_LOOP('',(#84,#85,#86,#87));
#439=EDGE_LOOP('',(#88,#89,#90,#91));
#440=EDGE_LOOP('',(#92,#93,#94,#95));
#441=EDGE_LOOP('',(#96,#97,#98,#99));
#442=EDGE_LOOP('',(#100,#101,#102,#103));
#443=EDGE_LOOP('',(#104,#105,#106,#107));
#444=EDGE_LOOP('',(#108,#109,#110,#111));
#445=EDGE_LOOP('',(#112,#113,#114,#115));
#446=EDGE_LOOP('',(#116,#117,#118,#119));
#447=EDGE_LOOP('',(#120,#121,#122,#123));
#448=EDGE_LOOP('',(#124,#125,#126,#127));
#449=EDGE_LOOP('',(#128,#129,#130,#131));
#450=EDGE_LOOP('',(#132,#133,#134,#135));
#451=EDGE_LOOP('',(#136,#137,#138,#139));
#452=EDGE_LOOP('',(#140,#141,#142,#143));
#453=EDGE_LOOP('',(#144,#145,#146,#147));
#454=EDGE_LOOP('',(#148,#149,#150,#151));
#455=EDGE_LOOP('',(#152,#153,#154,#155));
#456=FACE_BOUND('',#420,.T.);
#457=FACE_BOUND('',#421,.T.);
#458=FACE_BOUND('',#422,.T.);
#459=FACE_BOUND('',#423,.T.);
#460=FACE_BOUND('',#424,.T.);
#461=FACE_BOUND('',#425,.T.);
#462=FACE_BOUND('',#426,.T.);
#463=FACE_BOUND('',#427,.T.);
#464=FACE_BOUND('',#428,.T.);
#465=FACE_BOUND('',#429,.T.);
#466=FACE_BOUND('',#430,.T.);
#467=FACE_BOUND('',#431,.T.);
#468=FACE_BOUND('',#432,.T.);
#469=FACE_BOUND('',#433,.T.);
#470=FACE_BOUND('',#434,.T.);
#471=FACE_BOUND('',#435,.T.);
#472=FACE_BOUND('',#436,.T.);
#473=FACE_BOUND('',#437,.T.);
#474=FACE_BOUND('',#438,.T.);
#475=FACE_BOUND('',#439,.T.);
#476=FACE_BOUND('',#440,.T.);
#477=FACE_BOUND('',#441,.T.);
#478=FACE_BOUND('',#442,.T.);
#479=FACE_BOUND('',#443,.T.);
#480=FACE_BOUND('',#444,.T.);
#481=FACE_BOUND('',#445,.T.);
#482=FACE_BOUND('',#446,.T.);
#483=FACE_BOUND('',#447,.T.);
#484=FACE_BOUND('',#448,.T.);
#485=FACE_BOUND('',#449,.T.);
#486=FACE_BOUND('',#450,.T.);
#487=FACE_BOUND('',#451,.T.);
#488=FACE_BOUND('',#452,.T.);
#489=FACE_BOUND('',#453,.T.);
#490=FACE_BOUND('',#454,.T.);
#491=FACE_BOUND('',#455,.T.);
#492=PLANE('',#557);
#493=PLANE('',#558);
#494=PLANE('',#559);
#495=PLANE('',#560);
#496=PLANE('',#561);
#497=PLANE('',#562);
#498=PLANE('',#563);
#499=PLANE('',#564);
#500=PLANE('',#565);
#501=PLANE('',#566);
#502=PLANE('',#567);
#503=PLANE('',#568);
#504=PLANE('',#569);
#505=PLANE('',#570);
#506=PLANE('',#571);
#507=PLANE('',#572);
#508=PLANE('',#573);
#509=PLANE('',#574);
#510=PLANE('',#575);
#511=PLANE('',#576);
#512=PLANE('',#577);
#513=PLANE('',#578);
#514=PLANE('',#579);
#515=PLANE('',#580);
#516=PLANE('',#581);
#517=PLANE('',#582);
#518=ADVANCED_FACE('',(#456,#457,#458,#459,#460,#461),#492,.T.);
#519=ADVANCED_FACE('',(#462,#463,#464,#465,#466,#467),#493,.F.);
#520=ADVANCED_FACE('',(#468),#494,.T.);
#521=ADVANCED_FACE('',(#469),#495,.F.);
#522=ADVANCED_FACE('',(#470),#496,.F.);
#523=ADVANCED_FACE('',(#471),#497,.T.);
#524=ADVANCED_FACE('',(#472),#498,.T.);
#525=ADVANCED_FACE('',(#473),#499,.F.);
#526=ADVANCED_FACE('',(#474),#500,.F.);
#527=ADVANCED_FACE('',(#475),#501,.T.);
#528=ADVANCED_FACE('',(#476),#502,.T.);
#529=ADVANCED_FACE('',(#477),#503,.F.);
#530=ADVANCED_FACE('',(#478),#504,.F.);
#531=ADVANCED_FACE('',(#479),#505,.T.);
#532=ADVANCED_FACE('',(#480),#506,.T.);
#533=ADVANCED_FACE('',(#481),#507,.F.);
#534=ADVANCED_FACE('',(#482),#508,.F.);
#535=ADVANCED_FACE('',(#483),#509,.T.);
#536=ADVANCED_FACE('',(#484),#510,.T.);
#537=ADVANCED_FACE('',(#485),#511,.F.);
#538=ADVANCED_FACE('',(#486),#512,.F.);
#539=ADVANCED_FACE('',(#487),#513,.T.);
#540=ADVANCED_FACE('',(#488),#514,.T.);
#541=ADVANCED_FACE('',(#489),#515,.F.);
#542=ADVANCED_FACE('',(#490),#516,.F.);
#543=ADVANCED_FACE('',(#491),#517,.T.);
#544=CLOSED_SHELL('',(#518,#519,#520,#521,#522,#523,#524,#525,#526,#527,
#528,#529,#530,#531,#532,#533,#534,#535,#536,#537,#538,#539,#540,#541,#542,
#543));
#545=STYLED_ITEM('',(#546),#553);
#546=PRESENTATION_STYLE_ASSIGNMENT((#547));
#547=SURFACE_STYLE_USAGE(.BOTH.,#548);
#548=SURFACE_SIDE_STYLE('',(#549));
#549=SURFACE_STYLE_FILL_AREA(#550);
#550=FILL_AREA_STYLE('',(#551));
#551=FILL_AREA_STYLE_COLOUR('',#552);
#552=COLOUR_RGB('',0.976470588235294,0.984313725490196,0.984313725490196);
#553=MANIFOLD_SOLID_BREP('Part 1',#544);
#554=SHAPE_DEFINITION_REPRESENTATION(#862,#555);
#555=SHAPE_REPRESENTATION('Part 1',(#556),#857);
#556=AXIS2_PLACEMENT_3D('',#709,#583,#584);
#557=AXIS2_PLACEMENT_3D('',#710,#585,#586);
#558=AXIS2_PLACEMENT_3D('',#759,#611,#612);
#559=AXIS2_PLACEMENT_3D('',#808,#637,#638);
#560=AXIS2_PLACEMENT_3D('',#811,#641,#642);
#561=AXIS2_PLACEMENT_3D('',#813,#644,#645);
#562=AXIS2_PLACEMENT_3D('',#815,#647,#648);
#563=AXIS2_PLACEMENT_3D('',#816,#649,#650);
#564=AXIS2_PLACEMENT_3D('',#819,#653,#654);
#565=AXIS2_PLACEMENT_3D('',#821,#656,#657);
#566=AXIS2_PLACEMENT_3D('',#823,#659,#660);
#567=AXIS2_PLACEMENT_3D('',#824,#661,#662);
#568=AXIS2_PLACEMENT_3D('',#827,#665,#666);
#569=AXIS2_PLACEMENT_3D('',#829,#668,#669);
#570=AXIS2_PLACEMENT_3D('',#831,#671,#672);
#571=AXIS2_PLACEMENT_3D('',#832,#673,#674);
#572=AXIS2_PLACEMENT_3D('',#835,#677,#678);
#573=AXIS2_PLACEMENT_3D('',#837,#680,#681);
#574=AXIS2_PLACEMENT_3D('',#839,#683,#684);
#575=AXIS2_PLACEMENT_3D('',#840,#685,#686);
#576=AXIS2_PLACEMENT_3D('',#843,#689,#690);
#577=AXIS2_PLACEMENT_3D('',#845,#692,#693);
#578=AXIS2_PLACEMENT_3D('',#847,#695,#696);
#579=AXIS2_PLACEMENT_3D('',#848,#697,#698);
#580=AXIS2_PLACEMENT_3D('',#851,#701,#702);
#581=AXIS2_PLACEMENT_3D('',#853,#704,#705);
#582=AXIS2_PLACEMENT_3D('',#855,#707,#708);
#583=DIRECTION('',(0.,0.,1.));
#584=DIRECTION('',(1.,0.,0.));
#585=DIRECTION('',(0.,0.,1.));
#586=DIRECTION('',(1.,0.,0.));
#587=DIRECTION('',(1.,0.,0.));
#588=DIRECTION('',(-2.08166817117217E-16,-1.,0.));
#589=DIRECTION('',(1.,0.,0.));
#590=DIRECTION('',(-2.08166817117217E-16,-1.,0.));
#591=DIRECTION('',(0.,-1.,0.));
#592=DIRECTION('',(1.,0.,0.));
#593=DIRECTION('',(0.,-1.,0.));
#594=DIRECTION('',(1.,0.,0.));
#595=DIRECTION('',(8.67361737988404E-17,-1.,0.));
#596=DIRECTION('',(1.,0.,0.));
#597=DIRECTION('',(8.67361737988404E-17,-1.,0.));
#598=DIRECTION('',(1.,0.,0.));
#599=DIRECTION('',(6.50521303491303E-17,-1.,0.));
#600=DIRECTION('',(1.,0.,0.));
#601=DIRECTION('',(6.50521303491303E-17,-1.,0.));
#602=DIRECTION('',(1.,0.,0.));
#603=DIRECTION('',(8.67361737988404E-17,-1.,0.));
#604=DIRECTION('',(1.,0.,0.));
#605=DIRECTION('',(8.67361737988404E-17,-1.,0.));
#606=DIRECTION('',(1.,0.,0.));
#607=DIRECTION('',(0.,-1.,0.));
#608=DIRECTION('',(1.,0.,0.));
#609=DIRECTION('',(0.,-1.,0.));
#610=DIRECTION('',(1.,0.,0.));
#611=DIRECTION('',(0.,0.,1.));
#612=DIRECTION('',(1.,0.,0.));
#613=DIRECTION('',(1.,0.,0.));
#614=DIRECTION('',(8.67361737988404E-17,-1.,0.));
#615=DIRECTION('',(1.,0.,0.));
#616=DIRECTION('',(8.67361737988404E-17,-1.,0.));
#617=DIRECTION('',(1.,0.,0.));
#618=DIRECTION('',(8.67361737988404E-17,-1.,0.));
#619=DIRECTION('',(1.,0.,0.));
#620=DIRECTION('',(8.67361737988404E-17,-1.,0.));
#621=DIRECTION('',(1.,0.,0.));
#622=DIRECTION('',(-2.08166817117217E-16,-1.,0.));
#623=DIRECTION('',(1.,0.,0.));
#624=DIRECTION('',(-2.08166817117217E-16,-1.,0.));
#625=DIRECTION('',(1.,0.,0.));
#626=DIRECTION('',(0.,-1.,0.));
#627=DIRECTION('',(1.,0.,0.));
#628=DIRECTION('',(0.,-1.,0.));
#629=DIRECTION('',(1.,0.,0.));
#630=DIRECTION('',(6.50521303491303E-17,-1.,0.));
#631=DIRECTION('',(1.,0.,0.));
#632=DIRECTION('',(6.50521303491303E-17,-1.,0.));
#633=DIRECTION('',(1.,0.,0.));
#634=DIRECTION('',(0.,-1.,0.));
#635=DIRECTION('',(1.,0.,0.));
#636=DIRECTION('',(0.,-1.,0.));
#637=DIRECTION('',(0.,1.,0.));
#638=DIRECTION('',(0.,0.,1.));
#639=DIRECTION('',(0.,0.,-1.));
#640=DIRECTION('',(0.,0.,-1.));
#641=DIRECTION('',(1.,-2.08166817117217E-16,0.));
#642=DIRECTION('',(2.08166817117217E-16,1.,0.));
#643=DIRECTION('',(0.,0.,-1.));
#644=DIRECTION('',(0.,1.,0.));
#645=DIRECTION('',(0.,0.,1.));
#646=DIRECTION('',(0.,0.,-1.));
#647=DIRECTION('',(1.,-2.08166817117217E-16,0.));
#648=DIRECTION('',(2.08166817117217E-16,1.,0.));
#649=DIRECTION('',(0.,-1.,0.));
#650=DIRECTION('',(0.,0.,-1.));
#651=DIRECTION('',(0.,0.,1.));
#652=DIRECTION('',(0.,0.,1.));
#653=DIRECTION('',(-1.,0.,0.));
#654=DIRECTION('',(0.,0.,1.));
#655=DIRECTION('',(0.,0.,1.));
#656=DIRECTION('',(0.,-1.,0.));
#657=DIRECTION('',(0.,0.,-1.));
#658=DIRECTION('',(0.,0.,1.));
#659=DIRECTION('',(-1.,0.,0.));
#660=DIRECTION('',(0.,0.,1.));
#661=DIRECTION('',(0.,-1.,0.));
#662=DIRECTION('',(0.,0.,-1.));
#663=DIRECTION('',(0.,0.,1.));
#664=DIRECTION('',(0.,0.,1.));
#665=DIRECTION('',(-1.,-8.67361737988404E-17,0.));
#666=DIRECTION('',(8.67361737988404E-17,-1.,0.));
#667=DIRECTION('',(0.,0.,1.));
#668=DIRECTION('',(0.,-1.,0.));
#669=DIRECTION('',(0.,0.,-1.));
#670=DIRECTION('',(0.,0.,1.));
#671=DIRECTION('',(-1.,-8.67361737988404E-17,0.));
#672=DIRECTION('',(8.67361737988404E-17,-1.,0.));
#673=DIRECTION('',(0.,-1.,0.));
#674=DIRECTION('',(0.,0.,-1.));
#675=DIRECTION('',(0.,0.,1.));
#676=DIRECTION('',(0.,0.,1.));
#677=DIRECTION('',(-1.,-6.50521303491303E-17,0.));
#678=DIRECTION('',(6.50521303491303E-17,-1.,0.));
#679=DIRECTION('',(0.,0.,1.));
#680=DIRECTION('',(0.,-1.,0.));
#681=DIRECTION('',(0.,0.,-1.));
#682=DIRECTION('',(0.,0.,1.));
#683=DIRECTION('',(-1.,-6.50521303491303E-17,0.));
#684=DIRECTION('',(6.50521303491303E-17,-1.,0.));
#685=DIRECTION('',(0.,-1.,0.));
#686=DIRECTION('',(0.,0.,-1.));
#687=DIRECTION('',(0.,0.,1.));
#688=DIRECTION('',(0.,0.,1.));
#689=DIRECTION('',(-1.,-8.67361737988404E-17,0.));
#690=DIRECTION('',(8.67361737988404E-17,-1.,0.));
#691=DIRECTION('',(0.,0.,1.));
#692=DIRECTION('',(0.,-1.,0.));
#693=DIRECTION('',(0.,0.,-1.));
#694=DIRECTION('',(0.,0.,1.));
#695=DIRECTION('',(-1.,-8.67361737988404E-17,0.));
#696=DIRECTION('',(8.67361737988404E-17,-1.,0.));
#697=DIRECTION('',(0.,-1.,0.));
#698=DIRECTION('',(0.,0.,-1.));
#699=DIRECTION('',(0.,0.,1.));
#700=DIRECTION('',(0.,0.,1.));
#701=DIRECTION('',(-1.,0.,0.));
#702=DIRECTION('',(0.,0.,1.));
#703=DIRECTION('',(0.,0.,1.));
#704=DIRECTION('',(0.,-1.,0.));
#705=DIRECTION('',(0.,0.,-1.));
#706=DIRECTION('',(0.,0.,1.));
#707=DIRECTION('',(-1.,0.,0.));
#708=DIRECTION('',(0.,0.,1.));
#709=CARTESIAN_POINT('',(0.,0.,0.));
#710=CARTESIAN_POINT('',(0.,0.,0.002));
#711=CARTESIAN_POINT('',(3.46944695195361E-18,0.0125,0.002));
#712=CARTESIAN_POINT('',(-0.015,0.0125,0.002));
#713=CARTESIAN_POINT('',(0.015,0.0125,0.002));
#714=CARTESIAN_POINT('',(-0.015,-1.7347234759768E-18,0.002));
#715=CARTESIAN_POINT('',(-0.015,-0.0125,0.002));
#716=CARTESIAN_POINT('',(-3.46944695195361E-18,-0.0125,0.002));
#717=CARTESIAN_POINT('',(0.015,-0.0125,0.002));
#718=CARTESIAN_POINT('',(0.015,0.,0.002));
#719=CARTESIAN_POINT('',(-0.0119417334897444,0.,0.002));
#720=CARTESIAN_POINT('',(-0.0119417334897444,0.01,0.002));
#721=CARTESIAN_POINT('',(-0.0119417334897444,-0.01,0.002));
#722=CARTESIAN_POINT('',(-0.0109417334897444,0.01,0.002));
#723=CARTESIAN_POINT('',(-0.00994173348974436,0.01,0.002));
#724=CARTESIAN_POINT('',(-0.00994173348974436,0.,0.002));
#725=CARTESIAN_POINT('',(-0.00994173348974436,-0.01,0.002));
#726=CARTESIAN_POINT('',(-0.0109417334897444,-0.01,0.002));
#727=CARTESIAN_POINT('',(-0.00656855963077396,0.,0.002));
#728=CARTESIAN_POINT('',(-0.00656855963077396,0.01,0.002));
#729=CARTESIAN_POINT('',(-0.00656855963077396,-0.01,0.002));
#730=CARTESIAN_POINT('',(-0.00556855963077396,0.01,0.002));
#731=CARTESIAN_POINT('',(-0.00456855963077396,0.01,0.002));
#732=CARTESIAN_POINT('',(-0.00456855963077396,0.,0.002));
#733=CARTESIAN_POINT('',(-0.00456855963077396,-0.01,0.002));
#734=CARTESIAN_POINT('',(-0.00556855963077396,-0.01,0.002));
#735=CARTESIAN_POINT('',(-0.000952144746202976,0.,0.002));
#736=CARTESIAN_POINT('',(-0.000952144746202976,0.01,0.002));
#737=CARTESIAN_POINT('',(-0.000952144746202976,-0.01,0.002));
#738=CARTESIAN_POINT('',(4.78552537970236E-5,0.01,0.002));
#739=CARTESIAN_POINT('',(0.00104785525379702,0.01,0.002));
#740=CARTESIAN_POINT('',(0.00104785525379702,0.,0.002));
#741=CARTESIAN_POINT('',(0.00104785525379702,-0.01,0.002));
#742=CARTESIAN_POINT('',(4.78552537970245E-5,-0.01,0.002));
#743=CARTESIAN_POINT('',(0.00448289093421772,0.,0.002));
#744=CARTESIAN_POINT('',(0.00448289093421772,0.01,0.002));
#745=CARTESIAN_POINT('',(0.00448289093421772,-0.01,0.002));
#746=CARTESIAN_POINT('',(0.00548289093421772,0.01,0.002));
#747=CARTESIAN_POINT('',(0.00648289093421772,0.01,0.002));
#748=CARTESIAN_POINT('',(0.00648289093421772,0.,0.002));
#749=CARTESIAN_POINT('',(0.00648289093421772,-0.01,0.002));
#750=CARTESIAN_POINT('',(0.00548289093421772,-0.01,0.002));
#751=CARTESIAN_POINT('',(0.00941749655269087,0.,0.002));
#752=CARTESIAN_POINT('',(0.00941749655269087,0.01,0.002));
#753=CARTESIAN_POINT('',(0.00941749655269087,-0.01,0.002));
#754=CARTESIAN_POINT('',(0.0104174965526909,0.01,0.002));
#755=CARTESIAN_POINT('',(0.0114174965526909,0.01,0.002));
#756=CARTESIAN_POINT('',(0.0114174965526909,0.,0.002));
#757=CARTESIAN_POINT('',(0.0114174965526909,-0.01,0.002));
#758=CARTESIAN_POINT('',(0.0104174965526909,-0.01,0.002));
#759=CARTESIAN_POINT('',(0.,0.,0.));
#760=CARTESIAN_POINT('',(0.,0.01,0.));
#761=CARTESIAN_POINT('',(0.00448289093421772,0.01,0.));
#762=CARTESIAN_POINT('',(0.00648289093421772,0.01,0.));
#763=CARTESIAN_POINT('',(0.00448289093421772,3.88828807191554E-19,0.));
#764=CARTESIAN_POINT('',(0.00448289093421772,-0.01,0.));
#765=CARTESIAN_POINT('',(0.,-0.01,0.));
#766=CARTESIAN_POINT('',(0.00648289093421772,-0.01,0.));
#767=CARTESIAN_POINT('',(0.00648289093421772,5.62301154789235E-19,0.));
#768=CARTESIAN_POINT('',(0.,0.01,0.));
#769=CARTESIAN_POINT('',(-0.00656855963077396,0.01,0.));
#770=CARTESIAN_POINT('',(-0.00456855963077396,0.01,0.));
#771=CARTESIAN_POINT('',(-0.00656855963077396,-5.69731729742857E-19,0.));
#772=CARTESIAN_POINT('',(-0.00656855963077396,-0.01,0.));
#773=CARTESIAN_POINT('',(0.,-0.01,0.));
#774=CARTESIAN_POINT('',(-0.00456855963077396,-0.01,0.));
#775=CARTESIAN_POINT('',(-0.00456855963077396,-3.96259382145177E-19,0.));
#776=CARTESIAN_POINT('',(3.46944695195361E-18,0.0125,0.));
#777=CARTESIAN_POINT('',(-0.015,0.0125,0.));
#778=CARTESIAN_POINT('',(0.015,0.0125,0.));
#779=CARTESIAN_POINT('',(0.015,0.,0.));
#780=CARTESIAN_POINT('',(0.015,-0.0125,0.));
#781=CARTESIAN_POINT('',(-3.46944695195361E-18,-0.0125,0.));
#782=CARTESIAN_POINT('',(-0.015,-0.0125,0.));
#783=CARTESIAN_POINT('',(-0.015,-1.7347234759768E-18,0.));
#784=CARTESIAN_POINT('',(0.,0.01,0.));
#785=CARTESIAN_POINT('',(-0.0119417334897444,0.01,0.));
#786=CARTESIAN_POINT('',(-0.00994173348974436,0.01,0.));
#787=CARTESIAN_POINT('',(-0.0119417334897444,0.,0.));
#788=CARTESIAN_POINT('',(-0.0119417334897444,-0.01,0.));
#789=CARTESIAN_POINT('',(0.,-0.01,0.));
#790=CARTESIAN_POINT('',(-0.00994173348974436,-0.01,0.));
#791=CARTESIAN_POINT('',(-0.00994173348974436,0.,0.));
#792=CARTESIAN_POINT('',(0.,0.01,0.));
#793=CARTESIAN_POINT('',(-0.000952144746202976,0.01,0.));
#794=CARTESIAN_POINT('',(0.00104785525379702,0.01,0.));
#795=CARTESIAN_POINT('',(-0.000952144746202976,-6.19390441412356E-20,0.));
#796=CARTESIAN_POINT('',(-0.000952144746202976,-0.01,0.));
#797=CARTESIAN_POINT('',(0.,-0.01,0.));
#798=CARTESIAN_POINT('',(0.00104785525379702,-0.01,0.));
#799=CARTESIAN_POINT('',(0.00104785525379702,6.8165216557025E-20,0.));
#800=CARTESIAN_POINT('',(0.,0.01,0.));
#801=CARTESIAN_POINT('',(0.00941749655269087,0.01,0.));
#802=CARTESIAN_POINT('',(0.0114174965526909,0.01,0.));
#803=CARTESIAN_POINT('',(0.00941749655269087,0.,0.));
#804=CARTESIAN_POINT('',(0.00941749655269087,-0.01,0.));
#805=CARTESIAN_POINT('',(0.,-0.01,0.));
#806=CARTESIAN_POINT('',(0.0114174965526909,-0.01,0.));
#807=CARTESIAN_POINT('',(0.0114174965526909,0.,0.));
#808=CARTESIAN_POINT('',(3.46944695195361E-18,0.0125,0.002));
#809=CARTESIAN_POINT('',(-0.015,0.0125,0.002));
#810=CARTESIAN_POINT('',(0.015,0.0125,0.002));
#811=CARTESIAN_POINT('',(-0.015,-1.7347234759768E-18,0.002));
#812=CARTESIAN_POINT('',(-0.015,-0.0125,0.002));
#813=CARTESIAN_POINT('',(-3.46944695195361E-18,-0.0125,0.002));
#814=CARTESIAN_POINT('',(0.015,-0.0125,0.002));
#815=CARTESIAN_POINT('',(0.015,0.,0.002));
#816=CARTESIAN_POINT('',(-0.0109417334897444,0.01,-0.0371124295920343));
#817=CARTESIAN_POINT('',(-0.00994173348974436,0.01,-0.0371124295920343));
#818=CARTESIAN_POINT('',(-0.0119417334897444,0.01,-0.0371124295920343));
#819=CARTESIAN_POINT('',(-0.0119417334897444,0.,-0.0371124295920343));
#820=CARTESIAN_POINT('',(-0.0119417334897444,-0.01,-0.0371124295920343));
#821=CARTESIAN_POINT('',(-0.0109417334897444,-0.01,-0.0371124295920343));
#822=CARTESIAN_POINT('',(-0.00994173348974436,-0.01,-0.0371124295920343));
#823=CARTESIAN_POINT('',(-0.00994173348974436,0.,-0.0371124295920343));
#824=CARTESIAN_POINT('',(-0.00556855963077396,0.01,-0.0371124295920343));
#825=CARTESIAN_POINT('',(-0.00456855963077396,0.01,-0.0371124295920343));
#826=CARTESIAN_POINT('',(-0.00656855963077396,0.01,-0.0371124295920343));
#827=CARTESIAN_POINT('',(-0.00656855963077396,0.,-0.0371124295920343));
#828=CARTESIAN_POINT('',(-0.00656855963077396,-0.01,-0.0371124295920343));
#829=CARTESIAN_POINT('',(-0.00556855963077396,-0.01,-0.0371124295920343));
#830=CARTESIAN_POINT('',(-0.00456855963077396,-0.01,-0.0371124295920343));
#831=CARTESIAN_POINT('',(-0.00456855963077396,0.,-0.0371124295920343));
#832=CARTESIAN_POINT('',(4.78552537970236E-5,0.01,-0.0371124295920343));
#833=CARTESIAN_POINT('',(0.00104785525379702,0.01,-0.0371124295920343));
#834=CARTESIAN_POINT('',(-0.000952144746202976,0.01,-0.0371124295920343));
#835=CARTESIAN_POINT('',(-0.000952144746202976,0.,-0.0371124295920343));
#836=CARTESIAN_POINT('',(-0.000952144746202976,-0.01,-0.0371124295920343));
#837=CARTESIAN_POINT('',(4.78552537970245E-5,-0.01,-0.0371124295920343));
#838=CARTESIAN_POINT('',(0.00104785525379702,-0.01,-0.0371124295920343));
#839=CARTESIAN_POINT('',(0.00104785525379702,0.,-0.0371124295920343));
#840=CARTESIAN_POINT('',(0.00548289093421772,0.01,-0.0371124295920343));
#841=CARTESIAN_POINT('',(0.00648289093421772,0.01,-0.0371124295920343));
#842=CARTESIAN_POINT('',(0.00448289093421772,0.01,-0.0371124295920343));
#843=CARTESIAN_POINT('',(0.00448289093421772,0.,-0.0371124295920343));
#844=CARTESIAN_POINT('',(0.00448289093421772,-0.01,-0.0371124295920343));
#845=CARTESIAN_POINT('',(0.00548289093421772,-0.01,-0.0371124295920343));
#846=CARTESIAN_POINT('',(0.00648289093421772,-0.01,-0.0371124295920343));
#847=CARTESIAN_POINT('',(0.00648289093421772,0.,-0.0371124295920343));
#848=CARTESIAN_POINT('',(0.0104174965526909,0.01,-0.0371124295920343));
#849=CARTESIAN_POINT('',(0.0114174965526909,0.01,-0.0371124295920343));
#850=CARTESIAN_POINT('',(0.00941749655269087,0.01,-0.0371124295920343));
#851=CARTESIAN_POINT('',(0.00941749655269087,0.,-0.0371124295920343));
#852=CARTESIAN_POINT('',(0.00941749655269087,-0.01,-0.0371124295920343));
#853=CARTESIAN_POINT('',(0.0104174965526909,-0.01,-0.0371124295920343));
#854=CARTESIAN_POINT('',(0.0114174965526909,-0.01,-0.0371124295920343));
#855=CARTESIAN_POINT('',(0.0114174965526909,0.,-0.0371124295920343));
#856=MECHANICAL_DESIGN_GEOMETRIC_PRESENTATION_REPRESENTATION('',(#545),
#857);
#857=(
GEOMETRIC_REPRESENTATION_CONTEXT(3)
GLOBAL_UNCERTAINTY_ASSIGNED_CONTEXT((#858))
GLOBAL_UNIT_ASSIGNED_CONTEXT((#861,#860,#859))
REPRESENTATION_CONTEXT('Part 1','TOP_LEVEL_ASSEMBLY_PART')
);
#858=UNCERTAINTY_MEASURE_WITH_UNIT(LENGTH_MEASURE(1.E-8),#861,
'DISTANCE_ACCURACY_VALUE','Maximum Tolerance applied to model');
#859=(
NAMED_UNIT(*)
SI_UNIT($,.STERADIAN.)
SOLID_ANGLE_UNIT()
);
#860=(
NAMED_UNIT(*)
PLANE_ANGLE_UNIT()
SI_UNIT($,.RADIAN.)
);
#861=(
LENGTH_UNIT()
NAMED_UNIT(*)
SI_UNIT($,.METRE.)
);
#862=PRODUCT_DEFINITION_SHAPE('','',#863);
#863=PRODUCT_DEFINITION('','',#865,#864);
#864=PRODUCT_DEFINITION_CONTEXT('',#871,'design');
#865=PRODUCT_DEFINITION_FORMATION_WITH_SPECIFIED_SOURCE('','',#867,
 .NOT_KNOWN.);
#866=PRODUCT_RELATED_PRODUCT_CATEGORY('','',(#867));
#867=PRODUCT('Part 1','Part 1','Part 1',(#869));
#868=PRODUCT_CATEGORY('','');
#869=PRODUCT_CONTEXT('',#871,'mechanical');
#870=APPLICATION_PROTOCOL_DEFINITION('international standard',
'ap242_managed_model_based_3d_engineering',2020,#871);
#871=APPLICATION_CONTEXT('managed model based 3d engineering');
ENDSEC;
END-ISO-10303-21;
