ISO-10303-21;
HEADER;
/* Generated by software containing ST-Developer
 * from STEP Tools, Inc. (www.steptools.com) 
 */
/* OPTION: using custom renumber hook */

FILE_DESCRIPTION(
/* description */ ('STEP AP242 Edition 2',
'CAx-IF Rec.Pracs.---Representation and Presentation of Product Manufa
cturing Information (PMI)---4.0---2014-10-13',
'CAx-IF Rec.Pracs.---3D Tessellated Geometry---0.4---2014-09-14','2;1',
'CAx-IF Rec.Pracs.---User Defined Attributes---1.5---2016-08-15'),
/* implementation_level */ '2;1');

FILE_NAME(
/* name */ 'lampshade',
/* time_stamp */ '2026-09-06T17:57:17Z',
/* author */ (''),
/* organization */ (''),
/* preprocessor_version */ 'ST-DEVELOPER v20',
/* originating_system */ 'ONSHAPE BY PTC INC, 1.220',
/* authorisation */ '  ');

FILE_SCHEMA (('AP242_MANAGED_MODEL_BASED_3D_ENGINEERING_MIM_LF { 1 0 10303 442 3 1 4 }'));
ENDSEC;

DATA;
#10=CONICAL_SURFACE('',#138,0.0075,0.205395389189767);
#11=SHAPE_REPRESENTATION_RELATIONSHIP('','',#126,#13);
#12=SHAPE_REPRESENTATION_RELATIONSHIP('','',#127,#14);
#13=ADVANCED_BREP_SHAPE_REPRESENTATION('',(#122),#214);
#14=ADVANCED_BREP_SHAPE_REPRESENTATION('',(#123),#215);
#15=PLANE('',#135);
#16=PLANE('',#136);
#17=PLANE('',#141);
#18=PLANE('',#142);
#19=PLANE('',#146);
#20=ORIENTED_EDGE('',*,*,#36,.T.);
#21=ORIENTED_EDGE('',*,*,#37,.F.);
#22=ORIENTED_EDGE('',*,*,#38,.F.);
#23=ORIENTED_EDGE('',*,*,#39,.T.);
#24=ORIENTED_EDGE('',*,*,#36,.F.);
#25=ORIENTED_EDGE('',*,*,#38,.T.);
#26=ORIENTED_EDGE('',*,*,#37,.T.);
#27=ORIENTED_EDGE('',*,*,#39,.F.);
#28=ORIENTED_EDGE('',*,*,#40,.F.);
#29=ORIENTED_EDGE('',*,*,#41,.T.);
#30=ORIENTED_EDGE('',*,*,#40,.T.);
#31=ORIENTED_EDGE('',*,*,#42,.F.);
#32=ORIENTED_EDGE('',*,*,#41,.F.);
#33=ORIENTED_EDGE('',*,*,#43,.F.);
#34=ORIENTED_EDGE('',*,*,#42,.T.);
#35=ORIENTED_EDGE('',*,*,#43,.T.);
#36=EDGE_CURVE('',#44,#44,#52,.T.);
#37=EDGE_CURVE('',#45,#45,#53,.T.);
#38=EDGE_CURVE('',#46,#46,#54,.T.);
#39=EDGE_CURVE('',#47,#47,#55,.T.);
#40=EDGE_CURVE('',#48,#48,#56,.T.);
#41=EDGE_CURVE('',#49,#49,#57,.T.);
#42=EDGE_CURVE('',#50,#50,#58,.T.);
#43=EDGE_CURVE('',#51,#51,#59,.T.);
#44=VERTEX_POINT('',#188);
#45=VERTEX_POINT('',#190);
#46=VERTEX_POINT('',#193);
#47=VERTEX_POINT('',#195);
#48=VERTEX_POINT('',#201);
#49=VERTEX_POINT('',#203);
#50=VERTEX_POINT('',#207);
#51=VERTEX_POINT('',#210);
#52=CIRCLE('',#130,0.00075);
#53=CIRCLE('',#131,0.00075);
#54=CIRCLE('',#133,0.006);
#55=CIRCLE('',#134,0.006);
#56=CIRCLE('',#139,0.005);
#57=CIRCLE('',#140,0.0075);
#58=CIRCLE('',#143,0.00075);
#59=CIRCLE('',#145,0.00075);
#60=EDGE_LOOP('',(#20));
#61=EDGE_LOOP('',(#21));
#62=EDGE_LOOP('',(#22));
#63=EDGE_LOOP('',(#23));
#64=EDGE_LOOP('',(#24));
#65=EDGE_LOOP('',(#25));
#66=EDGE_LOOP('',(#26));
#67=EDGE_LOOP('',(#27));
#68=EDGE_LOOP('',(#28));
#69=EDGE_LOOP('',(#29));
#70=EDGE_LOOP('',(#30));
#71=EDGE_LOOP('',(#31));
#72=EDGE_LOOP('',(#32));
#73=EDGE_LOOP('',(#33));
#74=EDGE_LOOP('',(#34));
#75=EDGE_LOOP('',(#35));
#76=FACE_BOUND('',#60,.T.);
#77=FACE_BOUND('',#61,.T.);
#78=FACE_BOUND('',#62,.T.);
#79=FACE_BOUND('',#63,.T.);
#80=FACE_BOUND('',#64,.T.);
#81=FACE_BOUND('',#65,.T.);
#82=FACE_BOUND('',#66,.T.);
#83=FACE_BOUND('',#67,.T.);
#84=FACE_BOUND('',#68,.T.);
#85=FACE_BOUND('',#69,.T.);
#86=FACE_BOUND('',#70,.T.);
#87=FACE_BOUND('',#71,.T.);
#88=FACE_BOUND('',#72,.T.);
#89=FACE_BOUND('',#73,.T.);
#90=FACE_BOUND('',#74,.T.);
#91=FACE_BOUND('',#75,.T.);
#92=CYLINDRICAL_SURFACE('',#129,0.00075);
#93=CYLINDRICAL_SURFACE('',#132,0.006);
#94=CYLINDRICAL_SURFACE('',#144,0.00075);
#95=ADVANCED_FACE('',(#76,#77),#92,.F.);
#96=ADVANCED_FACE('',(#78,#79),#93,.T.);
#97=ADVANCED_FACE('',(#80,#81),#15,.T.);
#98=ADVANCED_FACE('',(#82,#83),#16,.F.);
#99=ADVANCED_FACE('',(#84,#85),#10,.T.);
#100=ADVANCED_FACE('',(#86),#17,.T.);
#101=ADVANCED_FACE('',(#87,#88),#18,.F.);
#102=ADVANCED_FACE('',(#89,#90),#94,.T.);
#103=ADVANCED_FACE('',(#91),#19,.T.);
#104=CLOSED_SHELL('',(#95,#96,#97,#98));
#105=CLOSED_SHELL('',(#99,#100,#101,#102,#103));
#106=STYLED_ITEM('',(#108),#122);
#107=STYLED_ITEM('',(#109),#123);
#108=PRESENTATION_STYLE_ASSIGNMENT((#110));
#109=PRESENTATION_STYLE_ASSIGNMENT((#111));
#110=SURFACE_STYLE_USAGE(.BOTH.,#112);
#111=SURFACE_STYLE_USAGE(.BOTH.,#113);
#112=SURFACE_SIDE_STYLE('',(#114));
#113=SURFACE_SIDE_STYLE('',(#115));
#114=SURFACE_STYLE_FILL_AREA(#116);
#115=SURFACE_STYLE_FILL_AREA(#117);
#116=FILL_AREA_STYLE('',(#118));
#117=FILL_AREA_STYLE('',(#119));
#118=FILL_AREA_STYLE_COLOUR('',#120);
#119=FILL_AREA_STYLE_COLOUR('',#121);
#120=COLOUR_RGB('',0.529411764705882,0.568627450980392,0.6);
#121=COLOUR_RGB('',0.513725490196078,0.415686274509804,0.733333333333333);
#122=MANIFOLD_SOLID_BREP('Part 2',#104);
#123=MANIFOLD_SOLID_BREP('Part 1',#105);
#124=SHAPE_DEFINITION_REPRESENTATION(#224,#126);
#125=SHAPE_DEFINITION_REPRESENTATION(#225,#127);
#126=SHAPE_REPRESENTATION('Part 2',(#128),#214);
#127=SHAPE_REPRESENTATION('Part 1',(#137),#215);
#128=AXIS2_PLACEMENT_3D('',#185,#147,#148);
#129=AXIS2_PLACEMENT_3D('',#186,#149,#150);
#130=AXIS2_PLACEMENT_3D('',#187,#151,#152);
#131=AXIS2_PLACEMENT_3D('',#189,#153,#154);
#132=AXIS2_PLACEMENT_3D('',#191,#155,#156);
#133=AXIS2_PLACEMENT_3D('',#192,#157,#158);
#134=AXIS2_PLACEMENT_3D('',#194,#159,#160);
#135=AXIS2_PLACEMENT_3D('',#196,#161,#162);
#136=AXIS2_PLACEMENT_3D('',#197,#163,#164);
#137=AXIS2_PLACEMENT_3D('',#198,#165,#166);
#138=AXIS2_PLACEMENT_3D('',#199,#167,#168);
#139=AXIS2_PLACEMENT_3D('',#200,#169,#170);
#140=AXIS2_PLACEMENT_3D('',#202,#171,#172);
#141=AXIS2_PLACEMENT_3D('',#204,#173,#174);
#142=AXIS2_PLACEMENT_3D('',#205,#175,#176);
#143=AXIS2_PLACEMENT_3D('',#206,#177,#178);
#144=AXIS2_PLACEMENT_3D('',#208,#179,#180);
#145=AXIS2_PLACEMENT_3D('',#209,#181,#182);
#146=AXIS2_PLACEMENT_3D('',#211,#183,#184);
#147=DIRECTION('',(0.,0.,1.));
#148=DIRECTION('',(1.,0.,0.));
#149=DIRECTION('',(0.,0.,1.));
#150=DIRECTION('',(1.,0.,0.));
#151=DIRECTION('',(0.,0.,-1.));
#152=DIRECTION('',(-1.,0.,0.));
#153=DIRECTION('',(0.,0.,-1.));
#154=DIRECTION('',(-1.,0.,0.));
#155=DIRECTION('',(0.,0.,1.));
#156=DIRECTION('',(1.,0.,0.));
#157=DIRECTION('',(0.,0.,-1.));
#158=DIRECTION('',(-1.,0.,0.));
#159=DIRECTION('',(0.,0.,-1.));
#160=DIRECTION('',(-1.,0.,0.));
#161=DIRECTION('',(0.,0.,-1.));
#162=DIRECTION('',(1.,0.,0.));
#163=DIRECTION('',(0.,0.,-1.));
#164=DIRECTION('',(1.,0.,0.));
#165=DIRECTION('',(0.,0.,1.));
#166=DIRECTION('',(1.,0.,0.));
#167=DIRECTION('',(0.,0.,-1.));
#168=DIRECTION('',(-1.,0.,0.));
#169=DIRECTION('',(0.,0.,1.));
#170=DIRECTION('',(1.,0.,0.));
#171=DIRECTION('',(0.,0.,1.));
#172=DIRECTION('',(1.,0.,0.));
#173=DIRECTION('',(0.,0.,1.));
#174=DIRECTION('',(1.,0.,0.));
#175=DIRECTION('',(0.,0.,1.));
#176=DIRECTION('',(1.,0.,0.));
#177=DIRECTION('',(0.,0.,-1.));
#178=DIRECTION('',(-1.,0.,0.));
#179=DIRECTION('',(0.,0.,1.));
#180=DIRECTION('',(1.,0.,0.));
#181=DIRECTION('',(0.,0.,-1.));
#182=DIRECTION('',(-1.,0.,0.));
#183=DIRECTION('',(0.,0.,-1.));
#184=DIRECTION('',(1.,0.,0.));
#185=CARTESIAN_POINT('',(0.,0.,0.));
#186=CARTESIAN_POINT('',(0.,-4.59242549680258E-20,-0.0215));
#187=CARTESIAN_POINT('',(0.,-4.59242549680258E-20,-0.0215));
#188=CARTESIAN_POINT('',(-0.00075,-4.59242549680258E-20,-0.0215));
#189=CARTESIAN_POINT('',(0.,-4.59242549680258E-20,-0.02));
#190=CARTESIAN_POINT('',(-0.00075,-4.59242549680258E-20,-0.02));
#191=CARTESIAN_POINT('',(0.,-4.13318294712232E-19,-0.0215));
#192=CARTESIAN_POINT('',(0.,-4.13318294712232E-19,-0.0215));
#193=CARTESIAN_POINT('',(-0.006,-4.13318294712232E-19,-0.0215));
#194=CARTESIAN_POINT('',(0.,-4.13318294712232E-19,-0.02));
#195=CARTESIAN_POINT('',(-0.006,-4.13318294712232E-19,-0.02));
#196=CARTESIAN_POINT('',(0.,0.,-0.0215));
#197=CARTESIAN_POINT('',(0.,0.,-0.02));
#198=CARTESIAN_POINT('',(0.,0.,0.));
#199=CARTESIAN_POINT('',(0.,4.59242549680257E-19,0.));
#200=CARTESIAN_POINT('',(0.,3.06161699786838E-19,0.012));
#201=CARTESIAN_POINT('',(0.005,3.06161699786838E-19,0.012));
#202=CARTESIAN_POINT('',(0.,4.59242549680257E-19,0.));
#203=CARTESIAN_POINT('',(0.0075,4.59242549680257E-19,0.));
#204=CARTESIAN_POINT('',(0.,0.,0.012));
#205=CARTESIAN_POINT('',(0.,0.,0.));
#206=CARTESIAN_POINT('',(0.,-4.59242549680258E-20,0.));
#207=CARTESIAN_POINT('',(-0.00075,-4.59242549680258E-20,0.));
#208=CARTESIAN_POINT('',(0.,-4.59242549680258E-20,-0.02));
#209=CARTESIAN_POINT('',(0.,-4.59242549680258E-20,-0.02));
#210=CARTESIAN_POINT('',(-0.00075,-4.59242549680258E-20,-0.02));
#211=CARTESIAN_POINT('',(0.,3.46944695195361E-18,-0.02));
#212=MECHANICAL_DESIGN_GEOMETRIC_PRESENTATION_REPRESENTATION('',(#106),
#214);
#213=MECHANICAL_DESIGN_GEOMETRIC_PRESENTATION_REPRESENTATION('',(#107),
#215);
#214=(
GEOMETRIC_REPRESENTATION_CONTEXT(3)
GLOBAL_UNCERTAINTY_ASSIGNED_CONTEXT((#216))
GLOBAL_UNIT_ASSIGNED_CONTEXT((#222,#220,#218))
REPRESENTATION_CONTEXT('Part 2','TOP_LEVEL_ASSEMBLY_PART')
);
#215=(
GEOMETRIC_REPRESENTATION_CONTEXT(3)
GLOBAL_UNCERTAINTY_ASSIGNED_CONTEXT((#217))
GLOBAL_UNIT_ASSIGNED_CONTEXT((#223,#221,#219))
REPRESENTATION_CONTEXT('Part 1','TOP_LEVEL_ASSEMBLY_PART')
);
#216=UNCERTAINTY_MEASURE_WITH_UNIT(LENGTH_MEASURE(1.E-8),#222,
'DISTANCE_ACCURACY_VALUE','Maximum Tolerance applied to model');
#217=UNCERTAINTY_MEASURE_WITH_UNIT(LENGTH_MEASURE(1.E-8),#223,
'DISTANCE_ACCURACY_VALUE','Maximum Tolerance applied to model');
#218=(
NAMED_UNIT(*)
SI_UNIT($,.STERADIAN.)
SOLID_ANGLE_UNIT()
);
#219=(
NAMED_UNIT(*)
SI_UNIT($,.STERADIAN.)
SOLID_ANGLE_UNIT()
);
#220=(
NAMED_UNIT(*)
PLANE_ANGLE_UNIT()
SI_UNIT($,.RADIAN.)
);
#221=(
NAMED_UNIT(*)
PLANE_ANGLE_UNIT()
SI_UNIT($,.RADIAN.)
);
#222=(
LENGTH_UNIT()
NAMED_UNIT(*)
SI_UNIT($,.METRE.)
);
#223=(
LENGTH_UNIT()
NAMED_UNIT(*)
SI_UNIT($,.METRE.)
);
#224=PRODUCT_DEFINITION_SHAPE('','',#226);
#225=PRODUCT_DEFINITION_SHAPE('','',#227);
#226=PRODUCT_DEFINITION('','',#230,#228);
#227=PRODUCT_DEFINITION('','',#231,#229);
#228=PRODUCT_DEFINITION_CONTEXT('',#242,'design');
#229=PRODUCT_DEFINITION_CONTEXT('',#243,'design');
#230=PRODUCT_DEFINITION_FORMATION_WITH_SPECIFIED_SOURCE('','',#234,
 .NOT_KNOWN.);
#231=PRODUCT_DEFINITION_FORMATION_WITH_SPECIFIED_SOURCE('','',#235,
 .NOT_KNOWN.);
#232=PRODUCT_RELATED_PRODUCT_CATEGORY('','',(#234));
#233=PRODUCT_RELATED_PRODUCT_CATEGORY('','',(#235));
#234=PRODUCT('Part 2','Part 2','Part 2',(#238));
#235=PRODUCT('Part 1','Part 1','Part 1',(#239));
#236=PRODUCT_CATEGORY('','');
#237=PRODUCT_CATEGORY('','');
#238=PRODUCT_CONTEXT('',#242,'mechanical');
#239=PRODUCT_CONTEXT('',#243,'mechanical');
#240=APPLICATION_PROTOCOL_DEFINITION('international standard',
'ap242_managed_model_based_3d_engineering',2020,#242);
#241=APPLICATION_PROTOCOL_DEFINITION('international standard',
'ap242_managed_model_based_3d_engineering',2020,#243);
#242=APPLICATION_CONTEXT('managed model based 3d engineering');
#243=APPLICATION_CONTEXT('managed model based 3d engineering');
ENDSEC;
END-ISO-10303-21;
