ISO-10303-21;
HEADER;
/* Generated by software containing ST-Developer
 * from STEP Tools, Inc. (www.steptools.com) 
 */
/* OPTION: using custom renumber hook */

FILE_DESCRIPTION(
/* description */ ('STEP AP242 Edition 2',
'CAx-IF Rec.Pracs.---Representation and Presentation of Product Manufa
cturing Information (PMI)---4.0---2014-10-13',
'CAx-IF Rec.Pracs.---3D Tessellated Geometry---0.4---2014-09-14','2;1',
'CAx-IF Rec.Pracs.---User Defined Attributes---1.5---2016-08-15'),
/* implementation_level */ '2;1');

FILE_NAME(
/* name */ 'nook',
/* time_stamp */ '2026-09-06T17:58:03Z',
/* author */ (''),
/* organization */ (''),
/* preprocessor_version */ 'ST-DEVELOPER v20',
/* originating_system */ 'ONSHAPE BY PTC INC, 1.220',
/* authorisation */ '  ');

FILE_SCHEMA (('AP242_MANAGED_MODEL_BASED_3D_ENGINEERING_MIM_LF { 1 0 10303 442 3 1 4 }'));
ENDSEC;

DATA;
#10=SHAPE_REPRESENTATION_RELATIONSHIP('','',#152,#11);
#11=ADVANCED_BREP_SHAPE_REPRESENTATION('',(#150),#214);
#12=ORIENTED_EDGE('',*,*,#36,.F.);
#13=ORIENTED_EDGE('',*,*,#37,.F.);
#14=ORIENTED_EDGE('',*,*,#38,.T.);
#15=ORIENTED_EDGE('',*,*,#39,.T.);
#16=ORIENTED_EDGE('',*,*,#40,.T.);
#17=ORIENTED_EDGE('',*,*,#41,.F.);
#18=ORIENTED_EDGE('',*,*,#42,.F.);
#19=ORIENTED_EDGE('',*,*,#37,.T.);
#20=ORIENTED_EDGE('',*,*,#43,.T.);
#21=ORIENTED_EDGE('',*,*,#44,.F.);
#22=ORIENTED_EDGE('',*,*,#45,.F.);
#23=ORIENTED_EDGE('',*,*,#41,.T.);
#24=ORIENTED_EDGE('',*,*,#46,.F.);
#25=ORIENTED_EDGE('',*,*,#39,.F.);
#26=ORIENTED_EDGE('',*,*,#47,.T.);
#27=ORIENTED_EDGE('',*,*,#44,.T.);
#28=ORIENTED_EDGE('',*,*,#38,.F.);
#29=ORIENTED_EDGE('',*,*,#42,.T.);
#30=ORIENTED_EDGE('',*,*,#45,.T.);
#31=ORIENTED_EDGE('',*,*,#47,.F.);
#32=ORIENTED_EDGE('',*,*,#36,.T.);
#33=ORIENTED_EDGE('',*,*,#46,.T.);
#34=ORIENTED_EDGE('',*,*,#43,.F.);
#35=ORIENTED_EDGE('',*,*,#40,.F.);
#36=EDGE_CURVE('',#48,#49,#56,.T.);
#37=EDGE_CURVE('',#50,#48,#57,.T.);
#38=EDGE_CURVE('',#50,#51,#58,.T.);
#39=EDGE_CURVE('',#51,#49,#59,.T.);
#40=EDGE_CURVE('',#48,#52,#60,.T.);
#41=EDGE_CURVE('',#53,#52,#61,.T.);
#42=EDGE_CURVE('',#50,#53,#62,.T.);
#43=EDGE_CURVE('',#52,#54,#63,.T.);
#44=EDGE_CURVE('',#55,#54,#64,.T.);
#45=EDGE_CURVE('',#53,#55,#65,.T.);
#46=EDGE_CURVE('',#49,#54,#66,.T.);
#47=EDGE_CURVE('',#51,#55,#67,.T.);
#48=VERTEX_POINT('',#189);
#49=VERTEX_POINT('',#190);
#50=VERTEX_POINT('',#192);
#51=VERTEX_POINT('',#194);
#52=VERTEX_POINT('',#198);
#53=VERTEX_POINT('',#200);
#54=VERTEX_POINT('',#204);
#55=VERTEX_POINT('',#206);
#56=LINE('',#188,#68);
#57=LINE('',#191,#69);
#58=LINE('',#193,#70);
#59=LINE('',#195,#71);
#60=LINE('',#197,#72);
#61=LINE('',#199,#73);
#62=LINE('',#201,#74);
#63=LINE('',#203,#75);
#64=LINE('',#205,#76);
#65=LINE('',#207,#77);
#66=LINE('',#209,#78);
#67=LINE('',#210,#79);
#68=VECTOR('',#164,1.);
#69=VECTOR('',#165,1.);
#70=VECTOR('',#166,1.);
#71=VECTOR('',#167,1.);
#72=VECTOR('',#170,1.);
#73=VECTOR('',#171,1.);
#74=VECTOR('',#172,1.);
#75=VECTOR('',#175,1.);
#76=VECTOR('',#176,1.);
#77=VECTOR('',#177,1.);
#78=VECTOR('',#180,1.);
#79=VECTOR('',#181,1.);
#80=EDGE_LOOP('',(#12,#13,#14,#15));
#81=EDGE_LOOP('',(#16,#17,#18,#19));
#82=EDGE_LOOP('',(#20,#21,#22,#23));
#83=EDGE_LOOP('',(#24,#25,#26,#27));
#84=EDGE_LOOP('',(#28,#29,#30,#31));
#85=EDGE_LOOP('',(#32,#33,#34,#35));
#86=FACE_BOUND('',#80,.T.);
#87=FACE_BOUND('',#81,.T.);
#88=FACE_BOUND('',#82,.T.);
#89=FACE_BOUND('',#83,.T.);
#90=FACE_BOUND('',#84,.T.);
#91=FACE_BOUND('',#85,.T.);
#92=PLANE('',#154);
#93=PLANE('',#155);
#94=PLANE('',#156);
#95=PLANE('',#157);
#96=PLANE('',#158);
#97=PLANE('',#159);
#98=OVER_RIDING_STYLED_ITEM('',(#112),#103,#110);
#99=OVER_RIDING_STYLED_ITEM('',(#113),#104,#110);
#100=OVER_RIDING_STYLED_ITEM('',(#114),#105,#110);
#101=OVER_RIDING_STYLED_ITEM('',(#115),#106,#110);
#102=OVER_RIDING_STYLED_ITEM('',(#116),#107,#110);
#103=ADVANCED_FACE('Face appearance 3',(#86),#92,.T.);
#104=ADVANCED_FACE('Face appearance 2',(#87),#93,.F.);
#105=ADVANCED_FACE('Face appearance 1',(#88),#94,.F.);
#106=ADVANCED_FACE('Face appearance 4',(#89),#95,.T.);
#107=ADVANCED_FACE('Face appearance 5',(#90),#96,.T.);
#108=ADVANCED_FACE('',(#91),#97,.F.);
#109=CLOSED_SHELL('',(#103,#104,#105,#106,#107,#108));
#110=STYLED_ITEM('',(#111),#150);
#111=PRESENTATION_STYLE_ASSIGNMENT((#117));
#112=PRESENTATION_STYLE_ASSIGNMENT((#118));
#113=PRESENTATION_STYLE_ASSIGNMENT((#119));
#114=PRESENTATION_STYLE_ASSIGNMENT((#120));
#115=PRESENTATION_STYLE_ASSIGNMENT((#121));
#116=PRESENTATION_STYLE_ASSIGNMENT((#122));
#117=SURFACE_STYLE_USAGE(.BOTH.,#123);
#118=SURFACE_STYLE_USAGE(.BOTH.,#124);
#119=SURFACE_STYLE_USAGE(.BOTH.,#125);
#120=SURFACE_STYLE_USAGE(.BOTH.,#126);
#121=SURFACE_STYLE_USAGE(.BOTH.,#127);
#122=SURFACE_STYLE_USAGE(.BOTH.,#128);
#123=SURFACE_SIDE_STYLE('',(#129));
#124=SURFACE_SIDE_STYLE('',(#130));
#125=SURFACE_SIDE_STYLE('',(#131));
#126=SURFACE_SIDE_STYLE('',(#132));
#127=SURFACE_SIDE_STYLE('',(#133));
#128=SURFACE_SIDE_STYLE('',(#134));
#129=SURFACE_STYLE_FILL_AREA(#135);
#130=SURFACE_STYLE_FILL_AREA(#136);
#131=SURFACE_STYLE_FILL_AREA(#137);
#132=SURFACE_STYLE_FILL_AREA(#138);
#133=SURFACE_STYLE_FILL_AREA(#139);
#134=SURFACE_STYLE_FILL_AREA(#140);
#135=FILL_AREA_STYLE('',(#141));
#136=FILL_AREA_STYLE('',(#142));
#137=FILL_AREA_STYLE('',(#143));
#138=FILL_AREA_STYLE('',(#144));
#139=FILL_AREA_STYLE('',(#145));
#140=FILL_AREA_STYLE('',(#146));
#141=FILL_AREA_STYLE_COLOUR('',#147);
#142=FILL_AREA_STYLE_COLOUR('',#148);
#143=FILL_AREA_STYLE_COLOUR('',#148);
#144=FILL_AREA_STYLE_COLOUR('',#148);
#145=FILL_AREA_STYLE_COLOUR('',#148);
#146=FILL_AREA_STYLE_COLOUR('',#149);
#147=COLOUR_RGB('',0.615686274509804,0.811764705882353,0.929411764705882);
#148=COLOUR_RGB('',0.8,0.776470588235294,0.713725490196078);
#149=COLOUR_RGB('',0.8,0.749019607843137,0.913725490196078);
#150=MANIFOLD_SOLID_BREP('Part 1',#109);
#151=SHAPE_DEFINITION_REPRESENTATION(#219,#152);
#152=SHAPE_REPRESENTATION('Part 1',(#153),#214);
#153=AXIS2_PLACEMENT_3D('',#186,#160,#161);
#154=AXIS2_PLACEMENT_3D('',#187,#162,#163);
#155=AXIS2_PLACEMENT_3D('',#196,#168,#169);
#156=AXIS2_PLACEMENT_3D('',#202,#173,#174);
#157=AXIS2_PLACEMENT_3D('',#208,#178,#179);
#158=AXIS2_PLACEMENT_3D('',#211,#182,#183);
#159=AXIS2_PLACEMENT_3D('',#212,#184,#185);
#160=DIRECTION('',(0.,0.,1.));
#161=DIRECTION('',(1.,0.,0.));
#162=DIRECTION('',(0.,1.,0.));
#163=DIRECTION('',(0.,0.,1.));
#164=DIRECTION('',(1.,0.,0.));
#165=DIRECTION('',(0.,0.,-1.));
#166=DIRECTION('',(1.,0.,0.));
#167=DIRECTION('',(0.,0.,-1.));
#168=DIRECTION('',(1.,0.,0.));
#169=DIRECTION('',(0.,0.,-1.));
#170=DIRECTION('',(0.,-1.,0.));
#171=DIRECTION('',(0.,0.,-1.));
#172=DIRECTION('',(0.,-1.,0.));
#173=DIRECTION('',(0.,1.,0.));
#174=DIRECTION('',(0.,0.,1.));
#175=DIRECTION('',(1.,0.,0.));
#176=DIRECTION('',(0.,0.,-1.));
#177=DIRECTION('',(1.,0.,0.));
#178=DIRECTION('',(1.,0.,0.));
#179=DIRECTION('',(0.,0.,-1.));
#180=DIRECTION('',(0.,-1.,0.));
#181=DIRECTION('',(0.,-1.,0.));
#182=DIRECTION('',(0.,0.,1.));
#183=DIRECTION('',(1.,0.,0.));
#184=DIRECTION('',(0.,0.,1.));
#185=DIRECTION('',(1.,0.,0.));
#186=CARTESIAN_POINT('',(0.,0.,0.));
#187=CARTESIAN_POINT('',(1.38777878078145E-17,0.015,0.025));
#188=CARTESIAN_POINT('',(1.38777878078145E-17,0.015,0.));
#189=CARTESIAN_POINT('',(-0.0675,0.015,0.));
#190=CARTESIAN_POINT('',(0.0675,0.015,0.));
#191=CARTESIAN_POINT('',(-0.0675,0.015,0.025));
#192=CARTESIAN_POINT('',(-0.0675,0.015,0.025));
#193=CARTESIAN_POINT('',(1.38777878078145E-17,0.015,0.025));
#194=CARTESIAN_POINT('',(0.0675,0.015,0.025));
#195=CARTESIAN_POINT('',(0.0675,0.015,0.025));
#196=CARTESIAN_POINT('',(-0.0675,-1.7347234759768E-18,0.025));
#197=CARTESIAN_POINT('',(-0.0675,-1.7347234759768E-18,0.));
#198=CARTESIAN_POINT('',(-0.0675,-0.015,0.));
#199=CARTESIAN_POINT('',(-0.0675,-0.015,0.025));
#200=CARTESIAN_POINT('',(-0.0675,-0.015,0.025));
#201=CARTESIAN_POINT('',(-0.0675,-1.7347234759768E-18,0.025));
#202=CARTESIAN_POINT('',(0.,-0.015,0.025));
#203=CARTESIAN_POINT('',(0.,-0.015,0.));
#204=CARTESIAN_POINT('',(0.0675,-0.015,0.));
#205=CARTESIAN_POINT('',(0.0675,-0.015,0.025));
#206=CARTESIAN_POINT('',(0.0675,-0.015,0.025));
#207=CARTESIAN_POINT('',(0.,-0.015,0.025));
#208=CARTESIAN_POINT('',(0.0675,-3.46944695195361E-18,0.025));
#209=CARTESIAN_POINT('',(0.0675,-3.46944695195361E-18,0.));
#210=CARTESIAN_POINT('',(0.0675,-3.46944695195361E-18,0.025));
#211=CARTESIAN_POINT('',(1.38777878078145E-17,-3.46944695195361E-18,0.025));
#212=CARTESIAN_POINT('',(1.38777878078145E-17,-3.46944695195361E-18,0.));
#213=MECHANICAL_DESIGN_GEOMETRIC_PRESENTATION_REPRESENTATION('',(#110,#98,
#99,#100,#101,#102),#214);
#214=(
GEOMETRIC_REPRESENTATION_CONTEXT(3)
GLOBAL_UNCERTAINTY_ASSIGNED_CONTEXT((#215))
GLOBAL_UNIT_ASSIGNED_CONTEXT((#218,#217,#216))
REPRESENTATION_CONTEXT('Part 1','TOP_LEVEL_ASSEMBLY_PART')
);
#215=UNCERTAINTY_MEASURE_WITH_UNIT(LENGTH_MEASURE(1.E-8),#218,
'DISTANCE_ACCURACY_VALUE','Maximum Tolerance applied to model');
#216=(
NAMED_UNIT(*)
SI_UNIT($,.STERADIAN.)
SOLID_ANGLE_UNIT()
);
#217=(
NAMED_UNIT(*)
PLANE_ANGLE_UNIT()
SI_UNIT($,.RADIAN.)
);
#218=(
LENGTH_UNIT()
NAMED_UNIT(*)
SI_UNIT($,.METRE.)
);
#219=PRODUCT_DEFINITION_SHAPE('','',#220);
#220=PRODUCT_DEFINITION('','',#222,#221);
#221=PRODUCT_DEFINITION_CONTEXT('',#228,'design');
#222=PRODUCT_DEFINITION_FORMATION_WITH_SPECIFIED_SOURCE('','',#224,
 .NOT_KNOWN.);
#223=PRODUCT_RELATED_PRODUCT_CATEGORY('','',(#224));
#224=PRODUCT('Part 1','Part 1','Part 1',(#226));
#225=PRODUCT_CATEGORY('','');
#226=PRODUCT_CONTEXT('',#228,'mechanical');
#227=APPLICATION_PROTOCOL_DEFINITION('international standard',
'ap242_managed_model_based_3d_engineering',2020,#228);
#228=APPLICATION_CONTEXT('managed model based 3d engineering');
ENDSEC;
END-ISO-10303-21;
