ISO-10303-21;
HEADER;
/* Generated by software containing ST-Developer
 * from STEP Tools, Inc. (www.steptools.com) 
 */
/* OPTION: using custom renumber hook */

FILE_DESCRIPTION(
/* description */ ('STEP AP242 Edition 2',
'CAx-IF Rec.Pracs.---Representation and Presentation of Product Manufa
cturing Information (PMI)---4.0---2014-10-13',
'CAx-IF Rec.Pracs.---3D Tessellated Geometry---0.4---2014-09-14','2;1',
'CAx-IF Rec.Pracs.---User Defined Attributes---1.5---2016-08-15'),
/* implementation_level */ '2;1');

FILE_NAME(
/* name */ 'plant',
/* time_stamp */ '2026-09-06T17:56:08Z',
/* author */ (''),
/* organization */ (''),
/* preprocessor_version */ 'ST-DEVELOPER v20',
/* originating_system */ 'ONSHAPE BY PTC INC, 1.220',
/* authorisation */ '  ');

FILE_SCHEMA (('AP242_MANAGED_MODEL_BASED_3D_ENGINEERING_MIM_LF { 1 0 10303 442 3 1 4 }'));
ENDSEC;

DATA;
#10=ADVANCED_BREP_SHAPE_REPRESENTATION('',(#16),#183);
#11=TOROIDAL_SURFACE('',#123,0.005,0.002);
#12=TOROIDAL_SURFACE('',#124,0.002,0.002);
#13=PLANE('',#117);
#14=PLANE('',#122);
#15=CLOSED_SHELL('',(#81,#82,#83,#84,#85,#86));
#16=MANIFOLD_SOLID_BREP('Part 1',#15);
#17=SHAPE_REPRESENTATION_RELATIONSHIP('','',#107,#19);
#18=SHAPE_REPRESENTATION_RELATIONSHIP('','',#108,#10);
#19=MANIFOLD_SURFACE_SHAPE_REPRESENTATION('',(#104),#182);
#20=ORIENTED_EDGE('',*,*,#32,.T.);
#21=ORIENTED_EDGE('',*,*,#33,.F.);
#22=ORIENTED_EDGE('',*,*,#34,.T.);
#23=ORIENTED_EDGE('',*,*,#35,.T.);
#24=ORIENTED_EDGE('',*,*,#36,.T.);
#25=ORIENTED_EDGE('',*,*,#37,.T.);
#26=ORIENTED_EDGE('',*,*,#38,.F.);
#27=ORIENTED_EDGE('',*,*,#38,.T.);
#28=ORIENTED_EDGE('',*,*,#35,.F.);
#29=ORIENTED_EDGE('',*,*,#37,.F.);
#30=ORIENTED_EDGE('',*,*,#36,.F.);
#31=ORIENTED_EDGE('',*,*,#34,.F.);
#32=EDGE_CURVE('',#39,#39,#46,.T.);
#33=EDGE_CURVE('',#40,#40,#47,.T.);
#34=EDGE_CURVE('',#41,#41,#48,.T.);
#35=EDGE_CURVE('',#42,#42,#49,.T.);
#36=EDGE_CURVE('',#43,#43,#50,.F.);
#37=EDGE_CURVE('',#44,#44,#51,.T.);
#38=EDGE_CURVE('',#45,#45,#52,.T.);
#39=VERTEX_POINT('',#160);
#40=VERTEX_POINT('',#162);
#41=VERTEX_POINT('',#166);
#42=VERTEX_POINT('',#168);
#43=VERTEX_POINT('',#171);
#44=VERTEX_POINT('',#174);
#45=VERTEX_POINT('',#176);
#46=CIRCLE('',#111,0.00157908469330902);
#47=CIRCLE('',#112,0.00157908469330902);
#48=CIRCLE('',#115,0.004);
#49=CIRCLE('',#116,0.004);
#50=CIRCLE('',#118,0.002);
#51=CIRCLE('',#120,0.003);
#52=CIRCLE('',#121,0.003);
#53=EDGE_LOOP('',(#20));
#54=EDGE_LOOP('',(#21));
#55=EDGE_LOOP('',(#22));
#56=EDGE_LOOP('',(#23));
#57=EDGE_LOOP('',(#24));
#58=EDGE_LOOP('',(#25));
#59=EDGE_LOOP('',(#26));
#60=EDGE_LOOP('',(#27));
#61=EDGE_LOOP('',(#28));
#62=EDGE_LOOP('',(#29));
#63=EDGE_LOOP('',(#30));
#64=EDGE_LOOP('',(#31));
#65=FACE_BOUND('',#53,.T.);
#66=FACE_BOUND('',#54,.T.);
#67=FACE_BOUND('',#55,.T.);
#68=FACE_BOUND('',#56,.T.);
#69=FACE_BOUND('',#57,.T.);
#70=FACE_BOUND('',#58,.T.);
#71=FACE_BOUND('',#59,.T.);
#72=FACE_BOUND('',#60,.T.);
#73=FACE_BOUND('',#61,.T.);
#74=FACE_BOUND('',#62,.T.);
#75=FACE_BOUND('',#63,.T.);
#76=FACE_BOUND('',#64,.T.);
#77=CYLINDRICAL_SURFACE('',#110,0.00157908469330902);
#78=CYLINDRICAL_SURFACE('',#114,0.004);
#79=CYLINDRICAL_SURFACE('',#119,0.003);
#80=ADVANCED_FACE('',(#65,#66),#77,.T.);
#81=ADVANCED_FACE('',(#67,#68),#78,.T.);
#82=ADVANCED_FACE('',(#69),#13,.F.);
#83=ADVANCED_FACE('',(#70,#71),#79,.F.);
#84=ADVANCED_FACE('',(#72),#14,.T.);
#85=ADVANCED_FACE('',(#73,#74),#11,.T.);
#86=ADVANCED_FACE('',(#75,#76),#12,.T.);
#87=OPEN_SHELL('',(#80));
#88=STYLED_ITEM('',(#90),#104);
#89=STYLED_ITEM('',(#91),#16);
#90=PRESENTATION_STYLE_ASSIGNMENT((#92));
#91=PRESENTATION_STYLE_ASSIGNMENT((#93));
#92=SURFACE_STYLE_USAGE(.BOTH.,#94);
#93=SURFACE_STYLE_USAGE(.BOTH.,#95);
#94=SURFACE_SIDE_STYLE('',(#96));
#95=SURFACE_SIDE_STYLE('',(#97));
#96=SURFACE_STYLE_FILL_AREA(#98);
#97=SURFACE_STYLE_FILL_AREA(#99);
#98=FILL_AREA_STYLE('',(#100));
#99=FILL_AREA_STYLE('',(#101));
#100=FILL_AREA_STYLE_COLOUR('',#102);
#101=FILL_AREA_STYLE_COLOUR('',#103);
#102=COLOUR_RGB('',0.647058823529412,0.647058823529412,0.647058823529412);
#103=COLOUR_RGB('',0.901960784313726,0.901960784313726,0.901960784313726);
#104=SHELL_BASED_SURFACE_MODEL('Surface 1',(#87));
#105=SHAPE_DEFINITION_REPRESENTATION(#192,#107);
#106=SHAPE_DEFINITION_REPRESENTATION(#193,#108);
#107=SHAPE_REPRESENTATION('Surface 1',(#109),#182);
#108=SHAPE_REPRESENTATION('Part 1',(#113),#183);
#109=AXIS2_PLACEMENT_3D('',#157,#125,#126);
#110=AXIS2_PLACEMENT_3D('',#158,#127,#128);
#111=AXIS2_PLACEMENT_3D('',#159,#129,#130);
#112=AXIS2_PLACEMENT_3D('',#161,#131,#132);
#113=AXIS2_PLACEMENT_3D('',#163,#133,#134);
#114=AXIS2_PLACEMENT_3D('',#164,#135,#136);
#115=AXIS2_PLACEMENT_3D('',#165,#137,#138);
#116=AXIS2_PLACEMENT_3D('',#167,#139,#140);
#117=AXIS2_PLACEMENT_3D('',#169,#141,#142);
#118=AXIS2_PLACEMENT_3D('',#170,#143,#144);
#119=AXIS2_PLACEMENT_3D('',#172,#145,#146);
#120=AXIS2_PLACEMENT_3D('',#173,#147,#148);
#121=AXIS2_PLACEMENT_3D('',#175,#149,#150);
#122=AXIS2_PLACEMENT_3D('',#177,#151,#152);
#123=AXIS2_PLACEMENT_3D('',#178,#153,#154);
#124=AXIS2_PLACEMENT_3D('',#179,#155,#156);
#125=DIRECTION('',(0.,0.,1.));
#126=DIRECTION('',(1.,0.,0.));
#127=DIRECTION('',(0.,0.,1.));
#128=DIRECTION('',(1.,0.,0.));
#129=DIRECTION('',(0.,0.,1.));
#130=DIRECTION('',(1.,0.,0.));
#131=DIRECTION('',(0.,0.,1.));
#132=DIRECTION('',(1.,0.,0.));
#133=DIRECTION('',(0.,0.,1.));
#134=DIRECTION('',(1.,0.,0.));
#135=DIRECTION('',(0.,0.,-1.));
#136=DIRECTION('',(-1.,0.,0.));
#137=DIRECTION('',(0.,0.,1.));
#138=DIRECTION('',(1.,0.,0.));
#139=DIRECTION('',(0.,0.,-1.));
#140=DIRECTION('',(-1.,0.,0.));
#141=DIRECTION('',(0.,0.,1.));
#142=DIRECTION('',(1.,0.,0.));
#143=DIRECTION('',(0.,0.,1.));
#144=DIRECTION('',(1.,0.,0.));
#145=DIRECTION('',(0.,0.,-1.));
#146=DIRECTION('',(-1.,0.,0.));
#147=DIRECTION('',(0.,0.,1.));
#148=DIRECTION('',(1.,0.,0.));
#149=DIRECTION('',(0.,0.,1.));
#150=DIRECTION('',(1.,0.,0.));
#151=DIRECTION('',(0.,0.,1.));
#152=DIRECTION('',(1.,0.,0.));
#153=DIRECTION('',(0.,0.,1.));
#154=DIRECTION('',(1.,0.,0.));
#155=DIRECTION('',(0.,0.,1.));
#156=DIRECTION('',(1.,0.,0.));
#157=CARTESIAN_POINT('',(0.,0.,0.));
#158=CARTESIAN_POINT('',(0.,0.,0.001));
#159=CARTESIAN_POINT('',(0.,0.,0.001));
#160=CARTESIAN_POINT('',(0.00157908469330902,0.,0.001));
#161=CARTESIAN_POINT('',(0.,0.,0.005));
#162=CARTESIAN_POINT('',(0.00157908469330902,0.,0.005));
#163=CARTESIAN_POINT('',(0.,0.,0.));
#164=CARTESIAN_POINT('',(0.,2.4492935982947E-19,0.008));
#165=CARTESIAN_POINT('',(0.,2.4492935982947E-19,0.002));
#166=CARTESIAN_POINT('',(0.004,2.4492935982947E-19,0.002));
#167=CARTESIAN_POINT('',(0.,2.4492935982947E-19,0.00773205080756888));
#168=CARTESIAN_POINT('',(-0.004,2.4492935982947E-19,0.00773205080756888));
#169=CARTESIAN_POINT('',(0.,0.,0.));
#170=CARTESIAN_POINT('',(0.,2.4492935982947E-19,0.));
#171=CARTESIAN_POINT('',(0.002,2.4492935982947E-19,0.));
#172=CARTESIAN_POINT('',(0.,2.4492935982947E-19,0.008));
#173=CARTESIAN_POINT('',(0.,2.4492935982947E-19,0.006));
#174=CARTESIAN_POINT('',(0.003,2.4492935982947E-19,0.006));
#175=CARTESIAN_POINT('',(0.,2.4492935982947E-19,0.001));
#176=CARTESIAN_POINT('',(0.003,2.4492935982947E-19,0.001));
#177=CARTESIAN_POINT('',(0.,0.,0.001));
#178=CARTESIAN_POINT('',(0.,2.4492935982947E-19,0.006));
#179=CARTESIAN_POINT('',(0.,2.4492935982947E-19,0.002));
#180=MECHANICAL_DESIGN_GEOMETRIC_PRESENTATION_REPRESENTATION('',(#88),#182);
#181=MECHANICAL_DESIGN_GEOMETRIC_PRESENTATION_REPRESENTATION('',(#89),#183);
#182=(
GEOMETRIC_REPRESENTATION_CONTEXT(3)
GLOBAL_UNCERTAINTY_ASSIGNED_CONTEXT((#184))
GLOBAL_UNIT_ASSIGNED_CONTEXT((#190,#188,#186))
REPRESENTATION_CONTEXT('Surface 1','TOP_LEVEL_ASSEMBLY_PART')
);
#183=(
GEOMETRIC_REPRESENTATION_CONTEXT(3)
GLOBAL_UNCERTAINTY_ASSIGNED_CONTEXT((#185))
GLOBAL_UNIT_ASSIGNED_CONTEXT((#191,#189,#187))
REPRESENTATION_CONTEXT('Part 1','TOP_LEVEL_ASSEMBLY_PART')
);
#184=UNCERTAINTY_MEASURE_WITH_UNIT(LENGTH_MEASURE(1.E-8),#190,
'DISTANCE_ACCURACY_VALUE','Maximum Tolerance applied to model');
#185=UNCERTAINTY_MEASURE_WITH_UNIT(LENGTH_MEASURE(1.E-8),#191,
'DISTANCE_ACCURACY_VALUE','Maximum Tolerance applied to model');
#186=(
NAMED_UNIT(*)
SI_UNIT($,.STERADIAN.)
SOLID_ANGLE_UNIT()
);
#187=(
NAMED_UNIT(*)
SI_UNIT($,.STERADIAN.)
SOLID_ANGLE_UNIT()
);
#188=(
NAMED_UNIT(*)
PLANE_ANGLE_UNIT()
SI_UNIT($,.RADIAN.)
);
#189=(
NAMED_UNIT(*)
PLANE_ANGLE_UNIT()
SI_UNIT($,.RADIAN.)
);
#190=(
LENGTH_UNIT()
NAMED_UNIT(*)
SI_UNIT($,.METRE.)
);
#191=(
LENGTH_UNIT()
NAMED_UNIT(*)
SI_UNIT($,.METRE.)
);
#192=PRODUCT_DEFINITION_SHAPE('','',#194);
#193=PRODUCT_DEFINITION_SHAPE('','',#195);
#194=PRODUCT_DEFINITION('','',#198,#196);
#195=PRODUCT_DEFINITION('','',#199,#197);
#196=PRODUCT_DEFINITION_CONTEXT('',#210,'design');
#197=PRODUCT_DEFINITION_CONTEXT('',#211,'design');
#198=PRODUCT_DEFINITION_FORMATION_WITH_SPECIFIED_SOURCE('','',#202,
 .NOT_KNOWN.);
#199=PRODUCT_DEFINITION_FORMATION_WITH_SPECIFIED_SOURCE('','',#203,
 .NOT_KNOWN.);
#200=PRODUCT_RELATED_PRODUCT_CATEGORY('','',(#202));
#201=PRODUCT_RELATED_PRODUCT_CATEGORY('','',(#203));
#202=PRODUCT('Surface 1','Surface 1','Surface 1',(#206));
#203=PRODUCT('Part 1','Part 1','Part 1',(#207));
#204=PRODUCT_CATEGORY('','');
#205=PRODUCT_CATEGORY('','');
#206=PRODUCT_CONTEXT('',#210,'mechanical');
#207=PRODUCT_CONTEXT('',#211,'mechanical');
#208=APPLICATION_PROTOCOL_DEFINITION('international standard',
'ap242_managed_model_based_3d_engineering',2020,#210);
#209=APPLICATION_PROTOCOL_DEFINITION('international standard',
'ap242_managed_model_based_3d_engineering',2020,#211);
#210=APPLICATION_CONTEXT('managed model based 3d engineering');
#211=APPLICATION_CONTEXT('managed model based 3d engineering');
ENDSEC;
END-ISO-10303-21;
